<?xml version="1.0" encoding="utf-8"?>
<!-- Generator: Adobe Illustrator 17.0.0, SVG Export Plug-In . SVG Version: 6.00 Build 0)  -->
<!DOCTYPE svg PUBLIC "-//W3C//DTD SVG 1.1//EN" "http://www.w3.org/Graphics/SVG/1.1/DTD/svg11.dtd">
<svg version="1.1" id="图层_1" xmlns="http://www.w3.org/2000/svg" xmlns:xlink="http://www.w3.org/1999/xlink" x="0px" y="0px"
	 width="16px" height="16px" viewBox="0 0 16 16" enable-background="new 0 0 16 16" xml:space="preserve">
<g>
	<path fill="#515151" d="M12.499,5.224c-0.141,0-0.271,0.04-0.399,0.081c-0.155-0.964-0.637-1.809-1.334-2.431l1.112-1.112
		c0.195-0.195,0.195-0.512,0-0.707s-0.512-0.195-0.707,0L9.93,2.296C9.352,1.991,8.703,1.802,8.004,1.802
		c-0.699,0-1.348,0.189-1.927,0.493L4.834,1.054c-0.195-0.195-0.512-0.195-0.707,0s-0.195,0.512,0,0.707L5.24,2.873
		C4.543,3.496,4.061,4.342,3.906,5.306C3.776,5.263,3.644,5.224,3.5,5.224c-0.735,0-1.333,0.598-1.333,1.333v3.271
		c0,0.735,0.598,1.334,1.333,1.334c0.12,0,0.229-0.039,0.34-0.069v0.443c0,1.068,0.85,1.933,1.91,1.968v1.09
		c0,0.276,0.224,0.5,0.5,0.5s0.5-0.224,0.5-0.5v-1.084h2.609v1.084c0,0.276,0.224,0.5,0.5,0.5s0.5-0.224,0.5-0.5v-1.1
		c1.011-0.085,1.809-0.924,1.809-1.957v-0.441c0.109,0.029,0.214,0.067,0.332,0.067c0.735,0,1.334-0.599,1.334-1.334V6.557
		C13.833,5.822,13.235,5.224,12.499,5.224z M8.004,2.802c1.488,0,2.734,1.035,3.07,2.421H4.937C5.273,3.838,6.516,2.802,8.004,2.802
		z M3.833,9.827c0,0.185-0.149,0.334-0.333,0.334s-0.333-0.149-0.333-0.334V6.557c0-0.184,0.149-0.333,0.333-0.333
		s0.333,0.149,0.333,0.333V9.827z M10.193,12.509h-4.38c-0.537,0-0.974-0.437-0.974-0.974v-0.723V7.609V6.224h6.323v1.37
		l0.004,0.795v1.439c0,0.002,0.001,0.003,0.001,0.005v1.703C11.167,12.072,10.731,12.509,10.193,12.509z M12.833,9.827
		c0,0.185-0.149,0.334-0.334,0.334c-0.183,0-0.331-0.148-0.332-0.332V7.593h-0.001V6.557c0-0.184,0.149-0.333,0.333-0.333
		c0.185,0,0.334,0.149,0.334,0.333V9.827z"/>
	<path fill="#515151" d="M6.958,4.854c0.276,0,0.5-0.224,0.5-0.5V4.203c0-0.276-0.224-0.5-0.5-0.5s-0.5,0.224-0.5,0.5v0.151
		C6.458,4.63,6.682,4.854,6.958,4.854z"/>
	<path fill="#515151" d="M8.958,4.854c0.276,0,0.5-0.224,0.5-0.5V4.203c0-0.276-0.224-0.5-0.5-0.5s-0.5,0.224-0.5,0.5v0.151
		C8.458,4.63,8.682,4.854,8.958,4.854z"/>
</g>
</svg>
