<?xml version="1.0" encoding="utf-8"?>
<!-- Generator: Adobe Illustrator 17.0.0, SVG Export Plug-In . SVG Version: 6.00 Build 0)  -->
<!DOCTYPE svg PUBLIC "-//W3C//DTD SVG 1.1//EN" "http://www.w3.org/Graphics/SVG/1.1/DTD/svg11.dtd">
<svg version="1.1" id="图层_1" xmlns="http://www.w3.org/2000/svg" xmlns:xlink="http://www.w3.org/1999/xlink" x="0px" y="0px"
	 width="16px" height="16px" viewBox="0 0 16 16" enable-background="new 0 0 16 16" xml:space="preserve">
<g>
	<path fill="#535455" d="M15.87,17.167H5.437c-0.276,0-0.5-0.224-0.5-0.5s0.224-0.5,0.5-0.5H15.87c0.276,0,0.5,0.224,0.5,0.5
		S16.146,17.167,15.87,17.167z"/>
</g>
<g>
	<path fill="#535455" d="M13.655,5.75c-0.276,0-0.5,0.224-0.5,0.5v6.281c0,0.827-0.673,1.5-1.5,1.5H4.126
		c-0.827,0-1.5-0.673-1.5-1.5V3.839c0-0.827,0.673-1.5,1.5-1.5h5.9c0.276,0,0.5-0.224,0.5-0.5s-0.224-0.5-0.5-0.5h-5.9
		c-1.378,0-2.5,1.122-2.5,2.5v8.693c0,1.379,1.122,2.5,2.5,2.5h7.529c1.379,0,2.5-1.121,2.5-2.5V6.25
		C14.155,5.974,13.931,5.75,13.655,5.75z"/>
	<path fill="#535455" d="M14.228,1.115c-0.195-0.195-0.512-0.195-0.707,0L8.854,5.782c-0.195,0.195-0.195,0.512,0,0.708
		c0.098,0.098,0.226,0.146,0.354,0.146S9.463,6.587,9.561,6.49l4.667-4.667C14.423,1.627,14.423,1.31,14.228,1.115z"/>
	<path fill="#535455" d="M7.787,3.873H4.53c-0.276,0-0.5,0.224-0.5,0.5s0.224,0.5,0.5,0.5h3.257c0.276,0,0.5-0.224,0.5-0.5
		S8.064,3.873,7.787,3.873z"/>
	<path fill="#535455" d="M4.53,7.248h3.257c0.276,0,0.5-0.224,0.5-0.5s-0.224-0.5-0.5-0.5H4.53c-0.276,0-0.5,0.224-0.5,0.5
		S4.254,7.248,4.53,7.248z"/>
	<path fill="#535455" d="M11.359,8.623H4.545c-0.276,0-0.5,0.224-0.5,0.5s0.224,0.5,0.5,0.5h6.814c0.276,0,0.5-0.224,0.5-0.5
		S11.635,8.623,11.359,8.623z"/>
	<path fill="#535455" d="M11.359,10.998H4.545c-0.276,0-0.5,0.224-0.5,0.5s0.224,0.5,0.5,0.5h6.814c0.276,0,0.5-0.224,0.5-0.5
		S11.635,10.998,11.359,10.998z"/>
</g>
</svg>
