<?xml version="1.0" encoding="utf-8"?>
<!-- Generator: Adobe Illustrator 17.0.0, SVG Export Plug-In . SVG Version: 6.00 Build 0)  -->
<!DOCTYPE svg PUBLIC "-//W3C//DTD SVG 1.1//EN" "http://www.w3.org/Graphics/SVG/1.1/DTD/svg11.dtd">
<svg version="1.1" id="图层_1" xmlns="http://www.w3.org/2000/svg" xmlns:xlink="http://www.w3.org/1999/xlink" x="0px" y="0px"
	 width="200px" height="200px" viewBox="0 0 200 200" enable-background="new 0 0 200 200" xml:space="preserve">
<path fill="#040000" d="M186.869,199.278H13.131c-6.854,0-12.41-5.556-12.41-12.41c0-6.854,5.556-12.41,12.41-12.41h173.737
	c6.854,0,12.41,5.556,12.41,12.41C199.278,193.722,193.722,199.278,186.869,199.278z M174.459,162.049h-12.41
	c-6.854,0-12.41-5.556-12.41-12.41V100c0-6.854,5.556-12.41,12.41-12.41h12.41c6.854,0,12.41,5.556,12.41,12.41v49.639
	C186.869,156.493,181.313,162.049,174.459,162.049z M112.41,162.049H100c-6.854,0-12.41-5.556-12.41-12.41V13.131
	c0-6.854,5.556-12.41,12.41-12.41h12.41c6.854,0,12.41,5.556,12.41,12.41v136.508C124.82,156.493,119.264,162.049,112.41,162.049z
	 M50.361,162.049h-12.41c-6.854,0-12.41-5.556-12.41-12.41V75.18c0-6.854,5.556-12.41,12.41-12.41h12.41
	c6.854,0,12.41,5.556,12.41,12.41v74.459C62.771,156.493,57.215,162.049,50.361,162.049z"/>
</svg>
