<?xml version="1.0" encoding="utf-8"?>
<!-- Generator: Adobe Illustrator 17.0.0, SVG Export Plug-In . SVG Version: 6.00 Build 0)  -->
<!DOCTYPE svg PUBLIC "-//W3C//DTD SVG 1.1//EN" "http://www.w3.org/Graphics/SVG/1.1/DTD/svg11.dtd">
<svg version="1.1" id="图层_1" xmlns="http://www.w3.org/2000/svg" xmlns:xlink="http://www.w3.org/1999/xlink" x="0px" y="0px"
	 width="16px" height="16px" viewBox="0 0 16 16" enable-background="new 0 0 16 16" xml:space="preserve">
<g>
	<g>
		<g>
			<g>
				<path fill="#535455" d="M7.299,10.516c-0.128,0-0.256-0.049-0.354-0.146L4.63,8.054c-0.195-0.195-0.195-0.512,0-0.707
					s0.512-0.195,0.707,0l2.315,2.315c0.195,0.195,0.195,0.512,0,0.707C7.555,10.467,7.427,10.516,7.299,10.516z"/>
			</g>
			<g>
				<path fill="#535455" d="M7.299,10.516c-0.128,0-0.256-0.049-0.354-0.146c-0.195-0.195-0.195-0.512,0-0.707l3.717-3.717
					c0.195-0.195,0.512-0.195,0.707,0s0.195,0.512,0,0.707l-3.717,3.717C7.555,10.467,7.427,10.516,7.299,10.516z"/>
			</g>
		</g>
	</g>
	<g>
		<path fill="#535455" d="M8,1.896c3.366,0,6.104,2.738,6.104,6.104S11.366,14.104,8,14.104c-3.366,0-6.104-2.738-6.104-6.104
			S4.634,1.896,8,1.896 M8,0.896C4.076,0.896,0.896,4.076,0.896,8S4.076,15.104,8,15.104S15.104,11.924,15.104,8
			S11.923,0.896,8,0.896L8,0.896z"/>
	</g>
</g>
</svg>
