<?xml version="1.0" encoding="utf-8"?>
<!-- Generator: Adobe Illustrator 17.0.0, SVG Export Plug-In . SVG Version: 6.00 Build 0)  -->
<!DOCTYPE svg PUBLIC "-//W3C//DTD SVG 1.1//EN" "http://www.w3.org/Graphics/SVG/1.1/DTD/svg11.dtd">
<svg version="1.1" id="图层_1" xmlns="http://www.w3.org/2000/svg" xmlns:xlink="http://www.w3.org/1999/xlink" x="0px" y="0px"
	 width="16px" height="16px" viewBox="0 0 16 16" enable-background="new 0 0 16 16" xml:space="preserve">
<g>
	<path fill="#535455" d="M15.007,14.122l-3.841-3.841c0.747-0.971,1.196-2.182,1.196-3.499c0-3.175-2.583-5.758-5.758-5.758
		S0.847,3.607,0.847,6.782S3.43,12.54,6.604,12.54c1.498,0,2.86-0.58,3.885-1.521l3.81,3.81c0.098,0.098,0.226,0.146,0.354,0.146
		s0.256-0.049,0.354-0.146C15.202,14.634,15.202,14.317,15.007,14.122z M6.604,11.54c-2.624,0-4.758-2.135-4.758-4.758
		c0-2.624,2.134-4.758,4.758-4.758c2.623,0,4.758,2.134,4.758,4.758C11.362,9.405,9.228,11.54,6.604,11.54z"/>
	<path fill="#535455" d="M9.812,6.783H7.104V3.725c0-0.276-0.224-0.5-0.5-0.5s-0.5,0.224-0.5,0.5v3.559c0,0.276,0.224,0.5,0.5,0.5
		h3.207c0.276,0,0.5-0.224,0.5-0.5S10.088,6.783,9.812,6.783z"/>
</g>
</svg>
