<?xml version="1.0" encoding="utf-8"?>
<!-- Generator: Adobe Illustrator 17.0.0, SVG Export Plug-In . SVG Version: 6.00 Build 0)  -->
<!DOCTYPE svg PUBLIC "-//W3C//DTD SVG 1.1//EN" "http://www.w3.org/Graphics/SVG/1.1/DTD/svg11.dtd">
<svg version="1.1" id="图层_1" xmlns="http://www.w3.org/2000/svg" xmlns:xlink="http://www.w3.org/1999/xlink" x="0px" y="0px"
	 width="200px" height="200px" viewBox="0 0 200 200" enable-background="new 0 0 200 200" xml:space="preserve">
<path fill="#040000" d="M100,0C44.772,0,0,44.771,0,100c0,55.228,44.772,100,100,100s100-44.772,100-100C200,44.771,155.228,0,100,0
	z M46.5,116.166c-10.033,0-18.167-8.133-18.167-18.167c0-10.033,8.134-18.167,18.167-18.167c10.033,0,18.167,8.133,18.167,18.167
	C64.667,108.033,56.533,116.166,46.5,116.166z M100,116.166c-10.033,0-18.167-8.133-18.167-18.167
	c0-10.033,8.134-18.167,18.167-18.167c10.033,0,18.167,8.133,18.167,18.167C118.167,108.033,110.033,116.166,100,116.166z
	 M153.5,116.166c-10.033,0-18.167-8.133-18.167-18.167c0-10.033,8.134-18.167,18.167-18.167c10.033,0,18.167,8.133,18.167,18.167
	C171.667,108.033,163.533,116.166,153.5,116.166z"/>
</svg>
