<?xml version="1.0" encoding="utf-8"?>
<!-- Generator: Adobe Illustrator 17.0.0, SVG Export Plug-In . SVG Version: 6.00 Build 0)  -->
<!DOCTYPE svg PUBLIC "-//W3C//DTD SVG 1.1//EN" "http://www.w3.org/Graphics/SVG/1.1/DTD/svg11.dtd">
<svg version="1.1" id="图层_1" xmlns="http://www.w3.org/2000/svg" xmlns:xlink="http://www.w3.org/1999/xlink" x="0px" y="0px"
	 width="200px" height="200px" viewBox="0 0 200 200" enable-background="new 0 0 200 200" xml:space="preserve">
<g>
	<g>
		<path fill="#040000" d="M100,198.637c-54.389,0-98.638-44.248-98.638-98.637C1.363,45.611,45.611,1.363,100,1.363
			S198.637,45.611,198.637,100C198.637,154.389,154.389,198.637,100,198.637z M100,17.363c-45.566,0-82.638,37.071-82.638,82.637
			c0,45.566,37.071,82.637,82.638,82.637c45.566,0,82.637-37.071,82.637-82.637C182.637,54.434,145.566,17.363,100,17.363z"/>
	</g>
	<g>
		<g>
			<circle fill="#040000" cx="100" cy="55.167" r="12.333"/>
		</g>
		<g>
			<path fill="#040000" d="M112.333,144.833c0,6.812-5.522,12.333-12.333,12.333l0,0c-6.812,0-12.333-5.522-12.333-12.333V89.5
				c0-6.812,5.522-12.333,12.333-12.333l0,0c6.812,0,12.333,5.522,12.333,12.333V144.833z"/>
		</g>
	</g>
</g>
</svg>
