<?xml version="1.0" encoding="utf-8"?>
<!-- Generator: Adobe Illustrator 17.0.0, SVG Export Plug-In . SVG Version: 6.00 Build 0)  -->
<!DOCTYPE svg PUBLIC "-//W3C//DTD SVG 1.1//EN" "http://www.w3.org/Graphics/SVG/1.1/DTD/svg11.dtd">
<svg version="1.1" id="图层_1" xmlns="http://www.w3.org/2000/svg" xmlns:xlink="http://www.w3.org/1999/xlink" x="0px" y="0px"
	 width="16px" height="16px" viewBox="0 0 16 16" enable-background="new 0 0 16 16" xml:space="preserve">
<g>
	<rect x="5.538" y="6.59" fill="#535455" width="0.002" height="0.007"/>
	<path fill="#535455" d="M11.537,5.566c0,0,0.126,0.886-0.019,1.341c-0.256,0.808-0.546,0.946-0.546,0.946s0.059-0.697-0.212-1.759
		c-0.255-0.997-0.703-1.48-0.703-1.48S9.997,5.102,9.863,5.396c-0.17,0.375-0.546,0.582-0.546,0.582S9.262,4.374,8.298,3.212
		C7.407,2.138,6.53,1.675,5.807,1.192c0.193,0.567,0.799,5.618-0.799,7.581c0,0-0.74-0.171-1.118-0.836
		C3.584,7.398,3.331,6.589,3.331,6.589s-0.454,4.88,1.43,6.719c2.555,2.495,5.266,1.329,6.214,0.409
		c0.762-0.74,1.88-2.121,1.727-4.881C12.584,6.71,11.537,5.566,11.537,5.566z"/>
</g>
</svg>
