<?xml version="1.0" encoding="utf-8"?>
<!-- Generator: Adobe Illustrator 17.0.0, SVG Export Plug-In . SVG Version: 6.00 Build 0)  -->
<!DOCTYPE svg PUBLIC "-//W3C//DTD SVG 1.1//EN" "http://www.w3.org/Graphics/SVG/1.1/DTD/svg11.dtd">
<svg version="1.1" id="图层_1" xmlns="http://www.w3.org/2000/svg" xmlns:xlink="http://www.w3.org/1999/xlink" x="0px" y="0px"
	 width="16px" height="16px" viewBox="0 0 16 16" enable-background="new 0 0 16 16" xml:space="preserve">
<g>
	<path fill="#ACADB0" d="M10.265,8.528c0-0.734,0.27-1.42,0.78-1.988c-0.351-0.17-0.702-0.209-0.876-0.228
		c-0.017-0.001-0.05-0.003-0.083-0.003c-0.34,0-0.712,0.137-1.041,0.258C8.718,6.687,8.409,6.8,8.09,6.8
		c-0.336,0-0.661-0.116-0.974-0.229c-0.314-0.113-0.611-0.219-0.89-0.219c-0.655,0-1.282,0.353-1.677,0.945
		C4.123,7.976,4.168,8.835,4.283,9.433c0.149,0.774,0.493,1.556,0.944,2.146c0.24,0.314,0.457,0.59,0.681,0.782
		c0.242,0.208,0.368,0.208,0.409,0.208c0.211-0.011,0.35-0.062,0.56-0.141c0.323-0.121,0.725-0.271,1.362-0.271
		c0.595,0,0.982,0.15,1.294,0.27c0.226,0.087,0.362,0.14,0.571,0.14c0.111,0,0.252-0.024,0.455-0.199
		c0.207-0.179,0.409-0.456,0.599-0.724c0.181-0.243,0.316-0.468,0.414-0.653C10.875,10.508,10.265,9.686,10.265,8.528z"/>
	<path fill="#ACADB0" d="M9.904,3.347c-0.317,0.124-0.614,0.31-0.805,0.517C8.924,4.04,8.784,4.257,8.695,4.479
		C8.678,4.522,8.663,4.565,8.65,4.607c0.298-0.104,0.588-0.294,0.818-0.546C9.672,3.839,9.82,3.594,9.904,3.347z"/>
	<path fill="#ACADB0" d="M13.104,0.896H2.896c-1.105,0-2,0.895-2,2v10.208c0,1.105,0.895,2,2,2h10.208c1.105,0,2-0.895,2-2V2.896
		C15.104,1.791,14.209,0.896,13.104,0.896z M7.999,4.2C8.126,3.883,8.32,3.583,8.547,3.356c0.452-0.49,1.254-0.865,1.954-0.912
		l0.195-0.013l0.024,0.194c0.083,0.66-0.172,1.369-0.699,1.943c-0.503,0.549-1.21,0.878-1.869,0.878
		c-0.038,0-0.076-0.001-0.114-0.003l-0.172-0.01L7.844,5.262C7.802,4.926,7.856,4.558,7.999,4.2z M12.795,10.616
		c0,0.091-0.119,0.385-0.199,0.56c-0.116,0.254-0.318,0.641-0.621,1.045c-0.225,0.319-0.47,0.652-0.762,0.904
		c-0.345,0.298-0.707,0.443-1.109,0.443c-0.396,0-0.668-0.105-0.932-0.207c-0.27-0.104-0.525-0.203-0.933-0.203
		c-0.456,0-0.726,0.101-1.012,0.207c-0.243,0.091-0.494,0.184-0.843,0.203c-0.022,0.001-0.045,0.002-0.067,0.002h0
		c-0.361,0-0.709-0.147-1.06-0.448c-0.297-0.255-0.549-0.574-0.825-0.933c-0.542-0.709-0.955-1.644-1.131-2.565
		C3.152,8.848,3.103,7.72,3.714,6.748l0.003-0.004c0.58-0.871,1.518-1.391,2.509-1.391c0.454,0,0.865,0.147,1.228,0.277
		C7.698,5.718,7.928,5.8,8.09,5.8c0.14,0,0.368-0.084,0.609-0.172c0.391-0.144,0.868-0.319,1.386-0.319
		c0.061,0,0.122,0.002,0.183,0.008l0.01,0.001c0.361,0.04,1.46,0.162,2.178,1.119l0.137,0.183l-0.205,0.102
		c-0.003,0.001-0.298,0.154-0.588,0.471c-0.357,0.39-0.537,0.839-0.537,1.335c0,1.353,1.22,1.844,1.366,1.897h0.164V10.616z"/>
</g>
</svg>
