<?xml version="1.0" encoding="utf-8"?>
<!-- Generator: Adobe Illustrator 17.0.0, SVG Export Plug-In . SVG Version: 6.00 Build 0)  -->
<!DOCTYPE svg PUBLIC "-//W3C//DTD SVG 1.1//EN" "http://www.w3.org/Graphics/SVG/1.1/DTD/svg11.dtd">
<svg version="1.1" id="图层_1" xmlns="http://www.w3.org/2000/svg" xmlns:xlink="http://www.w3.org/1999/xlink" x="0px" y="0px"
	 width="16px" height="16px" viewBox="0 0 16 16" enable-background="new 0 0 16 16" xml:space="preserve">
<g>
	<g>
		<path fill-rule="evenodd" clip-rule="evenodd" fill="#535455" d="M8.193,4.743c-0.049,0-0.097-0.001-0.145-0.004L7.829,4.726
			L7.802,4.508c-0.054-0.43,0.015-0.898,0.197-1.355c0.162-0.405,0.41-0.787,0.699-1.077c0.576-0.626,1.6-1.104,2.493-1.163
			l0.249-0.017l0.031,0.247c0.105,0.842-0.22,1.746-0.892,2.479l0,0C9.936,4.322,9.035,4.743,8.193,4.743L8.193,4.743z"/>
	</g>
	<g>
		<path fill-rule="evenodd" clip-rule="evenodd" fill="#535455" d="M5.854,15.104c-0.461,0-0.904-0.188-1.353-0.572
			C4.122,14.207,3.8,13.8,3.449,13.341c-0.692-0.904-1.218-2.097-1.443-3.272c-0.19-0.988-0.253-2.426,0.527-3.667l0.004-0.006
			c0.74-1.111,1.937-1.774,3.2-1.774c0.579,0,1.103,0.188,1.566,0.354c0.312,0.112,0.606,0.217,0.813,0.217
			c0.179,0,0.47-0.107,0.777-0.22c0.558-0.205,1.252-0.46,2.002-0.398l0.013,0.001c0.461,0.051,1.863,0.207,2.779,1.428l0.175,0.234
			L13.601,6.37c-0.004,0.002-0.38,0.196-0.75,0.601c-0.455,0.497-0.685,1.07-0.685,1.703c0,1.726,1.557,2.353,1.742,2.421h0.209
			v0.244c0,0.117-0.152,0.491-0.254,0.714c-0.148,0.323-0.406,0.817-0.792,1.333c-0.288,0.407-0.6,0.832-0.971,1.153
			c-0.44,0.38-0.902,0.565-1.414,0.565c-0.505,0-0.852-0.134-1.188-0.264c-0.344-0.133-0.67-0.259-1.19-0.259
			c-0.582,0-0.926,0.128-1.29,0.265c-0.31,0.116-0.63,0.235-1.076,0.259C5.911,15.103,5.882,15.104,5.854,15.104L5.854,15.104z
			 M13.632,11.298L13.632,11.298L13.632,11.298L13.632,11.298z"/>
	</g>
</g>
</svg>
