<?xml version="1.0" encoding="utf-8"?>
<!-- Generator: Adobe Illustrator 17.0.0, SVG Export Plug-In . SVG Version: 6.00 Build 0)  -->
<!DOCTYPE svg PUBLIC "-//W3C//DTD SVG 1.1//EN" "http://www.w3.org/Graphics/SVG/1.1/DTD/svg11.dtd">
<svg version="1.1" id="图层_1" xmlns="http://www.w3.org/2000/svg" xmlns:xlink="http://www.w3.org/1999/xlink" x="0px" y="0px"
	 width="16px" height="16px" viewBox="0 0 16 16" enable-background="new 0 0 16 16" xml:space="preserve">
<g>
	<path fill="#515151" d="M9.535,14.141H3.71c-0.755,0-1.37-0.614-1.37-1.369V3.229c0-0.755,0.614-1.37,1.37-1.37h7.79
		c0.756,0,1.37,0.614,1.37,1.37v5.149c0,0.276,0.224,0.5,0.5,0.5s0.5-0.224,0.5-0.5V3.229c0-1.307-1.063-2.37-2.37-2.37H3.71
		c-1.307,0-2.37,1.063-2.37,2.37v9.543c0,1.307,1.063,2.369,2.37,2.369h5.825c0.276,0,0.5-0.224,0.5-0.5S9.811,14.141,9.535,14.141z
		"/>
	<path fill="#515151" d="M11.668,3.985c0-0.276-0.224-0.5-0.5-0.5H3.606c-0.276,0-0.5,0.224-0.5,0.5s0.224,0.5,0.5,0.5h7.562
		C11.445,4.485,11.668,4.261,11.668,3.985z"/>
	<path fill="#515151" d="M7.014,6c0-0.276-0.224-0.5-0.5-0.5H3.606c-0.276,0-0.5,0.224-0.5,0.5s0.224,0.5,0.5,0.5h2.908
		C6.791,6.5,7.014,6.277,7.014,6z"/>
	<path fill="#515151" d="M14.513,13.672l-2.634-2.634c0.358-0.518,0.569-1.145,0.569-1.821C12.449,7.443,11.005,6,9.231,6
		C7.457,6,6.014,7.443,6.014,9.217c0,1.774,1.443,3.218,3.217,3.218c0.737,0,1.409-0.259,1.953-0.678l2.622,2.622
		c0.098,0.098,0.226,0.146,0.354,0.146s0.256-0.049,0.354-0.146C14.708,14.184,14.708,13.867,14.513,13.672z M9.231,11.435
		c-1.223,0-2.217-0.995-2.217-2.218C7.014,7.995,8.008,7,9.231,7s2.218,0.995,2.218,2.217C11.449,10.44,10.454,11.435,9.231,11.435z
		"/>
	<path fill="#515151" d="M3.106,12.5c0,0.276,0.224,0.5,0.5,0.5h2.375c0.276,0,0.5-0.224,0.5-0.5S6.258,12,5.981,12H3.606
		C3.33,12,3.106,12.224,3.106,12.5z"/>
</g>
</svg>
