<?xml version="1.0" encoding="utf-8"?>
<!-- Generator: Adobe Illustrator 17.0.0, SVG Export Plug-In . SVG Version: 6.00 Build 0)  -->
<!DOCTYPE svg PUBLIC "-//W3C//DTD SVG 1.1//EN" "http://www.w3.org/Graphics/SVG/1.1/DTD/svg11.dtd">
<svg version="1.1" id="图层_1" xmlns="http://www.w3.org/2000/svg" xmlns:xlink="http://www.w3.org/1999/xlink" x="0px" y="0px"
	 width="16px" height="16px" viewBox="0 0 16 16" enable-background="new 0 0 16 16" xml:space="preserve">
<g>
	<path fill="#535455" d="M11.312,1.544H4.688c-1.004,0-1.818,0.814-1.818,1.818v9.277c0,1.004,0.814,1.818,1.818,1.818h6.625
		c1.004,0,1.818-0.814,1.818-1.818V3.361C13.13,2.358,12.316,1.544,11.312,1.544z M4.688,2.544h6.625
		c0.451,0,0.818,0.367,0.818,0.818v7.432H3.87V3.361C3.87,2.911,4.237,2.544,4.688,2.544z M11.312,13.456H4.688
		c-0.451,0-0.818-0.367-0.818-0.818v-0.845h8.26v0.845C12.13,13.089,11.763,13.456,11.312,13.456z"/>
	<path fill="#535455" d="M4.941,4.729h3.66c0.276,0,0.5-0.224,0.5-0.5s-0.224-0.5-0.5-0.5h-3.66c-0.276,0-0.5,0.224-0.5,0.5
		S4.665,4.729,4.941,4.729z"/>
	<path fill="#535455" d="M4.555,7.396c0,0.276,0.224,0.5,0.5,0.5H9.55c0.276,0,0.5-0.224,0.5-0.5s-0.224-0.5-0.5-0.5H5.055
		C4.779,6.896,4.555,7.12,4.555,7.396z"/>
	<path fill="#535455" d="M9.55,8.771H5.055c-0.276,0-0.5,0.224-0.5,0.5c0,0.276,0.224,0.5,0.5,0.5H9.55c0.276,0,0.5-0.224,0.5-0.5
		C10.05,8.995,9.826,8.771,9.55,8.771z"/>
</g>
</svg>
