<?xml version="1.0" standalone="no"?><!DOCTYPE svg PUBLIC "-//W3C//DTD SVG 1.1//EN" "http://www.w3.org/Graphics/SVG/1.1/DTD/svg11.dtd"><svg t="1514979684362" class="icon" style="" viewBox="0 0 1025 1024" version="1.1" xmlns="http://www.w3.org/2000/svg" p-id="1436" xmlns:xlink="http://www.w3.org/1999/xlink" width="200.1953125" height="200"><defs><style type="text/css"></style></defs><path d="M504.843303 16.445037c-278.783415 0-504.843704 226.056945-504.843704 504.840951 0 278.787348 226.060485 504.847244 504.843704 504.847244 278.780859 0 504.841934-226.059895 504.841934-504.847244C1009.68504 242.501983 783.790335 16.445037 504.843303 16.445037zM560.865116 812.600045c-15.814972 15.814972-35.917999 22.900441-57.340383 22.900441-21.419041 0-41.518725-7.250659-57.33704-22.900441-15.817921-15.827754-24.385184-34.445842-24.385184-56.02083 0-20.10991 8.567262-40.207038 24.385184-56.021813 15.818315-15.826771 35.917999-24.391083 57.33704-24.391083 22.907324 0 41.525411 8.564312 57.340383 24.391083 15.814972 15.814972 24.385184 34.434043 24.385184 56.021813C585.250299 778.154203 576.680087 796.772291 560.865116 812.600045zM580.962243 333.453605c-4.282156 21.584821-10.042173 43.006811-14.331212 65.907252-7.250659 24.385184-14.330228 54.536677-21.580888 90.288896-7.251642 35.924685-15.821854 81.725566-24.392067 136.268536l-32.951463 0c-8.567262-54.54297-17.133935-99.031181-24.385184-136.268536-7.248103-37.236962-14.333572-67.388455-20.100078-91.773639-5.766506-25.869337-11.533209-48.770171-15.818511-67.388455-4.284516-18.618678-5.766309-34.433649-5.766309-45.969808-1.484743-22.900441 7.248103-41.518725 24.385184-56.01788 17.136884-15.817921 35.917999-22.90339 58.821193-22.90339 22.900441 0 43.004255 7.247709 58.825126 22.90339 15.814972 15.814972 24.379284 34.433649 24.379284 56.01788C588.047712 296.216643 585.250299 311.868784 580.962243 333.453605z" p-id="1437" fill="#d81e06"></path></svg>