<?xml version="1.0" encoding="utf-8"?>
<!-- Generator: Adobe Illustrator 17.0.0, SVG Export Plug-In . SVG Version: 6.00 Build 0)  -->
<!DOCTYPE svg PUBLIC "-//W3C//DTD SVG 1.1//EN" "http://www.w3.org/Graphics/SVG/1.1/DTD/svg11.dtd">
<svg version="1.1" id="图层_1" xmlns="http://www.w3.org/2000/svg" xmlns:xlink="http://www.w3.org/1999/xlink" x="0px" y="0px"
	 width="16px" height="16px" viewBox="0 0 16 16" enable-background="new 0 0 16 16" xml:space="preserve">
<g>
	<path fill="#535455" d="M9.307,9.427c0.397-0.358,0.65-0.871,0.65-1.448c0-1.081-0.877-1.958-1.958-1.958
		c-1.081,0-1.958,0.877-1.958,1.958c0,0.576,0.254,1.09,0.65,1.448C5.78,9.865,5.15,10.735,5.15,11.75
		c0,1.452,1.276,1.599,2.85,1.599c1.574,0,2.849-0.146,2.849-1.599C10.849,10.735,10.22,9.865,9.307,9.427z M8,12.349
		c-1.85,0-1.85-0.264-1.85-0.599c0-0.588,0.374-1.133,0.975-1.422c0.3-0.144,0.509-0.429,0.557-0.758
		C7.73,9.24,7.61,8.908,7.363,8.685C7.156,8.498,7.042,8.247,7.042,7.979c0-0.528,0.43-0.958,0.958-0.958s0.958,0.43,0.958,0.958
		c0,0.268-0.114,0.519-0.321,0.706C8.39,8.908,8.27,9.24,8.318,9.569c0.048,0.33,0.256,0.614,0.557,0.758
		c0.601,0.289,0.975,0.834,0.975,1.422C9.849,12.085,9.849,12.349,8,12.349z"/>
	<path fill="#535455" d="M12.746,2.09c-0.048-0.013-0.097-0.011-0.145-0.009c-0.057-0.579-0.53-1.039-1.124-1.039
		c-0.595,0-1.071,0.461-1.126,1.043c-0.02-0.002-0.037-0.011-0.057-0.011h-4.5c-0.057,0-0.111,0.015-0.162,0.033
		C5.588,1.515,5.106,1.042,4.503,1.042c-0.602,0-1.085,0.471-1.13,1.062C3.302,2.094,3.228,2.095,3.155,2.119
		C2.101,2.444,1.393,3.404,1.393,4.507v7.95c0,1.379,1.121,2.5,2.5,2.5h8.214c1.379,0,2.5-1.121,2.5-2.5v-7.95
		C14.607,3.373,13.841,2.378,12.746,2.09z M11.331,2.188c0-0.08,0.065-0.146,0.146-0.146c0.08,0,0.146,0.065,0.146,0.146v0.771
		c0,0.163-0.292,0.161-0.292,0V2.188z M4.357,2.188c0-0.08,0.065-0.146,0.146-0.146c0.08,0,0.146,0.065,0.146,0.146v0.771
		c0,0.163-0.292,0.161-0.292,0V2.188z M3.387,3.105c0.075,0.56,0.537,1,1.117,1c0.603,0,1.084-0.473,1.129-1.064
		c0.051,0.018,0.105,0.033,0.162,0.033h4.5c0.02,0,0.037-0.009,0.057-0.012c0.055,0.581,0.53,1.043,1.125,1.043
		c0.581,0,1.042-0.441,1.116-1.002c0.562,0.195,0.949,0.699,0.995,1.293H2.419c-0.003,0-0.006,0.002-0.009,0.002
		C2.454,3.808,2.828,3.307,3.387,3.105z M12.107,13.958H3.893c-0.827,0-1.5-0.673-1.5-1.5V5.391c0.009,0,0.017,0.005,0.026,0.005
		h11.188v7.062C13.607,13.285,12.934,13.958,12.107,13.958z"/>
</g>
</svg>
