<?xml version="1.0" encoding="utf-8"?>
<!-- Generator: Adobe Illustrator 17.0.0, SVG Export Plug-In . SVG Version: 6.00 Build 0)  -->
<!DOCTYPE svg PUBLIC "-//W3C//DTD SVG 1.1//EN" "http://www.w3.org/Graphics/SVG/1.1/DTD/svg11.dtd">
<svg version="1.1" id="图层_1" xmlns="http://www.w3.org/2000/svg" xmlns:xlink="http://www.w3.org/1999/xlink" x="0px" y="0px"
	 width="16px" height="16px" viewBox="0 0 16 16" enable-background="new 0 0 16 16" xml:space="preserve">
<g>
	<path fill="#535455" d="M6.888,14.007H3.675c-0.827,0-1.5-0.673-1.5-1.5v-7.95c0-0.653,0.415-1.218,1.031-1.421
		c0.036,0.656,0.57,1.183,1.235,1.183c0.669,0,1.208-0.533,1.238-1.195h4.185c0.03,0.662,0.569,1.195,1.238,1.195
		c0.665,0,1.198-0.526,1.235-1.182c0.619,0.196,1.051,0.765,1.051,1.421v2.196c0,0.276,0.224,0.5,0.5,0.5s0.5-0.224,0.5-0.5V4.557
		c0-1.135-0.766-2.129-1.86-2.417c-0.063-0.017-0.126-0.018-0.187-0.011c-0.027-0.665-0.567-1.2-1.238-1.2
		c-0.669,0-1.208,0.533-1.238,1.195H5.679C5.649,1.46,5.111,0.928,4.441,0.928c-0.684,0-1.24,0.554-1.246,1.237
		C3.112,2.146,3.025,2.14,2.937,2.167C1.883,2.493,1.175,3.453,1.175,4.557v7.95c0,1.379,1.122,2.5,2.5,2.5h3.213
		c0.276,0,0.5-0.224,0.5-0.5S7.164,14.007,6.888,14.007z M10.854,2.176c0-0.137,0.111-0.249,0.249-0.249
		c0.137,0,0.248,0.111,0.248,0.249v0.893c0,0.275-0.497,0.273-0.497,0V2.176z M4.193,2.176c0-0.137,0.111-0.249,0.249-0.249
		S4.69,2.039,4.69,2.176v0.893c0,0.274-0.498,0.274-0.498,0V2.176z"/>
	<path fill="#535455" d="M9.496,5.422c0-0.276-0.224-0.5-0.5-0.5H3.51c-0.276,0-0.5,0.224-0.5,0.5s0.224,0.5,0.5,0.5h5.487
		C9.273,5.922,9.496,5.698,9.496,5.422z"/>
	<path fill="#535455" d="M6.435,7.922c0-0.276-0.224-0.5-0.5-0.5H3.51c-0.276,0-0.5,0.224-0.5,0.5s0.224,0.5,0.5,0.5h2.425
		C6.211,8.422,6.435,8.198,6.435,7.922z"/>
	<path fill="#535455" d="M3.01,12.044c0,0.276,0.224,0.5,0.5,0.5h2.425c0.276,0,0.5-0.224,0.5-0.5s-0.224-0.5-0.5-0.5H3.51
		C3.233,11.544,3.01,11.768,3.01,12.044z"/>
	<path fill="#535455" d="M14.679,14.219l-1.926-1.926c-0.015-0.015-0.035-0.021-0.051-0.034c0.523-0.633,0.85-1.433,0.85-2.316
		c0-2.018-1.641-3.658-3.658-3.658c-2.017,0-3.658,1.641-3.658,3.658s1.641,3.658,3.658,3.658c0.784,0,1.507-0.253,2.103-0.674
		c0.017,0.024,0.027,0.052,0.049,0.074l1.926,1.926c0.098,0.098,0.226,0.146,0.354,0.146s0.256-0.049,0.354-0.146
		C14.874,14.73,14.874,14.414,14.679,14.219z M9.894,12.601c-1.466,0-2.658-1.192-2.658-2.658s1.192-2.658,2.658-2.658
		s2.658,1.192,2.658,2.658S11.36,12.601,9.894,12.601z"/>
</g>
</svg>
