<?xml version="1.0" encoding="utf-8"?>
<!-- Generator: Adobe Illustrator 17.0.0, SVG Export Plug-In . SVG Version: 6.00 Build 0)  -->
<!DOCTYPE svg PUBLIC "-//W3C//DTD SVG 1.1//EN" "http://www.w3.org/Graphics/SVG/1.1/DTD/svg11.dtd">
<svg version="1.1" id="图层_1" xmlns="http://www.w3.org/2000/svg" xmlns:xlink="http://www.w3.org/1999/xlink" x="0px" y="0px"
	 width="16px" height="16px" viewBox="0 0 16 16" enable-background="new 0 0 16 16" xml:space="preserve">
<g>
	<path fill="#535455" d="M6.322,14.141H3.505c-0.755,0-1.37-0.614-1.37-1.37V3.228c0-0.755,0.614-1.369,1.37-1.369h7.79
		c0.755,0,1.369,0.614,1.369,1.369v2.459c0,0.276,0.224,0.5,0.5,0.5s0.5-0.224,0.5-0.5V3.228c0-1.306-1.062-2.369-2.369-2.369h-7.79
		c-1.307,0-2.37,1.063-2.37,2.369v9.543c0,1.307,1.063,2.37,2.37,2.37h2.817c0.276,0,0.5-0.224,0.5-0.5S6.598,14.141,6.322,14.141z"
		/>
	<path fill="#535455" d="M4.952,10.125c0-0.276-0.224-0.5-0.5-0.5H3.401c-0.276,0-0.5,0.224-0.5,0.5s0.224,0.5,0.5,0.5h1.051
		C4.728,10.625,4.952,10.401,4.952,10.125z"/>
	<path fill="#535455" d="M10.337,6c-2.496,0-4.527,2.031-4.527,4.528s2.031,4.528,4.527,4.528c0.764,0,1.519-0.193,2.183-0.561
		c0.242-0.133,0.33-0.438,0.196-0.679c-0.133-0.244-0.439-0.331-0.679-0.196c-0.517,0.285-1.104,0.436-1.7,0.436
		c-1.945,0-3.527-1.583-3.527-3.528S8.391,7,10.337,7s3.528,1.583,3.528,3.528c0,0.276,0.224,0.5,0.5,0.5s0.5-0.224,0.5-0.5
		C14.865,8.031,12.834,6,10.337,6z"/>
	<path fill="#535455" d="M3.401,12c-0.276,0-0.5,0.224-0.5,0.5s0.224,0.5,0.5,0.5h0.876c0.276,0,0.5-0.224,0.5-0.5
		S4.553,12,4.277,12H3.401z"/>
	<path fill="#535455" d="M4.13,7.729V3.187c0-0.276-0.224-0.5-0.5-0.5s-0.5,0.224-0.5,0.5v4.542c0,0.276,0.224,0.5,0.5,0.5
		S4.13,8.005,4.13,7.729z"/>
	<path fill="#535455" d="M5.047,3.187v3.5c0,0.276,0.224,0.5,0.5,0.5s0.5-0.224,0.5-0.5v-3.5c0-0.276-0.224-0.5-0.5-0.5
		S5.047,2.911,5.047,3.187z"/>
	<path fill="#535455" d="M6.964,3.187v2.5c0,0.276,0.224,0.5,0.5,0.5s0.5-0.224,0.5-0.5v-2.5c0-0.276-0.224-0.5-0.5-0.5
		S6.964,2.911,6.964,3.187z"/>
	<path fill="#535455" d="M8.88,3.187v1.75c0,0.276,0.224,0.5,0.5,0.5s0.5-0.224,0.5-0.5v-1.75c0-0.276-0.224-0.5-0.5-0.5
		S8.88,2.911,8.88,3.187z"/>
	<path fill="#535455" d="M10.297,9.28v1.189H8.839c-0.276,0-0.5,0.224-0.5,0.5s0.224,0.5,0.5,0.5h1.958c0.276,0,0.5-0.224,0.5-0.5
		V9.28c0-0.276-0.224-0.5-0.5-0.5S10.297,9.003,10.297,9.28z"/>
</g>
</svg>
