<?xml version="1.0" encoding="utf-8"?>
<!-- Generator: Adobe Illustrator 17.0.0, SVG Export Plug-In . SVG Version: 6.00 Build 0)  -->
<!DOCTYPE svg PUBLIC "-//W3C//DTD SVG 1.1//EN" "http://www.w3.org/Graphics/SVG/1.1/DTD/svg11.dtd">
<svg version="1.1" id="图层_1" xmlns="http://www.w3.org/2000/svg" xmlns:xlink="http://www.w3.org/1999/xlink" x="0px" y="0px"
	 width="16px" height="16px" viewBox="0 0 16 16" enable-background="new 0 0 16 16" xml:space="preserve">
<g>
	<path fill="#535455" d="M1.619,7.597c0.258,0.024,0.494-0.169,0.53-0.429C2.558,4.27,5.073,2.083,7.999,2.083
		s5.442,2.186,5.852,5.085c0.035,0.249,0.249,0.43,0.494,0.43c0.023,0,0.047-0.002,0.071-0.005c0.273-0.039,0.463-0.292,0.425-0.565
		c-0.479-3.389-3.419-5.944-6.842-5.944c-2.426,0-4.609,1.284-5.846,3.239V3.256c0-0.276-0.224-0.5-0.5-0.5s-0.5,0.224-0.5,0.5
		v3.842C1.154,7.361,1.357,7.579,1.619,7.597z"/>
	<path fill="#535455" d="M14.381,8.403c-0.255-0.016-0.493,0.169-0.53,0.429c-0.409,2.899-2.925,5.085-5.852,5.085
		s-5.441-2.186-5.851-5.085C2.11,8.558,1.86,8.373,1.583,8.407C1.31,8.446,1.121,8.699,1.159,8.972
		c0.479,3.389,3.419,5.944,6.841,5.944c2.426,0,4.61-1.284,5.847-3.239v1.053c0,0.276,0.224,0.5,0.5,0.5s0.5-0.224,0.5-0.5V8.902
		C14.846,8.639,14.643,8.421,14.381,8.403z"/>
	<path fill="#535455" d="M6.929,12.408h3.761c0.832,0,1.509-0.677,1.509-1.509V6.78c0-0.832-0.677-1.508-1.509-1.508h-0.146
		c0.02-0.054,0.034-0.11,0.034-0.17c0-0.832-0.677-1.508-1.508-1.508H5.309c-0.831,0-1.508,0.677-1.508,1.508v4.118
		c0,0.832,0.677,1.509,1.508,1.509c0.039,0,0.074-0.014,0.111-0.022v0.193C5.42,11.731,6.097,12.408,6.929,12.408z M11.199,6.78
		v4.119c0,0.28-0.229,0.509-0.509,0.509H6.929c-0.28,0-0.509-0.229-0.509-0.509V6.78c0-0.28,0.229-0.508,0.509-0.508h3.761
		C10.97,6.272,11.199,6.5,11.199,6.78z M5.309,9.728c-0.28,0-0.508-0.229-0.508-0.509V5.101c0-0.28,0.228-0.508,0.508-0.508h3.762
		c0.28,0,0.508,0.228,0.508,0.508c0,0.06,0.015,0.117,0.034,0.17H6.929c-0.832,0-1.509,0.677-1.509,1.508V9.75
		C5.384,9.742,5.349,9.728,5.309,9.728z"/>
	<path fill="#535455" d="M6.577,7.32c0,0.276,0.224,0.5,0.5,0.5h3.204c0.276,0,0.5-0.224,0.5-0.5s-0.224-0.5-0.5-0.5H7.077
		C6.8,6.82,6.577,7.043,6.577,7.32z"/>
	<path fill="#535455" d="M10.281,8.143H7.077c-0.276,0-0.5,0.224-0.5,0.5s0.224,0.5,0.5,0.5h3.204c0.276,0,0.5-0.224,0.5-0.5
		S10.557,8.143,10.281,8.143z"/>
	<path fill="#535455" d="M8.81,9.734H7.077c-0.276,0-0.5,0.224-0.5,0.5s0.224,0.5,0.5,0.5H8.81c0.276,0,0.5-0.224,0.5-0.5
		S9.086,9.734,8.81,9.734z"/>
</g>
</svg>
