<?xml version="1.0" encoding="utf-8"?>
<!-- Generator: Adobe Illustrator 17.0.0, SVG Export Plug-In . SVG Version: 6.00 Build 0)  -->
<!DOCTYPE svg PUBLIC "-//W3C//DTD SVG 1.1//EN" "http://www.w3.org/Graphics/SVG/1.1/DTD/svg11.dtd">
<svg version="1.1" id="图层_1" xmlns="http://www.w3.org/2000/svg" xmlns:xlink="http://www.w3.org/1999/xlink" x="0px" y="0px"
	 width="16px" height="16px" viewBox="0 0 16 16" enable-background="new 0 0 16 16" xml:space="preserve">
<g>
	<path fill="#535455" d="M13.47,9.185V7.873V6.577V5.619V4.208V2.912c0-1.012-0.822-1.834-1.834-1.834H4.364
		c-1.012,0-1.835,0.823-1.835,1.834v1.296v1.411v0.958v1.296v1.312c-0.634,0.247-1.087,0.861-1.087,1.581v2.457
		c0,0.937,0.763,1.699,1.699,1.699h9.716c0.938,0,1.7-0.763,1.7-1.699v-2.457C14.558,10.045,14.105,9.432,13.47,9.185z M4.364,2.077
		h7.271c0.318,0,0.585,0.185,0.726,0.447c-0.223-0.096-0.468-0.151-0.726-0.151H4.364c-0.258,0-0.504,0.055-0.727,0.152
		C3.778,2.263,4.046,2.077,4.364,2.077z M4.364,3.373h7.271c0.375,0,0.681,0.253,0.785,0.594c-0.239-0.114-0.503-0.184-0.785-0.184
		H4.364c-0.282,0-0.547,0.069-0.786,0.184C3.683,3.627,3.989,3.373,4.364,3.373z M3.529,7.873V6.577V5.619
		c0-0.46,0.375-0.835,0.835-0.835h7.271c0.46,0,0.834,0.375,0.834,0.835v0.958v1.296v1.193h-8.94V7.873z M13.558,13.223
		c0,0.386-0.314,0.699-0.7,0.699H3.142c-0.386,0-0.699-0.313-0.699-0.699v-2.457c0-0.386,0.313-0.7,0.699-0.7h9.716
		c0.386,0,0.7,0.314,0.7,0.7V13.223z"/>
	<path fill="#535455" d="M10.737,5.597H5.022c-0.276,0-0.5,0.224-0.5,0.5s0.224,0.5,0.5,0.5h5.715c0.276,0,0.5-0.224,0.5-0.5
		S11.014,5.597,10.737,5.597z"/>
	<path fill="#535455" d="M8.393,7.373h-3.37c-0.276,0-0.5,0.224-0.5,0.5s0.224,0.5,0.5,0.5h3.37c0.276,0,0.5-0.224,0.5-0.5
		S8.669,7.373,8.393,7.373z"/>
</g>
</svg>
