<?xml version="1.0" encoding="utf-8"?>
<!-- Generator: Adobe Illustrator 17.0.0, SVG Export Plug-In . SVG Version: 6.00 Build 0)  -->
<!DOCTYPE svg PUBLIC "-//W3C//DTD SVG 1.1//EN" "http://www.w3.org/Graphics/SVG/1.1/DTD/svg11.dtd">
<svg version="1.1" id="图层_1" xmlns="http://www.w3.org/2000/svg" xmlns:xlink="http://www.w3.org/1999/xlink" x="0px" y="0px"
	 width="16px" height="16px" viewBox="0 0 16 16" enable-background="new 0 0 16 16" xml:space="preserve">
<g>
	<g>
		<path fill="#535455" d="M14.61,9.805c0,0.804-0.652,1.456-1.456,1.456H2.845c-0.804,0-1.456-0.652-1.456-1.456V3.241
			c0-0.804,0.652-1.456,1.456-1.456h10.309c0.804,0,1.456,0.652,1.456,1.456V9.805z"/>
	</g>
	<g>
		<path fill="#535455" d="M12.168,14.215H3.831c-0.297,0-0.538-0.241-0.538-0.538c0-0.297,0.241-0.538,0.538-0.538h8.337
			c0.297,0,0.538,0.241,0.538,0.538C12.706,13.975,12.466,14.215,12.168,14.215z"/>
	</g>
	<g>
		<rect x="7.115" y="10.248" fill="#535455" width="1.77" height="3.429"/>
	</g>
</g>
</svg>
