<?xml version="1.0" encoding="utf-8"?>
<!-- Generator: Adobe Illustrator 17.0.0, SVG Export Plug-In . SVG Version: 6.00 Build 0)  -->
<!DOCTYPE svg PUBLIC "-//W3C//DTD SVG 1.1//EN" "http://www.w3.org/Graphics/SVG/1.1/DTD/svg11.dtd">
<svg version="1.1" id="图层_1" xmlns="http://www.w3.org/2000/svg" xmlns:xlink="http://www.w3.org/1999/xlink" x="0px" y="0px"
	 width="16px" height="16px" viewBox="0 0 16 16" enable-background="new 0 0 16 16" xml:space="preserve">
<g>
	<path fill="#515151" d="M13.337,5.806c-0.276,0-0.5,0.224-0.5,0.5v6.281c0,0.827-0.673,1.5-1.5,1.5h-7.53
		c-0.827,0-1.5-0.673-1.5-1.5V3.895c0-0.827,0.673-1.5,1.5-1.5h5.901c0.276,0,0.5-0.224,0.5-0.5s-0.224-0.5-0.5-0.5H3.807
		c-1.378,0-2.5,1.122-2.5,2.5v8.693c0,1.379,1.122,2.5,2.5,2.5h7.53c1.379,0,2.5-1.121,2.5-2.5V6.306
		C13.837,6.03,13.613,5.806,13.337,5.806z"/>
	<path fill="#515151" d="M14.171,1.417c-0.672-0.673-1.846-0.673-2.519,0l-5.631,5.62c-0.562,0.562-0.869,2.06-0.822,2.657
		c0.008,0.099,0.032,0.398,0.294,0.587c0.121,0.08,0.272,0.115,0.488,0.115c0.489,0,1.968-0.25,2.559-0.84L8.746,9.35
		C8.752,9.345,8.76,9.343,8.765,9.337c0.005-0.006,0.007-0.013,0.012-0.019l5.393-5.382c0.337-0.336,0.522-0.784,0.522-1.259
		C14.693,2.201,14.508,1.754,14.171,1.417z M8.409,8.274L7.304,7.169l4.128-4.119l1.105,1.105L8.409,8.274z M6.618,7.898
		l1.061,1.061C7.334,9.157,6.653,9.334,6.199,9.382C6.238,8.968,6.41,8.257,6.618,7.898z M13.464,3.229l-0.22,0.219l-1.105-1.105
		l0.22-0.219c0.147-0.147,0.344-0.229,0.552-0.229c0.209,0,0.405,0.082,0.553,0.229c0.147,0.148,0.229,0.344,0.229,0.553
		C13.693,2.886,13.611,3.082,13.464,3.229z"/>
</g>
</svg>
