<?xml version="1.0" encoding="utf-8"?>
<!-- Generator: Adobe Illustrator 17.0.0, SVG Export Plug-In . SVG Version: 6.00 Build 0)  -->
<!DOCTYPE svg PUBLIC "-//W3C//DTD SVG 1.1//EN" "http://www.w3.org/Graphics/SVG/1.1/DTD/svg11.dtd">
<svg version="1.1" id="图层_1" xmlns="http://www.w3.org/2000/svg" xmlns:xlink="http://www.w3.org/1999/xlink" x="0px" y="0px"
	 width="16px" height="16px" viewBox="0 0 16 16" enable-background="new 0 0 16 16" xml:space="preserve">
<g>
	<path fill="#515151" d="M5.479,14.136H3.415c-0.827,0-1.5-0.673-1.5-1.5V6.985h1.379c0.276,0,0.5-0.224,0.5-0.5s-0.224-0.5-0.5-0.5
		H1.915V5.148c0-0.827,0.673-1.5,1.5-1.5c0.276,0,0.5-0.224,0.5-0.5s-0.224-0.5-0.5-0.5c-1.378,0-2.5,1.122-2.5,2.5v7.488
		c0,1.379,1.122,2.5,2.5,2.5h2.064c0.276,0,0.5-0.224,0.5-0.5S5.755,14.136,5.479,14.136z"/>
	<path fill="#515151" d="M6.615,11.423c0.276,0,0.5-0.224,0.5-0.5s-0.224-0.5-0.5-0.5c-0.827,0-1.5-0.673-1.5-1.5V4.485h8.907v1.188
		c0,0.276,0.224,0.5,0.5,0.5s0.5-0.224,0.5-0.5V3.364c0-1.378-1.121-2.5-2.5-2.5H6.615c-1.378,0-2.5,1.122-2.5,2.5v5.559
		C4.115,10.301,5.236,11.423,6.615,11.423z M6.615,1.864h5.907c0.827,0,1.5,0.673,1.5,1.5v0.121H5.115V3.364
		C5.115,2.537,5.788,1.864,6.615,1.864z"/>
	<path fill="#515151" d="M9.65,14.091l4.944-4.934c0.316-0.317,0.49-0.737,0.49-1.185c0-0.448-0.174-0.868-0.49-1.184
		c-0.631-0.632-1.735-0.632-2.368,0l-5.161,5.151c-0.523,0.524-0.809,1.914-0.765,2.469c0.008,0.095,0.031,0.384,0.289,0.569
		c0.118,0.078,0.263,0.112,0.469,0.112c0.453,0,1.825-0.232,2.376-0.782l0.19-0.189c0.005-0.005,0.011-0.006,0.016-0.011
		C9.644,14.102,9.646,14.095,9.65,14.091z M8.33,12.089l3.725-3.717l0.954,0.954l-3.724,3.717L8.33,12.089z M13.411,7.298
		c0.18,0,0.35,0.07,0.477,0.197c0.128,0.127,0.197,0.297,0.197,0.477s-0.069,0.35-0.197,0.477L13.716,8.62l-0.954-0.954l0.171-0.171
		C13.061,7.367,13.23,7.298,13.411,7.298z M7.657,12.831l0.884,0.885c-0.301,0.156-0.836,0.306-1.238,0.356
		C7.345,13.703,7.493,13.144,7.657,12.831z"/>
	<path fill="#515151" d="M14.521,14.136H10.85c-0.276,0-0.5,0.224-0.5,0.5s0.224,0.5,0.5,0.5h3.672c0.276,0,0.5-0.224,0.5-0.5
		S14.798,14.136,14.521,14.136z"/>
</g>
</svg>
