<?xml version="1.0" encoding="utf-8"?>
<!-- Generator: Adobe Illustrator 17.0.0, SVG Export Plug-In . SVG Version: 6.00 Build 0)  -->
<!DOCTYPE svg PUBLIC "-//W3C//DTD SVG 1.1//EN" "http://www.w3.org/Graphics/SVG/1.1/DTD/svg11.dtd">
<svg version="1.1" id="图层_1" xmlns="http://www.w3.org/2000/svg" xmlns:xlink="http://www.w3.org/1999/xlink" x="0px" y="0px"
	 width="16px" height="16px" viewBox="0 0 16 16" enable-background="new 0 0 16 16" xml:space="preserve">
<g>
	<path fill="#515151" d="M12.167,0.899H3.833c-1.105,0-2,0.895-2,2v7.057c0,1.105,4.918,5.144,6.167,5.144
		c1.189,0,6.167-4.04,6.167-5.144V2.899C14.167,1.795,13.271,0.899,12.167,0.899z M13.167,9.862
		c-0.431,0.948-4.134,3.981-5.172,4.233c-1.033-0.232-4.733-3.266-5.161-4.23V2.899c0-0.551,0.449-1,1-1h8.333c0.551,0,1,0.449,1,1
		V9.862z"/>
	<path fill="#515151" d="M9.443,3.53l-4.43,4.42c-0.48,0.479-0.715,1.696-0.677,2.173c0.019,0.24,0.106,0.419,0.279,0.544
		c0.146,0.096,0.313,0.108,0.442,0.108c0.411,0,1.596-0.199,2.088-0.692l0.162-0.162c0.005-0.004,0.011-0.006,0.015-0.01
		s0.006-0.01,0.01-0.015l4.243-4.234c0.285-0.285,0.441-0.664,0.441-1.066c0-0.403-0.156-0.782-0.441-1.066
		C11.004,2.96,10.013,2.962,9.443,3.53z M5.352,9.748c0.04-0.269,0.133-0.623,0.238-0.864l0.622,0.622
		C5.979,9.608,5.636,9.703,5.352,9.748z M6.967,8.849L6.249,8.13l3.096-3.09l0.718,0.718L6.967,8.849z M10.868,4.955l-0.097,0.097
		l-0.718-0.718l0.097-0.097c0.096-0.096,0.224-0.149,0.359-0.149c0.135,0,0.263,0.053,0.358,0.149s0.148,0.224,0.148,0.359
		C11.017,4.732,10.964,4.86,10.868,4.955z"/>
</g>
</svg>
