<?xml version="1.0" encoding="utf-8"?>
<!-- Generator: Adobe Illustrator 17.0.0, SVG Export Plug-In . SVG Version: 6.00 Build 0)  -->
<!DOCTYPE svg PUBLIC "-//W3C//DTD SVG 1.1//EN" "http://www.w3.org/Graphics/SVG/1.1/DTD/svg11.dtd">
<svg version="1.1" id="图层_1" xmlns="http://www.w3.org/2000/svg" xmlns:xlink="http://www.w3.org/1999/xlink" x="0px" y="0px"
	 width="16px" height="16px" viewBox="0 0 16 16" enable-background="new 0 0 16 16" xml:space="preserve">
<g>
	<path fill="#535455" d="M10.767,7.194H8.5V4.927c0-0.276-0.224-0.5-0.5-0.5s-0.5,0.224-0.5,0.5v2.267H5.233
		c-0.276,0-0.5,0.224-0.5,0.5s0.224,0.5,0.5,0.5H7.5v2.266c0,0.276,0.224,0.5,0.5,0.5s0.5-0.224,0.5-0.5V8.194h2.267
		c0.276,0,0.5-0.224,0.5-0.5S11.043,7.194,10.767,7.194z"/>
	<path fill="#535455" d="M13.583,2.937c-0.248-0.229-0.574-0.356-0.919-0.356l-0.118,0.002c-0.133,0.008-0.986,0.058-1.881-0.162
		c-0.536-0.126-1.23-0.684-1.604-0.983c-0.147-0.118-0.265-0.21-0.343-0.261C8.305,0.913,7.757,0.876,7.233,1.184L7.122,1.279
		c-0.882,0.84-1.483,1.077-1.767,1.145C4.727,2.578,4.037,2.594,3.769,2.594c-0.164,0-0.275-0.007-0.317-0.01L3.349,2.582
		c-0.35,0-0.668,0.123-0.907,0.344c-0.279,0.24-0.445,0.604-0.445,0.972v2.05c0,7.932,5.513,9.023,5.713,9.058
		c0.111,0.028,0.208,0.028,0.271,0.028c0.064,0,0.162,0,0.234-0.02c0.236-0.041,5.788-1.087,5.788-9.067V3.897
		C14.003,3.539,13.846,3.179,13.583,2.937z M13.003,5.948c0,7.147-4.755,8.046-4.979,8.085l-0.044,0.501v-0.5l-0.059-0.005
		c-0.201-0.036-4.926-0.975-4.926-8.082v-2.05c0-0.08,0.038-0.163,0.111-0.226c0.066-0.061,0.143-0.09,0.277-0.09
		C3.435,3.585,3.57,3.594,3.769,3.594c0.377,0,1.116-0.026,1.821-0.199c0.662-0.158,1.43-0.639,2.174-1.365
		c0.15-0.088,0.313-0.076,0.413-0.013c0.057,0.038,0.146,0.11,0.259,0.201c0.465,0.374,1.244,1,1.996,1.176
		c0.708,0.173,1.438,0.199,1.811,0.199c0.187,0,0.319-0.009,0.422-0.013c0.091,0,0.178,0.033,0.24,0.09
		c0.06,0.055,0.099,0.144,0.099,0.225V5.948z"/>
</g>
</svg>
