<?xml version="1.0" encoding="utf-8"?>
<!-- Generator: Adobe Illustrator 17.0.0, SVG Export Plug-In . SVG Version: 6.00 Build 0)  -->
<!DOCTYPE svg PUBLIC "-//W3C//DTD SVG 1.1//EN" "http://www.w3.org/Graphics/SVG/1.1/DTD/svg11.dtd">
<svg version="1.1" id="图层_1" xmlns="http://www.w3.org/2000/svg" xmlns:xlink="http://www.w3.org/1999/xlink" x="0px" y="0px"
	 width="16px" height="16px" viewBox="0 0 16 16" enable-background="new 0 0 16 16" xml:space="preserve">
<g>
	<path fill="#535455" d="M15,0.756H1c-0.276,0-0.5,0.224-0.5,0.5v13.487c0,0.276,0.224,0.5,0.5,0.5h14c0.276,0,0.5-0.224,0.5-0.5
		V1.256C15.5,0.98,15.276,0.756,15,0.756z M14.5,14.243h-13V1.756h13V14.243z"/>
	<path fill="#535455" d="M5.176,8.5H7.5v2.324c0,0.276,0.224,0.5,0.5,0.5s0.5-0.224,0.5-0.5V8.5h2.324c0.276,0,0.5-0.224,0.5-0.5
		s-0.224-0.5-0.5-0.5H8.5V5.176c0-0.276-0.224-0.5-0.5-0.5S7.5,4.9,7.5,5.176V7.5H5.176c-0.276,0-0.5,0.224-0.5,0.5
		S4.9,8.5,5.176,8.5z"/>
</g>
</svg>
