<?xml version="1.0" encoding="utf-8"?>
<!-- Generator: Adobe Illustrator 17.0.0, SVG Export Plug-In . SVG Version: 6.00 Build 0)  -->
<!DOCTYPE svg PUBLIC "-//W3C//DTD SVG 1.1//EN" "http://www.w3.org/Graphics/SVG/1.1/DTD/svg11.dtd">
<svg version="1.1" id="图层_1" xmlns="http://www.w3.org/2000/svg" xmlns:xlink="http://www.w3.org/1999/xlink" x="0px" y="0px"
	 width="16px" height="16px" viewBox="0 0 16 16" enable-background="new 0 0 16 16" xml:space="preserve">
<g>
	<path fill="#535455" d="M10.042,4.94H5.958c-0.719,0-1.303,0.585-1.303,1.304v2.478c0,0.719,0.584,1.303,1.303,1.303l0.004,0.101
		c0,0.516,0.419,0.935,0.935,0.935h2.208c0.516,0,0.935-0.419,0.935-0.935v-0.101h0.004c0.719,0,1.304-0.584,1.304-1.303V6.244
		C11.346,5.525,10.761,4.94,10.042,4.94z M10.346,8.722c0,0.167-0.137,0.303-0.304,0.303H9.539c-0.276,0-0.5,0.224-0.5,0.5v0.537
		l-2.077,0.063V9.525c0-0.276-0.224-0.5-0.5-0.5H5.958c-0.167,0-0.303-0.136-0.303-0.303V6.244c0-0.167,0.136-0.304,0.303-0.304
		h4.085c0.167,0,0.304,0.136,0.304,0.304V8.722z"/>
	<path fill="#535455" d="M14.568,7.5H13.81V4.607c0-0.804-0.654-1.458-1.458-1.458H3.648c-0.804,0-1.458,0.654-1.458,1.458V7.5
		H1.432c-0.276,0-0.5,0.224-0.5,0.5c0,0.276,0.224,0.5,0.5,0.5H2.19v2.894c0,0.805,0.654,1.459,1.458,1.459h8.704
		c0.804,0,1.458-0.654,1.458-1.459V8.499h0.758c0.276,0,0.5-0.224,0.5-0.5C15.068,7.723,14.844,7.5,14.568,7.5z M12.81,11.393
		c0,0.253-0.205,0.459-0.458,0.459H3.648c-0.252,0-0.458-0.206-0.458-0.459V4.607c0-0.253,0.206-0.458,0.458-0.458h8.704
		c0.253,0,0.458,0.206,0.458,0.458V11.393z"/>
</g>
</svg>
