<?xml version="1.0" encoding="utf-8"?>
<!-- Generator: Adobe Illustrator 17.0.0, SVG Export Plug-In . SVG Version: 6.00 Build 0)  -->
<!DOCTYPE svg PUBLIC "-//W3C//DTD SVG 1.1//EN" "http://www.w3.org/Graphics/SVG/1.1/DTD/svg11.dtd">
<svg version="1.1" id="图层_1" xmlns="http://www.w3.org/2000/svg" xmlns:xlink="http://www.w3.org/1999/xlink" x="0px" y="0px"
	 width="200px" height="200px" viewBox="0 0 200 200" enable-background="new 0 0 200 200" xml:space="preserve">
<path fill="#040000" d="M184.083,183.833h-12.756v-35c0-2.499-1.168-4.854-3.157-6.367L114.31,101.5l53.86-40.965
	c1.989-1.513,3.157-3.869,3.157-6.368v-38h12.756c4.418,0,8-3.582,8-8s-3.582-8-8-8H15.917c-4.418,0-8,3.582-8,8s3.582,8,8,8h12.756
	v38c0,2.499,1.168,4.854,3.157,6.368L85.69,101.5l-53.86,40.967c-1.989,1.513-3.157,3.868-3.157,6.367v35H15.917
	c-4.418,0-8,3.582-8,8s3.582,8,8,8h168.167c4.418,0,8-3.582,8-8S188.501,183.833,184.083,183.833z M155.327,50.2L123.05,74.75
	H80.401L45.493,46.361V16.167h109.834V50.2z M44.673,152.799L100,110.717l55.327,42.082v31.034h-23.398l-22.215-21.34
	c-5.365-5.154-14.063-5.154-19.428,0l-22.215,21.34H44.673V152.799z"/>
</svg>
