<?xml version="1.0" encoding="utf-8"?>
<!-- Generator: Adobe Illustrator 17.0.0, SVG Export Plug-In . SVG Version: 6.00 Build 0)  -->
<!DOCTYPE svg PUBLIC "-//W3C//DTD SVG 1.1//EN" "http://www.w3.org/Graphics/SVG/1.1/DTD/svg11.dtd">
<svg version="1.1" id="图层_1" xmlns="http://www.w3.org/2000/svg" xmlns:xlink="http://www.w3.org/1999/xlink" x="0px" y="0px"
	 width="16px" height="16px" viewBox="0 0 16 16" enable-background="new 0 0 16 16" xml:space="preserve">
<g>
	<g>
		<path fill="#535455" d="M11.435,14.857c-0.24,0-0.479-0.059-0.69-0.17l-2.746-1.48L5.26,14.685
			c-0.497,0.256-1.085,0.218-1.525-0.086c-0.454-0.312-0.689-0.86-0.599-1.397L3.676,9.99l-2.32-2.316
			C0.97,7.29,0.839,6.733,1.014,6.22c0.175-0.509,0.618-0.873,1.155-0.953l1.549-0.23c0.274-0.037,0.527,0.148,0.568,0.421
			S4.138,5.986,3.865,6.027l-1.549,0.23C2.149,6.281,2.012,6.392,1.96,6.545C1.91,6.691,1.948,6.853,2.062,6.966l2.502,2.499
			c0.115,0.114,0.167,0.276,0.14,0.437l-0.582,3.467c-0.026,0.157,0.042,0.313,0.179,0.407c0.14,0.096,0.333,0.106,0.492,0.025
			l2.968-1.603c0.147-0.08,0.326-0.08,0.475,0l2.978,1.606c0.137,0.072,0.341,0.067,0.48-0.028s0.208-0.251,0.182-0.405L11.296,9.9
			c-0.026-0.159,0.025-0.321,0.14-0.436l2.504-2.499c0.112-0.112,0.15-0.273,0.1-0.421c-0.052-0.151-0.19-0.264-0.354-0.288
			L10.269,5.75c-0.164-0.024-0.306-0.128-0.377-0.278L8.406,2.389c-0.143-0.299-0.669-0.299-0.813,0L6.475,4.711
			c-0.12,0.25-0.418,0.354-0.667,0.234c-0.249-0.12-0.354-0.419-0.234-0.667l1.118-2.322c0.238-0.494,0.751-0.812,1.308-0.812
			c0.558,0,1.072,0.319,1.309,0.813L10.677,4.8l3.154,0.467c0.54,0.081,0.981,0.446,1.153,0.954c0.176,0.51,0.046,1.067-0.339,1.453
			L12.325,9.99l0.537,3.213c0.093,0.533-0.143,1.083-0.599,1.396C12.02,14.767,11.733,14.857,11.435,14.857z"/>
	</g>
</g>
</svg>
