<?xml version="1.0" encoding="utf-8"?>
<!-- Generator: Adobe Illustrator 17.0.0, SVG Export Plug-In . SVG Version: 6.00 Build 0)  -->
<!DOCTYPE svg PUBLIC "-//W3C//DTD SVG 1.1//EN" "http://www.w3.org/Graphics/SVG/1.1/DTD/svg11.dtd">
<svg version="1.1" id="图层_1" xmlns="http://www.w3.org/2000/svg" xmlns:xlink="http://www.w3.org/1999/xlink" x="0px" y="0px"
	 width="16px" height="16px" viewBox="0 0 16 16" enable-background="new 0 0 16 16" xml:space="preserve">
<g>
	<path fill="#515151" d="M6.389,8.546L4.281,6.438c-0.195-0.195-0.512-0.195-0.707,0s-0.195,0.512,0,0.707l1.88,1.88l-1.88,1.88
		c-0.195,0.195-0.195,0.512,0,0.707c0.098,0.098,0.226,0.146,0.354,0.146s0.256-0.049,0.354-0.146l2.107-2.106
		c0.129-0.128,0.2-0.299,0.2-0.48S6.517,8.673,6.389,8.546z"/>
	<path fill="#515151" d="M13.104,1.969H2.896c-1.105,0-2,0.895-2,2v8.062c0,1.105,0.895,2,2,2h10.208c1.105,0,2-0.895,2-2V3.969
		C15.104,2.864,14.209,1.969,13.104,1.969z M14.104,3.969v0.906h-5.29V2.969h4.29C13.656,2.969,14.104,3.417,14.104,3.969z
		 M6.752,4.875V2.969h1.062v1.906H6.752z M4.689,4.875V2.969h1.062v1.906H4.689z M2.896,2.969h0.794v1.906H1.896V3.969
		C1.896,3.417,2.344,2.969,2.896,2.969z M13.104,13.031H2.896c-0.551,0-1-0.449-1-1V5.875h12.208v6.156
		C14.104,12.583,13.656,13.031,13.104,13.031z"/>
	<path fill="#515151" d="M9.877,10.501H7.076c-0.276,0-0.5,0.224-0.5,0.5s0.224,0.5,0.5,0.5h2.801c0.276,0,0.5-0.224,0.5-0.5
		S10.153,10.501,9.877,10.501z"/>
	<path fill="#515151" d="M12.772,10.501h-1.29c-0.276,0-0.5,0.224-0.5,0.5s0.224,0.5,0.5,0.5h1.29c0.276,0,0.5-0.224,0.5-0.5
		S13.049,10.501,12.772,10.501z"/>
</g>
</svg>
