<?xml version="1.0" encoding="utf-8"?>
<!-- Generator: Adobe Illustrator 17.0.0, SVG Export Plug-In . SVG Version: 6.00 Build 0)  -->
<!DOCTYPE svg PUBLIC "-//W3C//DTD SVG 1.1//EN" "http://www.w3.org/Graphics/SVG/1.1/DTD/svg11.dtd">
<svg version="1.1" id="图层_1" xmlns="http://www.w3.org/2000/svg" xmlns:xlink="http://www.w3.org/1999/xlink" x="0px" y="0px"
	 width="60px" height="60px" viewBox="0 0 60 60" enable-background="new 0 0 60 60" xml:space="preserve">
<g>
	<path fill="#515151" d="M57.36,4.477H2.64c-1.491,0-2.704,1.213-2.704,2.705v36.596c0,1.491,1.213,2.704,2.704,2.704h23.61v4.25
		h-7.806c-1.321,0-2.396,1.075-2.396,2.396s1.075,2.396,2.396,2.396h23.111c1.321,0,2.396-1.074,2.396-2.396
		s-1.074-2.396-2.396-2.396H33.75v-4.25H57.36c1.491,0,2.704-1.213,2.704-2.704V7.181C60.064,5.69,58.851,4.477,57.36,4.477z
		 M41.556,52.231c0.494,0,0.896,0.402,0.896,0.896s-0.401,0.896-0.896,0.896H18.445c-0.494,0-0.896-0.401-0.896-0.896
		s0.402-0.896,0.896-0.896H41.556z M32.25,50.731h-4.5v-4.25h4.5V50.731z M58.564,43.777c0,0.664-0.54,1.204-1.204,1.204H2.64
		c-0.664,0-1.204-0.54-1.204-1.204V7.181c0-0.664,0.54-1.205,1.204-1.205H57.36c0.664,0,1.204,0.541,1.204,1.205V43.777z"/>
	<path fill="#515151" d="M47.879,33.919c-0.414,0-0.75,0.336-0.75,0.75v4.014c0,0.443-0.36,0.804-0.804,0.804h-34.88
		c-0.443,0-0.804-0.36-0.804-0.804V16.66c0-0.443,0.36-0.804,0.804-0.804h34.88c0.443,0,0.804,0.36,0.804,0.804v4.259
		c0,0.414,0.336,0.75,0.75,0.75s0.75-0.336,0.75-0.75V16.66c0-1.271-1.033-2.304-2.304-2.304H19.441L39.121,9.16
		c0.669-0.176,1.352,0.224,1.527,0.89l0.704,2.669c0.105,0.401,0.519,0.643,0.917,0.534c0.4-0.105,0.64-0.516,0.534-0.917
		L42.1,9.667c-0.389-1.466-1.893-2.346-3.361-1.957l-25.173,6.647h-2.12c-1.271,0-2.304,1.033-2.304,2.304v22.022
		c0,1.271,1.033,2.304,2.304,2.304h34.88c1.271,0,2.304-1.033,2.304-2.304v-4.014C48.629,34.255,48.293,33.919,47.879,33.919z"/>
	<path fill="#515151" d="M42.798,22.646c-1.344,0-2.438,1.093-2.438,2.437v5.177c0,1.344,1.094,2.438,2.438,2.438h5.623
		c1.344,0,2.438-1.094,2.438-2.438v-5.177c0-1.344-1.094-2.437-2.438-2.437H42.798z M49.359,25.083v5.177
		c0,0.517-0.421,0.938-0.938,0.938h-5.623c-0.517,0-0.938-0.421-0.938-0.938v-5.177c0-0.517,0.421-0.937,0.938-0.937h5.623
		C48.938,24.146,49.359,24.566,49.359,25.083z"/>
	<path fill="#515151" d="M12.794,29.949c-0.414,0-0.75,0.336-0.75,0.75v5.243c0,1.271,1.033,2.304,2.304,2.304h5.243
		c0.414,0,0.75-0.336,0.75-0.75s-0.336-0.75-0.75-0.75h-5.243c-0.443,0-0.804-0.36-0.804-0.804v-5.243
		C13.544,30.285,13.208,29.949,12.794,29.949z"/>
	<path fill="#515151" d="M45.61,21.669c0.414,0,0.75-0.336,0.75-0.75V19.13c0-1.271-1.033-2.304-2.304-2.304h-2.585
		c-0.414,0-0.75,0.336-0.75,0.75s0.336,0.75,0.75,0.75h2.585c0.443,0,0.804,0.36,0.804,0.804v1.789
		C44.86,21.333,45.196,21.669,45.61,21.669z"/>
	<path fill="#515151" d="M44.376,25.688c-1.094,0-1.983,0.89-1.983,1.983s0.89,1.983,1.983,1.983s1.983-0.89,1.983-1.983
		S45.47,25.688,44.376,25.688z M44.376,28.155c-0.267,0-0.483-0.217-0.483-0.483s0.217-0.483,0.483-0.483s0.483,0.217,0.483,0.483
		S44.643,28.155,44.376,28.155z"/>
	<path fill="#515151" d="M10.642,7.606c0-0.414-0.336-0.75-0.75-0.75H4.649c-1.271,0-2.304,1.033-2.304,2.304v9.28
		c0,0.414,0.336,0.75,0.75,0.75s0.75-0.336,0.75-0.75V9.16c0-0.443,0.36-0.804,0.804-0.804h5.243
		C10.306,8.356,10.642,8.021,10.642,7.606z"/>
	<path fill="#515151" d="M3.095,20.748c-0.414,0-0.75,0.336-0.75,0.75v12.6c0,0.414,0.336,0.75,0.75,0.75s0.75-0.336,0.75-0.75
		v-12.6C3.845,21.084,3.509,20.748,3.095,20.748z"/>
	<path fill="#515151" d="M56.906,31.681c-0.414,0-0.75,0.336-0.75,0.75v9.28c0,0.442-0.36,0.803-0.804,0.803h-5.243
		c-0.414,0-0.75,0.336-0.75,0.75s0.336,0.75,0.75,0.75h5.243c1.271,0,2.304-1.033,2.304-2.303v-9.28
		C57.656,32.017,57.32,31.681,56.906,31.681z"/>
	<path fill="#515151" d="M56.906,16.023c-0.414,0-0.75,0.336-0.75,0.75v12.599c0,0.414,0.336,0.75,0.75,0.75s0.75-0.336,0.75-0.75
		V16.773C57.656,16.359,57.32,16.023,56.906,16.023z"/>
	<path fill="#515151" d="M34.267,26.996c0.414,0,0.75-0.336,0.75-0.75s-0.336-0.75-0.75-0.75h-2.456l2.851-2.851
		c0.293-0.293,0.293-0.768,0-1.061s-0.768-0.293-1.061,0L30,25.185L26.4,21.584c-0.293-0.293-0.768-0.293-1.061,0
		s-0.293,0.768,0,1.061l2.851,2.851h-2.457c-0.414,0-0.75,0.336-0.75,0.75s0.336,0.75,0.75,0.75h3.517v1.53h-3.517
		c-0.414,0-0.75,0.336-0.75,0.75s0.336,0.75,0.75,0.75h3.517v3.202c0,0.414,0.336,0.75,0.75,0.75s0.75-0.336,0.75-0.75v-3.202h3.517
		c0.414,0,0.75-0.336,0.75-0.75s-0.336-0.75-0.75-0.75H30.75v-1.53H34.267z"/>
</g>
</svg>
