<?xml version="1.0" encoding="utf-8"?>
<!-- Generator: Adobe Illustrator 17.0.0, SVG Export Plug-In . SVG Version: 6.00 Build 0)  -->
<!DOCTYPE svg PUBLIC "-//W3C//DTD SVG 1.1//EN" "http://www.w3.org/Graphics/SVG/1.1/DTD/svg11.dtd">
<svg version="1.1" id="图层_1" xmlns="http://www.w3.org/2000/svg" xmlns:xlink="http://www.w3.org/1999/xlink" x="0px" y="0px"
	 width="60px" height="60px" viewBox="0 0 60 60" enable-background="new 0 0 60 60" xml:space="preserve">
<g>
	<path fill="#515151" d="M14.707,44.436c-1.69,0-3.064,1.375-3.064,3.064s1.375,3.064,3.064,3.064s3.065-1.375,3.065-3.064
		S16.397,44.436,14.707,44.436z M14.707,49.065c-0.863,0-1.564-0.702-1.564-1.564s0.702-1.564,1.564-1.564s1.565,0.702,1.565,1.564
		S15.569,49.065,14.707,49.065z"/>
	<path fill="#515151" d="M52.708,12.785L34.882,30.788l2.441,2.454l17.83-18.012c0.667-0.679,0.665-1.776-0.006-2.447
		C54.49,12.126,53.35,12.132,52.708,12.785z M54.085,14.176L37.321,31.113l-0.326-0.327l16.781-16.947
		c0.093-0.096,0.182-0.124,0.312,0.004C54.177,13.932,54.175,14.085,54.085,14.176z"/>
	<path fill="#515151" d="M13.882,29.521c7.542,0,13.677-6.192,13.677-13.804c0-8.741-8.094-15.667-17.071-13.356L9.126,2.712
		l1.051,0.936c0.057,0.05,0.116,0.097,0.177,0.142c0.03,0.022,0.062,0.043,0.105,0.087l4.663,4.706c2.085,2.104,2.085,5.527,0,7.63
		c-1.006,1.016-2.345,1.575-3.769,1.575c-1.423,0-2.762-0.56-3.769-1.575l-4.661-4.702c-0.195-0.198-0.367-0.424-0.565-0.703
		l-0.831-1.17l-0.486,1.35c-0.557,1.547-0.84,3.139-0.84,4.731C0.201,23.33,6.338,29.521,13.882,29.521z M2.064,12.776l4.455,4.493
		c1.291,1.302,3.007,2.02,4.834,2.02c1.827,0,3.543-0.717,4.834-2.02c2.662-2.686,2.662-7.056,0-9.742l-3.955-3.991
		c0.555-0.081,1.102-0.12,1.65-0.12c6.714,0,12.177,5.518,12.177,12.301c0,6.785-5.463,12.304-12.177,12.304
		c-6.717,0-12.181-5.518-12.181-12.301C1.701,14.736,1.823,13.75,2.064,12.776z"/>
	<path fill="#515151" d="M57.188,4.92c-1.688-1.705-3.934-2.643-6.322-2.643c-2.388,0-4.632,0.938-6.32,2.643L23.557,26.11
		l12.632,12.758l20.999-21.199C60.669,14.152,60.669,8.433,57.188,4.92z M56.122,16.613L36.189,36.737L25.669,26.11L45.611,5.976
		c1.403-1.418,3.27-2.199,5.254-2.199c1.985,0,3.852,0.781,5.257,2.199C59.027,8.907,59.027,13.679,56.122,16.613z"/>
	<path fill="#515151" d="M45.965,46.811c-1.444,1.459-1.445,3.839,0.001,5.308c0.704,0.708,1.64,1.099,2.635,1.099
		s1.931-0.391,2.636-1.1c1.447-1.466,1.447-3.847,0-5.308C49.828,45.39,47.373,45.389,45.965,46.811z M50.171,51.062
		c-0.84,0.844-2.303,0.842-3.139,0.002c-0.87-0.885-0.871-2.319-0.001-3.197c0.42-0.425,0.978-0.658,1.569-0.658
		s1.149,0.233,1.569,0.658C51.042,48.746,51.042,50.18,50.171,51.062z"/>
	<path fill="#515151" d="M43.064,32.546L31.836,43.874l10.858,10.953c1.499,1.513,3.493,2.346,5.614,2.346s4.115-0.833,5.615-2.347
		c3.087-3.122,3.087-8.202-0.001-11.325L43.064,32.546z M52.858,53.771c-1.216,1.227-2.832,1.902-4.55,1.902
		s-3.334-0.676-4.55-1.902l-9.812-9.896l9.116-9.197l9.794,9.88C55.369,47.097,55.369,51.232,52.858,53.771z"/>
	<path fill="#515151" d="M25.688,31.485l-9.648,9.743l-0.89-0.897l-2.944,1.549l-8,13.081L7.3,58.088l12.858-8.01l1.651-3.023
		l-0.92-0.93l9.645-9.743L25.688,31.485z M18.779,46.125l1.179,1.191l-0.927,1.697L7.523,56.182l-1.424-1.44l7.171-11.728
		l1.595-0.84l1.174,1.187l9.648-9.743l2.736,2.765L18.779,46.125z"/>
	<path fill="#515151" d="M53.716,8.419c-0.659-0.652-1.801-0.645-2.441,0.008L32.002,27.879l2.441,2.454l19.267-19.46
		C54.381,10.202,54.387,9.105,53.716,8.419z M52.647,9.815l-18.205,18.39l-0.326-0.327L52.344,9.48
		c0.096-0.099,0.194-0.116,0.308-0.003C52.742,9.57,52.741,9.72,52.647,9.815z"/>
	<path fill="#515151" d="M49.396,6.961c-0.661-0.649-1.794-0.647-2.442,0.007l-17.83,18.005l2.437,2.456L49.404,9.412
		C50.068,8.736,50.067,7.64,49.396,6.961z M48.336,8.359L31.559,25.298l-0.323-0.326L48.019,8.024c0.097-0.099,0.195-0.118,0.318,0
		C48.426,8.114,48.425,8.268,48.336,8.359z"/>
</g>
</svg>
