<?xml version="1.0" encoding="utf-8"?>
<!-- Generator: Adobe Illustrator 17.0.0, SVG Export Plug-In . SVG Version: 6.00 Build 0)  -->
<!DOCTYPE svg PUBLIC "-//W3C//DTD SVG 1.1//EN" "http://www.w3.org/Graphics/SVG/1.1/DTD/svg11.dtd">
<svg version="1.1" id="图层_1" xmlns="http://www.w3.org/2000/svg" xmlns:xlink="http://www.w3.org/1999/xlink" x="0px" y="0px"
	 width="16px" height="16px" viewBox="0 0 16 16" enable-background="new 0 0 16 16" xml:space="preserve">
<g>
	<path fill="#535455" d="M7.05,1.995c1.594,0,2.891,1.297,2.891,2.891c0,0.818-0.342,1.577-0.961,2.137
		C8.774,7.208,8.759,7.524,8.943,7.729c0.185,0.204,0.501,0.22,0.706,0.036c0.82-0.742,1.291-1.791,1.291-2.879
		c0-2.146-1.745-3.891-3.891-3.891S3.159,2.74,3.159,4.886c0,0.862,0.296,1.701,0.827,2.38c-1.478,0.937-2.371,2.477-2.371,4.152
		c0,2.622,2.17,3.092,3.803,3.217c0.013,0.002,0.026,0.002,0.039,0.002c0.259,0,0.478-0.199,0.498-0.462
		c0.021-0.275-0.185-0.516-0.46-0.536c-2.072-0.16-2.879-0.782-2.879-2.221c0-1.497,0.915-2.866,2.387-3.574
		C5.152,7.772,5.256,7.63,5.28,7.465C5.304,7.3,5.244,7.134,5.12,7.022C4.5,6.462,4.159,5.704,4.159,4.886
		C4.159,3.292,5.456,1.995,7.05,1.995z"/>
	<path fill="#535455" d="M13.939,11.74l-0.207-0.126c0.005-0.064,0.008-0.13,0.008-0.199c0-0.06-0.003-0.123-0.008-0.187
		l0.188-0.106c0.217-0.12,0.377-0.332,0.438-0.582c0.059-0.241,0.017-0.495-0.103-0.674l-0.401-0.679
		c-0.226-0.451-0.817-0.62-1.271-0.351l-0.191,0.117c-0.102-0.069-0.201-0.129-0.302-0.182V8.722c0-0.506-0.412-0.918-0.918-0.918
		h-0.813c-0.506,0-0.918,0.412-0.918,0.918v0.029C9.341,8.804,9.24,8.864,9.139,8.934L8.91,8.795
		C8.466,8.576,7.889,8.766,7.694,9.157L7.26,9.896c-0.227,0.452-0.072,0.991,0.348,1.224l0.191,0.107
		c-0.004,0.061-0.007,0.123-0.007,0.188c0,0.06,0.003,0.123,0.008,0.187l-0.188,0.106c-0.217,0.12-0.377,0.332-0.438,0.582
		c-0.059,0.241-0.017,0.495,0.103,0.674l0.401,0.681c0.228,0.451,0.824,0.618,1.271,0.349l0.191-0.117
		c0.102,0.069,0.201,0.129,0.302,0.182v0.03c0,0.506,0.412,0.917,0.918,0.917h0.813c0.506,0,0.918-0.411,0.918-0.917v-0.03
		c0.101-0.053,0.2-0.112,0.302-0.182l0.208,0.126c0.133,0.074,0.285,0.114,0.44,0.114c0.315,0,0.607-0.157,0.797-0.442l0.404-0.688
		c0.134-0.202,0.176-0.444,0.117-0.682C14.3,12.061,14.141,11.852,13.939,11.74z M13.022,13.089l-0.399-0.243
		c-0.18-0.106-0.41-0.094-0.576,0.041c-0.226,0.184-0.424,0.304-0.625,0.375c-0.198,0.071-0.331,0.26-0.331,0.471v0.272h-0.649
		v-0.272c0-0.211-0.133-0.399-0.331-0.471c-0.201-0.072-0.399-0.191-0.625-0.375c-0.165-0.136-0.396-0.149-0.576-0.041l-0.394,0.252
		l-0.332-0.564L8.58,12.31c0.18-0.102,0.278-0.304,0.249-0.509c-0.019-0.122-0.037-0.263-0.037-0.386
		c0-0.141,0.019-0.264,0.037-0.386c0.029-0.205-0.069-0.407-0.249-0.509l-0.396-0.224l0.335-0.571l0.39,0.237
		c0.183,0.11,0.413,0.095,0.578-0.04c0.225-0.185,0.423-0.304,0.624-0.376c0.198-0.071,0.331-0.26,0.331-0.471V8.804h0.649v0.294
		c0,0.211,0.133,0.399,0.331,0.471c0.201,0.072,0.399,0.191,0.625,0.375c0.165,0.136,0.396,0.147,0.576,0.041l0.394-0.251
		l0.332,0.563l-0.396,0.224c-0.18,0.102-0.278,0.304-0.249,0.509c0.019,0.122,0.037,0.263,0.037,0.386
		c0,0.141-0.019,0.264-0.037,0.386c-0.029,0.199,0.063,0.396,0.234,0.5l0.417,0.223L13.022,13.089z"/>
	<path fill="#535455" d="M10.756,9.976c-0.796,0-1.443,0.655-1.443,1.46c0,0.806,0.647,1.461,1.443,1.461
		c0.795,0,1.442-0.655,1.442-1.461C12.198,10.631,11.551,9.976,10.756,9.976z M10.756,11.896c-0.244,0-0.443-0.207-0.443-0.461
		s0.199-0.46,0.443-0.46s0.442,0.206,0.442,0.46S11,11.896,10.756,11.896z"/>
</g>
</svg>
