<?xml version="1.0" encoding="utf-8"?>
<!-- Generator: Adobe Illustrator 17.0.0, SVG Export Plug-In . SVG Version: 6.00 Build 0)  -->
<!DOCTYPE svg PUBLIC "-//W3C//DTD SVG 1.1//EN" "http://www.w3.org/Graphics/SVG/1.1/DTD/svg11.dtd">
<svg version="1.1" id="图层_1" xmlns="http://www.w3.org/2000/svg" xmlns:xlink="http://www.w3.org/1999/xlink" x="0px" y="0px"
	 width="16px" height="16px" viewBox="0 0 16 16" enable-background="new 0 0 16 16" xml:space="preserve">
<g>
	<path fill="#515151" d="M12.712,8.924c0.626-0.566,1.026-1.375,1.026-2.286c0-1.707-1.384-3.091-3.091-3.091
		S7.557,4.932,7.557,6.638c0,0.91,0.401,1.72,1.027,2.286C7.144,9.616,6.15,10.99,6.15,12.592c0,2.293,2.014,2.523,4.498,2.523
		s4.498-0.231,4.498-2.523C15.146,10.99,14.152,9.616,12.712,8.924z M10.648,14.116c-3.012,0-3.498-0.449-3.498-1.523
		c0-1.153,0.715-2.213,1.867-2.767c0.3-0.144,0.509-0.429,0.557-0.758S9.501,8.405,9.254,8.182C8.805,7.776,8.557,7.228,8.557,6.638
		c0-1.153,0.938-2.091,2.091-2.091s2.091,0.938,2.091,2.091c0,0.589-0.247,1.137-0.697,1.544c-0.247,0.223-0.367,0.555-0.319,0.885
		s0.256,0.614,0.557,0.758c1.152,0.554,1.867,1.614,1.867,2.767C14.146,13.667,13.66,14.116,10.648,14.116z"/>
	<path fill="#515151" d="M5.082,12.723H3.212c-0.749,0-1.358-0.609-1.358-1.357V3.243c0-0.749,0.609-1.358,1.358-1.358h7.199
		c0.748,0,1.357,0.609,1.357,1.358c0,0.276,0.224,0.5,0.5,0.5s0.5-0.224,0.5-0.5c0-1.3-1.058-2.358-2.357-2.358H3.212
		c-1.3,0-2.358,1.058-2.358,2.358v8.123c0,1.3,1.058,2.357,2.358,2.357h1.869c0.276,0,0.5-0.224,0.5-0.5S5.358,12.723,5.082,12.723z
		"/>
	<path fill="#515151" d="M8.207,4.005c0-0.276-0.224-0.5-0.5-0.5H2.863c-0.276,0-0.5,0.224-0.5,0.5s0.224,0.5,0.5,0.5h4.844
		C7.983,4.505,8.207,4.282,8.207,4.005z"/>
	<path fill="#515151" d="M2.863,6.005c-0.276,0-0.5,0.224-0.5,0.5s0.224,0.5,0.5,0.5h3.75c0.276,0,0.5-0.224,0.5-0.5
		s-0.224-0.5-0.5-0.5H2.863z"/>
	<path fill="#515151" d="M5.644,8.505H2.863c-0.276,0-0.5,0.224-0.5,0.5s0.224,0.5,0.5,0.5h2.781c0.276,0,0.5-0.224,0.5-0.5
		S5.92,8.505,5.644,8.505z"/>
</g>
</svg>
