<?xml version="1.0" encoding="utf-8"?>
<!-- Generator: Adobe Illustrator 17.0.0, SVG Export Plug-In . SVG Version: 6.00 Build 0)  -->
<!DOCTYPE svg PUBLIC "-//W3C//DTD SVG 1.1//EN" "http://www.w3.org/Graphics/SVG/1.1/DTD/svg11.dtd">
<svg version="1.1" id="图层_1" xmlns="http://www.w3.org/2000/svg" xmlns:xlink="http://www.w3.org/1999/xlink" x="0px" y="0px"
	 width="16px" height="16px" viewBox="0 0 16 16" enable-background="new 0 0 16 16" xml:space="preserve">
<g>
	<path fill="#515151" d="M13.765,4.325H3.938c-0.663,0-1.203-0.54-1.203-1.203c0-0.663,0.54-1.203,1.203-1.203h9.827
		c0.276,0,0.5-0.224,0.5-0.5s-0.224-0.5-0.5-0.5H3.938c-1.214,0-2.203,0.988-2.203,2.203v9.459c0,1.379,1.122,2.5,2.5,2.5h7.529
		c1.379,0,2.5-1.121,2.5-2.5V4.825C14.265,4.548,14.041,4.325,13.765,4.325z M11.765,14.081H4.235c-0.827,0-1.5-0.673-1.5-1.5V4.963
		C3.082,5.19,3.494,5.325,3.938,5.325h9.327v7.256C13.265,13.408,12.592,14.081,11.765,14.081z"/>
	<path fill="#515151" d="M13.765,2.622H4.062c-0.276,0-0.5,0.224-0.5,0.5s0.224,0.5,0.5,0.5h9.702c0.276,0,0.5-0.224,0.5-0.5
		S14.041,2.622,13.765,2.622z"/>
	<path fill="#515151" d="M9.773,9.371c0.179-0.309,0.276-0.66,0.276-1.019c0-1.13-0.92-2.05-2.05-2.05c-1.13,0-2.05,0.919-2.05,2.05
		c0,0.359,0.097,0.71,0.276,1.019c-0.617,0.483-0.982,1.196-0.982,1.966c0,1.766,1.792,1.766,2.755,1.766s2.755,0,2.755-1.766
		C10.755,10.567,10.39,9.854,9.773,9.371z M8,12.103c-1.511,0-1.755-0.226-1.755-0.766c0-0.579,0.359-1.11,0.937-1.388l0.67-0.322
		L7.301,9.128C7.075,8.923,6.95,8.647,6.95,8.352c0-0.579,0.471-1.05,1.05-1.05s1.05,0.471,1.05,1.05
		c0,0.295-0.124,0.571-0.351,0.776L8.148,9.627l0.67,0.322c0.578,0.277,0.937,0.809,0.937,1.388C9.755,11.877,9.511,12.103,8,12.103
		z"/>
</g>
</svg>
