<?xml version="1.0" encoding="utf-8"?>
<!-- Generator: Adobe Illustrator 17.0.0, SVG Export Plug-In . SVG Version: 6.00 Build 0)  -->
<!DOCTYPE svg PUBLIC "-//W3C//DTD SVG 1.1//EN" "http://www.w3.org/Graphics/SVG/1.1/DTD/svg11.dtd">
<svg version="1.1" id="图层_1" xmlns="http://www.w3.org/2000/svg" xmlns:xlink="http://www.w3.org/1999/xlink" x="0px" y="0px"
	 width="16px" height="16px" viewBox="0 0 16 16" enable-background="new 0 0 16 16" xml:space="preserve">
<g>
	<g>
		<path fill="#515151" d="M4.312,12.814c-0.013,0-0.026,0-0.039-0.002c-0.917-0.07-3.353-0.259-3.353-2.852
			c0-1.448,0.76-2.783,2.022-3.609c-0.44-0.589-0.685-1.306-0.685-2.042c0-1.894,1.541-3.434,3.434-3.434
			c1.894,0,3.434,1.541,3.434,3.434c0,0.737-0.244,1.453-0.685,2.042c1.261,0.826,2.021,2.16,2.021,3.609c0,0.276-0.224,0.5-0.5,0.5
			s-0.5-0.224-0.5-0.5c0-1.269-0.777-2.43-2.028-3.031C7.285,6.857,7.18,6.715,7.157,6.55C7.133,6.386,7.192,6.22,7.316,6.108
			c0.522-0.472,0.81-1.11,0.81-1.799c0-1.342-1.092-2.434-2.434-2.434c-1.342,0-2.434,1.092-2.434,2.434
			c0,0.688,0.287,1.327,0.809,1.799C4.19,6.22,4.25,6.386,4.226,6.55C4.203,6.715,4.098,6.857,3.948,6.93
			C2.697,7.531,1.92,8.692,1.92,9.961c0,1.216,0.659,1.718,2.43,1.855c0.275,0.021,0.481,0.262,0.46,0.536
			C4.789,12.615,4.571,12.814,4.312,12.814z"/>
	</g>
	<g>
		<path fill="#515151" d="M11.266,15.125c-0.156,0-0.304-0.072-0.398-0.198l-3.506-4.63l-1.333,2.76
			c-0.12,0.249-0.417,0.354-0.668,0.232c-0.249-0.12-0.353-0.419-0.232-0.668l1.689-3.495C6.892,8.97,7.044,8.863,7.217,8.847
			C7.392,8.828,7.56,8.903,7.665,9.042l3.522,4.65l2.949-5.673c0.127-0.246,0.431-0.339,0.674-0.213
			c0.245,0.127,0.341,0.429,0.213,0.674l-3.313,6.375c-0.079,0.152-0.23,0.253-0.401,0.268
			C11.294,15.124,11.28,15.125,11.266,15.125z"/>
	</g>
</g>
</svg>
