<?xml version="1.0" encoding="utf-8"?>
<!-- Generator: Adobe Illustrator 17.0.0, SVG Export Plug-In . SVG Version: 6.00 Build 0)  -->
<!DOCTYPE svg PUBLIC "-//W3C//DTD SVG 1.1//EN" "http://www.w3.org/Graphics/SVG/1.1/DTD/svg11.dtd">
<svg version="1.1" id="图层_1" xmlns="http://www.w3.org/2000/svg" xmlns:xlink="http://www.w3.org/1999/xlink" x="0px" y="0px"
	 width="16px" height="16px" viewBox="0 0 16 16" enable-background="new 0 0 16 16" xml:space="preserve">
<g>
	<g>
		<g>
			<path fill="#535455" d="M8,14.56c-3.617,0-6.56-2.942-6.56-6.56S4.383,1.44,8,1.44S14.56,4.383,14.56,8
				c0,0.276-0.224,0.5-0.5,0.5s-0.5-0.224-0.5-0.5c0-3.065-2.494-5.56-5.56-5.56S2.44,4.935,2.44,8S4.935,13.56,8,13.56
				c0.276,0,0.5,0.224,0.5,0.5S8.276,14.56,8,14.56z"/>
		</g>
		<g>
			<path fill="#535455" d="M8,14.56c-1.797,0-3.152-2.82-3.152-6.56S6.203,1.44,8,1.44c1.798,0,3.153,2.82,3.153,6.56
				c0,0.276-0.224,0.5-0.5,0.5s-0.5-0.224-0.5-0.5c0-3.276-1.135-5.56-2.153-5.56C6.982,2.44,5.848,4.724,5.848,8
				S6.982,13.56,8,13.56c0.276,0,0.5,0.224,0.5,0.5S8.276,14.56,8,14.56z"/>
		</g>
		<g>
			<path fill="#535455" d="M13.3,6.521H2.474c-0.276,0-0.5-0.224-0.5-0.5s0.224-0.5,0.5-0.5H13.3c0.276,0,0.5,0.224,0.5,0.5
				S13.576,6.521,13.3,6.521z"/>
		</g>
		<g>
			<path fill="#535455" d="M8.791,10.771H2.734c-0.276,0-0.5-0.224-0.5-0.5s0.224-0.5,0.5-0.5h6.057c0.276,0,0.5,0.224,0.5,0.5
				S9.067,10.771,8.791,10.771z"/>
		</g>
	</g>
	<g>
		<g>
			<path fill="#535455" d="M14.031,12.312H9.537c-0.276,0-0.5-0.224-0.5-0.5s0.224-0.5,0.5-0.5h4.494c0.276,0,0.5,0.224,0.5,0.5
				S14.308,12.312,14.031,12.312z"/>
		</g>
		<g>
			<path fill="#535455" d="M11.784,14.56c-0.276,0-0.5-0.224-0.5-0.5V9.564c0-0.276,0.224-0.5,0.5-0.5s0.5,0.224,0.5,0.5v4.495
				C12.284,14.336,12.061,14.56,11.784,14.56z"/>
		</g>
	</g>
</g>
</svg>
