<?xml version="1.0" encoding="utf-8"?>
<!-- Generator: Adobe Illustrator 17.0.0, SVG Export Plug-In . SVG Version: 6.00 Build 0)  -->
<!DOCTYPE svg PUBLIC "-//W3C//DTD SVG 1.1//EN" "http://www.w3.org/Graphics/SVG/1.1/DTD/svg11.dtd">
<svg version="1.1" id="图层_1" xmlns="http://www.w3.org/2000/svg" xmlns:xlink="http://www.w3.org/1999/xlink" x="0px" y="0px"
	 width="16px" height="16px" viewBox="0 0 16 16" enable-background="new 0 0 16 16" xml:space="preserve">
<g>
	<path fill="#535455" d="M12.654,1.841H3.346c-1.079,0-1.956,0.877-1.956,1.956v6.032c0,1.078,0.877,1.956,1.956,1.956h3.27v1.375
		H3.812c-0.276,0-0.5,0.224-0.5,0.5s0.224,0.5,0.5,0.5h8.525c0.276,0,0.5-0.224,0.5-0.5s-0.224-0.5-0.5-0.5H9.385v-1.375h3.27
		c1.078,0,1.956-0.878,1.956-1.956V3.796C14.61,2.718,13.732,1.841,12.654,1.841z M8.385,13.159h-0.77v-1.375h0.77V13.159z
		 M13.61,9.828c0,0.527-0.429,0.956-0.956,0.956H3.346c-0.527,0-0.956-0.429-0.956-0.956V3.796c0-0.527,0.429-0.956,0.956-0.956
		h9.309c0.527,0,0.956,0.429,0.956,0.956V9.828z"/>
	<path fill="#535455" d="M10.247,6.208H8.5V4.461c0-0.276-0.224-0.5-0.5-0.5s-0.5,0.224-0.5,0.5v1.747H5.753
		c-0.276,0-0.5,0.224-0.5,0.5s0.224,0.5,0.5,0.5H7.5v1.747c0,0.276,0.224,0.5,0.5,0.5s0.5-0.224,0.5-0.5V7.208h1.747
		c0.276,0,0.5-0.224,0.5-0.5S10.523,6.208,10.247,6.208z"/>
</g>
</svg>
