<?xml version="1.0" encoding="utf-8"?>
<!-- Generator: Adobe Illustrator 17.0.0, SVG Export Plug-In . SVG Version: 6.00 Build 0)  -->
<!DOCTYPE svg PUBLIC "-//W3C//DTD SVG 1.1//EN" "http://www.w3.org/Graphics/SVG/1.1/DTD/svg11.dtd">
<svg version="1.1" id="图层_1" xmlns="http://www.w3.org/2000/svg" xmlns:xlink="http://www.w3.org/1999/xlink" x="0px" y="0px"
	 width="16px" height="16px" viewBox="0 0 16 16" enable-background="new 0 0 16 16" xml:space="preserve">
<g>
	<g>
		<path fill="#535455" d="M11.312,2.544c0.451,0,0.818,0.367,0.818,0.818v9.277c0,0.451-0.367,0.818-0.818,0.818H4.688
			c-0.451,0-0.818-0.367-0.818-0.818V3.361c0-0.451,0.367-0.818,0.818-0.818H11.312 M11.312,1.544H4.688
			c-1.004,0-1.818,0.814-1.818,1.818v9.277c0,1.004,0.814,1.818,1.818,1.818h6.625c1.004,0,1.818-0.814,1.818-1.818V3.361
			C13.13,2.358,12.316,1.544,11.312,1.544L11.312,1.544z"/>
	</g>
	<g>
		<path fill="#535455" d="M12.347,11.794H3.691c-0.276,0-0.5-0.224-0.5-0.5s0.224-0.5,0.5-0.5h8.656c0.276,0,0.5,0.224,0.5,0.5
			S12.623,11.794,12.347,11.794z"/>
	</g>
	<g>
		<g>
			<path fill="#535455" d="M10.247,7.208H5.753c-0.276,0-0.5-0.224-0.5-0.5s0.224-0.5,0.5-0.5h4.494c0.276,0,0.5,0.224,0.5,0.5
				S10.523,7.208,10.247,7.208z"/>
		</g>
		<g>
			<path fill="#535455" d="M8,9.455c-0.276,0-0.5-0.224-0.5-0.5V4.461c0-0.276,0.224-0.5,0.5-0.5s0.5,0.224,0.5,0.5v4.494
				C8.5,9.232,8.276,9.455,8,9.455z"/>
		</g>
	</g>
</g>
</svg>
