<?xml version="1.0" encoding="utf-8"?>
<!-- Generator: Adobe Illustrator 17.0.0, SVG Export Plug-In . SVG Version: 6.00 Build 0)  -->
<!DOCTYPE svg PUBLIC "-//W3C//DTD SVG 1.1//EN" "http://www.w3.org/Graphics/SVG/1.1/DTD/svg11.dtd">
<svg version="1.1" id="图层_1" xmlns="http://www.w3.org/2000/svg" xmlns:xlink="http://www.w3.org/1999/xlink" x="0px" y="0px"
	 width="16px" height="16px" viewBox="0 0 16 16" enable-background="new 0 0 16 16" xml:space="preserve">
<path fill="#535455" d="M14.91,13.545L8.22,1.895c-0.195-0.195-0.512-0.195-0.707,0L1.07,13.545c-0.127,0.232-0.184,0.707,0,0.707
	h13.84C15.094,14.252,15.094,13.892,14.91,13.545z M8.925,12.692c0,0.267-0.216,0.483-0.483,0.483H7.401
	c-0.267,0-0.483-0.216-0.483-0.483v-0.83c0-0.267,0.216-0.483,0.483-0.483h1.041c0.267,0,0.483,0.216,0.483,0.483V12.692z
	 M8.925,10.369c0,0.267-0.216,0.483-0.483,0.483H7.401c-0.267,0-0.483-0.216-0.483-0.483V4.954c0-0.267,0.216-0.483,0.483-0.483
	h1.041c0.267,0,0.483,0.216,0.483,0.483V10.369z"/>
</svg>
