<?xml version="1.0" encoding="utf-8"?>
<!-- Generator: Adobe Illustrator 17.0.0, SVG Export Plug-In . SVG Version: 6.00 Build 0)  -->
<!DOCTYPE svg PUBLIC "-//W3C//DTD SVG 1.1//EN" "http://www.w3.org/Graphics/SVG/1.1/DTD/svg11.dtd">
<svg version="1.1" id="图层_1" xmlns="http://www.w3.org/2000/svg" xmlns:xlink="http://www.w3.org/1999/xlink" x="0px" y="0px"
	 width="16px" height="16px" viewBox="0 0 16 16" enable-background="new 0 0 16 16" xml:space="preserve">
<g>
	<path fill="#ACADB0" d="M10.31,6.709H5.692v0.983v2.519v0.569c0,0.305,0.255,0.552,0.569,0.552h3.482
		c0.314,0,0.569-0.248,0.569-0.552v-2.1l-0.004-1V6.709z"/>
	<path fill="#ACADB0" d="M4.422,6.709c-0.09,0-0.163,0.069-0.163,0.155v2.572c0,0.172,0.325,0.173,0.325,0V6.865
		C4.584,6.779,4.512,6.709,4.422,6.709z"/>
	<path fill="#ACADB0" d="M8.003,4.126c-1.028,0-1.891,0.668-2.19,1.584h4.38C9.894,4.794,9.031,4.126,8.003,4.126z M7.672,5.132
		c0,0.276-0.224,0.5-0.5,0.5s-0.5-0.224-0.5-0.5V5.013c0-0.276,0.224-0.5,0.5-0.5s0.5,0.224,0.5,0.5V5.132z M9.262,5.132
		c0,0.276-0.224,0.5-0.5,0.5s-0.5-0.224-0.5-0.5V5.013c0-0.276,0.224-0.5,0.5-0.5s0.5,0.224,0.5,0.5V5.132z"/>
	<path fill="#ACADB0" d="M11.578,6.709c-0.089,0-0.162,0.069-0.162,0.155v2.572c0,0.172,0.325,0.172,0.325,0V6.865
		C11.74,6.779,11.667,6.709,11.578,6.709z"/>
	<path fill="#ACADB0" d="M13.104,0.896H2.896c-1.105,0-2,0.895-2,2v10.208c0,1.105,0.895,2,2,2h10.208c1.105,0,2-0.895,2-2V2.896
		C15.104,1.791,14.209,0.896,13.104,0.896z M12.74,9.437c0,0.637-0.521,1.155-1.163,1.155c-0.094,0-0.177-0.032-0.264-0.053v0.241
		c0,0.778-0.58,1.416-1.335,1.529v0.876c0,0.276-0.224,0.5-0.5,0.5s-0.5-0.224-0.5-0.5v-0.853h-1.87v0.853
		c0,0.276-0.224,0.5-0.5,0.5s-0.5-0.224-0.5-0.5v-0.868c-0.794-0.077-1.416-0.732-1.416-1.537v-0.242
		c-0.089,0.022-0.174,0.054-0.27,0.054c-0.641,0-1.163-0.519-1.163-1.155V6.865c0-0.637,0.521-1.155,1.163-1.155
		c0.118,0,0.226,0.034,0.333,0.067c0.133-0.681,0.48-1.282,0.968-1.742L4.851,3.17C4.654,2.976,4.652,2.659,4.847,2.463
		c0.194-0.195,0.511-0.198,0.707-0.004l1.014,1.003c0.436-0.209,0.919-0.336,1.436-0.336c0.517,0,1,0.127,1.436,0.336l1.014-1.003
		c0.196-0.194,0.513-0.191,0.707,0.004c0.194,0.196,0.192,0.513-0.004,0.707l-0.873,0.864c0.488,0.46,0.835,1.061,0.968,1.741
		c0.106-0.032,0.212-0.066,0.328-0.066c0.641,0,1.163,0.519,1.163,1.155V9.437z"/>
</g>
</svg>
