<?xml version="1.0" encoding="utf-8"?>
<!-- Generator: Adobe Illustrator 17.0.0, SVG Export Plug-In . SVG Version: 6.00 Build 0)  -->
<!DOCTYPE svg PUBLIC "-//W3C//DTD SVG 1.1//EN" "http://www.w3.org/Graphics/SVG/1.1/DTD/svg11.dtd">
<svg version="1.1" id="图层_1" xmlns="http://www.w3.org/2000/svg" xmlns:xlink="http://www.w3.org/1999/xlink" x="0px" y="0px"
	 width="16px" height="16px" viewBox="0 0 16 16" enable-background="new 0 0 16 16" xml:space="preserve">
<g>
	<path fill="#535455" d="M12.312,1.156H5.688c-1.004,0-1.818,0.814-1.818,1.818v8.277c0,1.004,0.814,1.818,1.818,1.818h6.625
		c1.004,0,1.818-0.814,1.818-1.818V2.974C14.13,1.97,13.316,1.156,12.312,1.156z M13.13,11.251c0,0.451-0.367,0.818-0.818,0.818
		H5.688c-0.451,0-0.818-0.367-0.818-0.818V2.974c0-0.451,0.367-0.818,0.818-0.818h6.625c0.451,0,0.818,0.367,0.818,0.818V11.251z"/>
	<path fill="#535455" d="M11.812,13.844H4.187c-0.727,0-1.317-0.591-1.317-1.317V4.25c0-0.276-0.224-0.5-0.5-0.5s-0.5,0.224-0.5,0.5
		v8.277c0,1.277,1.04,2.317,2.317,2.317h7.625c0.276,0,0.5-0.224,0.5-0.5S12.088,13.844,11.812,13.844z"/>
	<path fill="#535455" d="M9,3.568c-0.276,0-0.5,0.224-0.5,0.5v0.363c0,0.276,0.224,0.5,0.5,0.5s0.5-0.224,0.5-0.5V4.068
		C9.5,3.792,9.277,3.568,9,3.568z"/>
	<path fill="#535455" d="M9,5.698c-0.276,0-0.5,0.224-0.5,0.5v3.74c0,0.276,0.224,0.5,0.5,0.5s0.5-0.224,0.5-0.5v-3.74
		C9.5,5.922,9.277,5.698,9,5.698z"/>
</g>
</svg>
