<?xml version="1.0" encoding="utf-8"?>
<!-- Generator: Adobe Illustrator 17.0.0, SVG Export Plug-In . SVG Version: 6.00 Build 0)  -->
<!DOCTYPE svg PUBLIC "-//W3C//DTD SVG 1.1//EN" "http://www.w3.org/Graphics/SVG/1.1/DTD/svg11.dtd">
<svg version="1.1" id="图层_1" xmlns="http://www.w3.org/2000/svg" xmlns:xlink="http://www.w3.org/1999/xlink" x="0px" y="0px"
	 width="16px" height="16px" viewBox="0 0 16 16" enable-background="new 0 0 16 16" xml:space="preserve">
<path fill="#525151" d="M12.125,0.896H3.792c-1.105,0-2,0.895-2,2v10.208c0,1.105,0.895,2,2,2h8.333c1.105,0,2-0.895,2-2V2.896
	C14.125,1.791,13.229,0.896,12.125,0.896z M10.202,1.896c-0.029,0.802-0.686,1.446-1.494,1.446H7.333
	c-0.809,0-1.465-0.644-1.495-1.446H10.202z M13.125,13.104c0,0.551-0.449,1-1,1h-0.75V8.625c0-0.276-0.224-0.5-0.5-0.5
	s-0.5,0.224-0.5,0.5v5.479H8.5V5.75c0-0.276-0.224-0.5-0.5-0.5c-0.276,0-0.5,0.224-0.5,0.5v8.354H5.625V6.917
	c0-0.276-0.224-0.5-0.5-0.5s-0.5,0.224-0.5,0.5v7.187H3.792c-0.551,0-1-0.449-1-1V2.896c0-0.551,0.449-1,1-1h1.047
	c0.029,1.353,1.135,2.446,2.495,2.446h1.375c1.36,0,2.465-1.093,2.494-2.446h0.923c0.551,0,1,0.449,1,1V13.104z"/>
</svg>
