<?xml version="1.0" encoding="utf-8"?>
<!-- Generator: Adobe Illustrator 17.0.0, SVG Export Plug-In . SVG Version: 6.00 Build 0)  -->
<!DOCTYPE svg PUBLIC "-//W3C//DTD SVG 1.1//EN" "http://www.w3.org/Graphics/SVG/1.1/DTD/svg11.dtd">
<svg version="1.1" id="图层_1" xmlns="http://www.w3.org/2000/svg" xmlns:xlink="http://www.w3.org/1999/xlink" x="0px" y="0px"
	 width="16px" height="16px" viewBox="0 0 16 16" enable-background="new 0 0 16 16" xml:space="preserve">
<g>
	<path fill="#515151" d="M12.522,1.831c-1.479,0-4.345-0.885-4.373-0.894L8,0.891L7.852,0.937C7.823,0.946,4.953,1.831,3.491,1.831
		c-1.603,0-1.603,1.572-1.603,2.328v5.653c0,1.386,4.513,5.297,6.112,5.297c1.485,0,6.111-4.01,6.111-5.297V4.159
		C14.112,3.345,14.112,1.831,12.522,1.831z M8,14.109c-1.143,0-5.005-3.458-5.112-4.297V4.159c0-1.266,0.218-1.328,0.603-1.328
		c1.427,0,3.876-0.705,4.509-0.894c0.632,0.189,3.079,0.894,4.521,0.894c0.388,0,0.59,0.059,0.59,1.328l0.001,5.641
		C12.98,10.686,8.919,14.109,8,14.109z"/>
	<path fill="#515151" d="M10.681,5.831C10.681,4.353,9.479,3.15,8,3.15S5.319,4.353,5.319,5.831c0,1.307,0.941,2.395,2.181,2.63
		v3.144c0,0.276,0.224,0.5,0.5,0.5s0.5-0.224,0.5-0.5v-1.297h1.179c0.276,0,0.5-0.224,0.5-0.5s-0.224-0.5-0.5-0.5H8.5V8.461
		C9.74,8.225,10.681,7.138,10.681,5.831z M6.319,5.831C6.319,4.904,7.073,4.15,8,4.15s1.681,0.754,1.681,1.681S8.927,7.511,8,7.511
		S6.319,6.757,6.319,5.831z"/>
</g>
</svg>
