<?xml version="1.0" encoding="utf-8"?>
<!-- Generator: Adobe Illustrator 17.0.0, SVG Export Plug-In . SVG Version: 6.00 Build 0)  -->
<!DOCTYPE svg PUBLIC "-//W3C//DTD SVG 1.1//EN" "http://www.w3.org/Graphics/SVG/1.1/DTD/svg11.dtd">
<svg version="1.1" id="图层_1" xmlns="http://www.w3.org/2000/svg" xmlns:xlink="http://www.w3.org/1999/xlink" x="0px" y="0px"
	 width="16px" height="16px" viewBox="0 0 16 16" enable-background="new 0 0 16 16" xml:space="preserve">
<path fill="#515151" d="M11.29,4.868H4.086l2.189-2.205c0.194-0.196,0.193-0.512-0.003-0.707C6.077,1.762,5.759,1.762,5.565,1.959
	L2.21,5.339l3.355,3.379C5.662,8.817,5.791,8.866,5.92,8.866c0.127,0,0.255-0.048,0.352-0.145C6.468,8.526,6.469,8.21,6.275,8.014
	l-2.13-2.146h7.146c0.827,0,1.5,0.673,1.5,1.5v4.321c0,0.827-0.673,1.5-1.5,1.5H3.927c-0.276,0-0.5,0.224-0.5,0.5s0.224,0.5,0.5,0.5
	h7.363c1.379,0,2.5-1.121,2.5-2.5V7.368C13.79,5.989,12.669,4.868,11.29,4.868z"/>
</svg>
