<?xml version="1.0" encoding="utf-8"?>
<!-- Generator: Adobe Illustrator 17.0.0, SVG Export Plug-In . SVG Version: 6.00 Build 0)  -->
<!DOCTYPE svg PUBLIC "-//W3C//DTD SVG 1.1//EN" "http://www.w3.org/Graphics/SVG/1.1/DTD/svg11.dtd">
<svg version="1.1" id="图层_1" xmlns="http://www.w3.org/2000/svg" xmlns:xlink="http://www.w3.org/1999/xlink" x="0px" y="0px"
	 width="200px" height="200px" viewBox="0 0 200 200" enable-background="new 0 0 200 200" xml:space="preserve">
<path fill="#040000" d="M199.278,100c0-54.83-44.448-99.278-99.278-99.278S0.722,45.17,0.722,100S45.17,199.278,100,199.278
	S199.278,154.83,199.278,100z M153.531,122.506c-2.343,3.077-6.735,3.671-9.81,1.328L100,90.534l-43.72,33.3
	c-3.075,2.341-7.467,1.747-9.81-1.328c-2.342-3.075-1.748-7.467,1.328-9.81l47.961-36.53c1.252-0.954,2.747-1.432,4.241-1.432
	s2.989,0.478,4.241,1.432l47.962,36.53C155.279,115.039,155.873,119.431,153.531,122.506z"/>
</svg>
