<?xml version="1.0" encoding="utf-8"?>
<!-- Generator: Adobe Illustrator 17.0.0, SVG Export Plug-In . SVG Version: 6.00 Build 0)  -->
<!DOCTYPE svg PUBLIC "-//W3C//DTD SVG 1.1//EN" "http://www.w3.org/Graphics/SVG/1.1/DTD/svg11.dtd">
<svg version="1.1" id="图层_1" xmlns="http://www.w3.org/2000/svg" xmlns:xlink="http://www.w3.org/1999/xlink" x="0px" y="0px"
	 width="200px" height="200px" viewBox="0 0 200 200" enable-background="new 0 0 200 200" xml:space="preserve">
<path fill="#040000" d="M100,0.722C45.17,0.722,0.722,45.17,0.722,100S45.17,199.278,100,199.278S199.278,154.83,199.278,100
	S154.83,0.722,100,0.722z M152.203,87.304l-47.962,36.53c-1.252,0.954-2.747,1.432-4.241,1.432s-2.989-0.478-4.241-1.432
	l-47.961-36.53c-3.076-2.343-3.67-6.735-1.328-9.81c2.343-3.075,6.735-3.669,9.81-1.328l43.72,33.3l43.721-33.3
	c3.075-2.343,7.467-1.749,9.81,1.328C155.873,80.569,155.279,84.961,152.203,87.304z"/>
</svg>
