<?xml version="1.0" encoding="utf-8"?>
<!-- Generator: Adobe Illustrator 17.0.0, SVG Export Plug-In . SVG Version: 6.00 Build 0)  -->
<!DOCTYPE svg PUBLIC "-//W3C//DTD SVG 1.1//EN" "http://www.w3.org/Graphics/SVG/1.1/DTD/svg11.dtd">
<svg version="1.1" id="图层_1" xmlns="http://www.w3.org/2000/svg" xmlns:xlink="http://www.w3.org/1999/xlink" x="0px" y="0px"
	 width="16px" height="16px" viewBox="0 0 16 16" enable-background="new 0 0 16 16" xml:space="preserve">
<g>
	<path fill="#515151" d="M3.326,9.615c-1.152,0-2.085,0.934-2.085,2.085s0.934,2.085,2.085,2.085c1.152,0,2.085-0.934,2.085-2.085
		S4.477,9.615,3.326,9.615z M3.326,12.785c-0.598,0-1.085-0.487-1.085-1.085c0-0.598,0.486-1.085,1.085-1.085
		c0.598,0,1.085,0.487,1.085,1.085C4.412,12.298,3.925,12.785,3.326,12.785z"/>
	<path fill="#515151" d="M12.673,9.615c-1.152,0-2.085,0.934-2.085,2.085s0.934,2.085,2.085,2.085s2.085-0.934,2.085-2.085
		S13.826,9.615,12.673,9.615z M12.673,12.785c-0.598,0-1.085-0.487-1.085-1.085c0-0.598,0.487-1.085,1.085-1.085
		c0.598,0,1.085,0.487,1.085,1.085C13.759,12.298,13.272,12.785,12.673,12.785z"/>
	<path fill="#515151" d="M2.896,9.066C2.887,8.948,2.878,8.83,2.878,8.71c0-1.854,1.011-3.563,2.638-4.461
		c0.242-0.134,0.33-0.438,0.196-0.68c-0.133-0.242-0.438-0.329-0.68-0.196C3.086,4.447,1.878,6.492,1.878,8.71
		c0,0.146,0.01,0.289,0.022,0.446L2.896,9.066z"/>
	<path fill="#515151" d="M10.426,4.25c1.626,0.897,2.637,2.607,2.637,4.461c0,0.088-0.006,0.176-0.012,0.263
		c0,0.001-0.006,0.083-0.006,0.084c-0.017,0.275,0.194,0.472,0.47,0.489c0.009,0.001,0.019,0.001,0.027,0.001
		c0.264,0,0.488-0.241,0.506-0.507c0.008-0.109,0.015-0.22,0.015-0.33c0-2.218-1.209-4.263-3.154-5.337
		c-0.239-0.133-0.546-0.046-0.679,0.196C10.095,3.812,10.183,4.116,10.426,4.25z"/>
	<path fill="#515151" d="M10.41,13.182c-1.474,0.808-3.361,0.815-4.85,0.016c-0.242-0.129-0.546-0.039-0.677,0.203
		c-0.131,0.244-0.04,0.547,0.204,0.678c0.883,0.475,1.879,0.726,2.883,0.726c1.021,0,2.03-0.258,2.921-0.745
		c0.242-0.133,0.331-0.437,0.198-0.679C10.955,13.137,10.651,13.05,10.41,13.182z"/>
	<path fill="#515151" d="M7.969,5.366c1.152,0,2.085-0.934,2.085-2.085S9.121,1.196,7.969,1.196c-1.152,0-2.085,0.934-2.085,2.085
		S6.818,5.366,7.969,5.366z M7.969,2.196c0.598,0,1.085,0.487,1.085,1.085c0,0.598-0.487,1.085-1.085,1.085
		c-0.598,0-1.085-0.487-1.085-1.085C6.884,2.683,7.371,2.196,7.969,2.196z"/>
</g>
</svg>
