<?xml version="1.0" encoding="utf-8"?>
<!-- Generator: Adobe Illustrator 17.0.0, SVG Export Plug-In . SVG Version: 6.00 Build 0)  -->
<!DOCTYPE svg PUBLIC "-//W3C//DTD SVG 1.1//EN" "http://www.w3.org/Graphics/SVG/1.1/DTD/svg11.dtd">
<svg version="1.1" id="图层_1" xmlns="http://www.w3.org/2000/svg" xmlns:xlink="http://www.w3.org/1999/xlink" x="0px" y="0px"
	 width="16px" height="16px" viewBox="0 0 16 16" enable-background="new 0 0 16 16" xml:space="preserve">
<g>
	<path fill="#535455" d="M13.806,3.727c0-0.325-0.27-0.594-0.602-0.6l-0.307-0.005c-0.011,0-1.156-0.026-2.331-0.487
		c-1.173-0.46-1.945-0.983-2.03-1.041L8.356,1.468C8.152,1.321,7.851,1.321,7.642,1.467L7.46,1.595
		C7.452,1.6,6.653,2.156,5.431,2.635c-1.173,0.461-2.318,0.487-2.33,0.487L2.792,3.127c-0.331,0.006-0.6,0.275-0.6,0.6V8.8
		c0,2.898,3.726,5.842,5.807,5.842c2.082,0,5.809-2.944,5.809-5.842L13.806,3.727z M7.999,13.892c-1.758,0-5.057-2.697-5.057-5.092
		V3.875l0.165-0.002c0.012,0,1.286-0.023,2.598-0.539c1.317-0.517,2.178-1.119,2.186-1.125l0.107-0.075l0.113,0.079
		c0.092,0.063,0.93,0.63,2.182,1.122c1.312,0.515,2.585,0.539,2.594,0.539l0.169,0.002L13.058,8.8
		C13.058,11.195,9.758,13.892,7.999,13.892z"/>
	<path fill="#535455" d="M11.323,5.355L6.832,9.846L4.676,7.69c-0.146-0.146-0.384-0.146-0.53,0S4,8.074,4.146,8.22l2.421,2.422
		c0.07,0.07,0.166,0.109,0.265,0.109s0.195-0.039,0.265-0.109l4.757-4.757c0.146-0.146,0.146-0.384,0-0.53
		C11.708,5.209,11.47,5.209,11.323,5.355z"/>
</g>
</svg>
