<?xml version="1.0" encoding="utf-8"?>
<!-- Generator: Adobe Illustrator 17.0.0, SVG Export Plug-In . SVG Version: 6.00 Build 0)  -->
<!DOCTYPE svg PUBLIC "-//W3C//DTD SVG 1.1//EN" "http://www.w3.org/Graphics/SVG/1.1/DTD/svg11.dtd">
<svg version="1.1" id="图层_1" xmlns="http://www.w3.org/2000/svg" xmlns:xlink="http://www.w3.org/1999/xlink" x="0px" y="0px"
	 width="16px" height="16px" viewBox="0 0 16 16" enable-background="new 0 0 16 16" xml:space="preserve">
<g>
	<path fill="#535455" d="M12.167,0.899H3.833c-1.105,0-2,0.895-2,2v7.057c0,1.105,4.918,5.144,6.167,5.144
		c1.189,0,6.167-4.04,6.167-5.144V2.899C14.167,1.795,13.271,0.899,12.167,0.899z M11.836,5.688L7.675,9.849
		c-0.127,0.127-0.293,0.19-0.459,0.19s-0.333-0.063-0.459-0.19L4.164,7.258c-0.254-0.254-0.254-0.666,0-0.92s0.665-0.254,0.919,0
		L7.215,8.47l3.702-3.702c0.254-0.254,0.665-0.254,0.919,0S12.09,5.434,11.836,5.688z"/>
</g>
</svg>
