<?xml version="1.0" encoding="utf-8"?>
<!-- Generator: Adobe Illustrator 17.0.0, SVG Export Plug-In . SVG Version: 6.00 Build 0)  -->
<!DOCTYPE svg PUBLIC "-//W3C//DTD SVG 1.1//EN" "http://www.w3.org/Graphics/SVG/1.1/DTD/svg11.dtd">
<svg version="1.1" id="图层_1" xmlns="http://www.w3.org/2000/svg" xmlns:xlink="http://www.w3.org/1999/xlink" x="0px" y="0px"
	 width="16px" height="16px" viewBox="0 0 16 16" enable-background="new 0 0 16 16" xml:space="preserve">
<g>
	<path fill="#515151" d="M12.782,1.479H3.218c-0.96,0-1.739,0.779-1.739,1.739v9.564c0,0.96,0.779,1.739,1.739,1.739h9.564
		c0.96,0,1.739-0.779,1.739-1.739V3.218C14.521,2.258,13.742,1.479,12.782,1.479z M11.599,6.354l-4,4
		C7.501,10.451,7.373,10.5,7.245,10.5s-0.256-0.049-0.354-0.146L4.401,7.862c-0.195-0.195-0.195-0.512,0-0.707s0.512-0.195,0.707,0
		l2.138,2.138l3.647-3.646c0.195-0.195,0.512-0.195,0.707,0S11.795,6.158,11.599,6.354z"/>
</g>
</svg>
