<?xml version="1.0" encoding="utf-8"?>
<!-- Generator: Adobe Illustrator 17.0.0, SVG Export Plug-In . SVG Version: 6.00 Build 0)  -->
<!DOCTYPE svg PUBLIC "-//W3C//DTD SVG 1.1//EN" "http://www.w3.org/Graphics/SVG/1.1/DTD/svg11.dtd">
<svg version="1.1" id="图层_1" xmlns="http://www.w3.org/2000/svg" xmlns:xlink="http://www.w3.org/1999/xlink" x="0px" y="0px"
	 width="16px" height="16px" viewBox="0 0 16 16" enable-background="new 0 0 16 16" xml:space="preserve">
<g>
	<path fill="#535455" d="M8,0.896C4.076,0.896,0.896,4.076,0.896,8S4.076,15.104,8,15.104S15.104,11.923,15.104,8
		S11.924,0.896,8,0.896z M11.37,6.652l-3.717,3.717c-0.098,0.098-0.226,0.146-0.354,0.146s-0.256-0.049-0.354-0.146L4.63,8.054
		c-0.195-0.195-0.195-0.512,0-0.707s0.512-0.195,0.707,0l1.962,1.961l3.363-3.363c0.195-0.195,0.512-0.195,0.707,0
		S11.565,6.457,11.37,6.652z"/>
</g>
</svg>
