<?xml version="1.0" encoding="utf-8"?>
<!-- Generator: Adobe Illustrator 17.0.0, SVG Export Plug-In . SVG Version: 6.00 Build 0)  -->
<!DOCTYPE svg PUBLIC "-//W3C//DTD SVG 1.1//EN" "http://www.w3.org/Graphics/SVG/1.1/DTD/svg11.dtd">
<svg version="1.1" id="图层_1" xmlns="http://www.w3.org/2000/svg" xmlns:xlink="http://www.w3.org/1999/xlink" x="0px" y="0px"
	 width="16px" height="16px" viewBox="0 0 16 16" enable-background="new 0 0 16 16" xml:space="preserve">
<g>
	<path fill="#515151" d="M4.657,13.632c0,0.668-0.541,1.209-1.209,1.209l0,0c-0.668,0-1.209-0.541-1.209-1.209V7.285
		c0-0.668,0.541-1.209,1.209-1.209l0,0c0.668,0,1.209,0.541,1.209,1.209V13.632z"/>
	<path fill="#515151" d="M9.209,13.632c0,0.668-0.541,1.209-1.209,1.209l0,0c-0.668,0-1.209-0.541-1.209-1.209V2.368
		C6.791,1.701,7.332,1.16,8,1.16l0,0c0.668,0,1.209,0.541,1.209,1.209V13.632z"/>
	<path fill="#515151" d="M13.761,13.632c0,0.668-0.541,1.209-1.209,1.209l0,0c-0.668,0-1.209-0.541-1.209-1.209v-8.18
		c0-0.668,0.541-1.209,1.209-1.209l0,0c0.668,0,1.209,0.541,1.209,1.209V13.632z"/>
</g>
</svg>
