<?xml version="1.0" encoding="utf-8"?>
<!-- Generator: Adobe Illustrator 17.0.0, SVG Export Plug-In . SVG Version: 6.00 Build 0)  -->
<!DOCTYPE svg PUBLIC "-//W3C//DTD SVG 1.1//EN" "http://www.w3.org/Graphics/SVG/1.1/DTD/svg11.dtd">
<svg version="1.1" id="图层_1" xmlns="http://www.w3.org/2000/svg" xmlns:xlink="http://www.w3.org/1999/xlink" x="0px" y="0px"
	 width="16px" height="16px" viewBox="0 0 16 16" enable-background="new 0 0 16 16" xml:space="preserve">
<path fill="#515151" d="M13.6,6.749V3.406c0-1.378-1.121-2.5-2.5-2.5H4.927c-1.379,0-2.5,1.122-2.5,2.5V6.74
	C1.559,6.954,0.911,7.734,0.911,8.667v1.625c0,1.097,0.893,1.989,1.989,1.989s1.989-0.893,1.989-1.989V8.667
	c0-0.913-0.622-1.677-1.462-1.91V3.406c0-0.827,0.673-1.5,1.5-1.5H11.1c0.827,0,1.5,0.673,1.5,1.5v3.342
	c-0.855,0.223-1.49,0.995-1.49,1.918v1.625c0,0.9,0.605,1.653,1.426,1.898c-0.179,0.628-0.752,1.091-1.436,1.091h-1.033
	c-0.176-0.577-0.706-1-1.339-1H8.311c-0.775,0-1.406,0.631-1.406,1.406s0.631,1.406,1.406,1.406h0.417
	c0.562,0,1.045-0.334,1.27-0.812H11.1c1.227,0,2.245-0.89,2.455-2.058c0.877-0.207,1.534-0.992,1.534-1.932V8.667
	C15.089,7.744,14.454,6.972,13.6,6.749z M3.889,8.667v1.625c0,0.546-0.443,0.989-0.989,0.989s-0.989-0.443-0.989-0.989V8.667
	c0-0.546,0.443-0.99,0.989-0.99S3.889,8.121,3.889,8.667z M8.728,14.094H8.311c-0.224,0-0.406-0.183-0.406-0.406
	s0.183-0.406,0.406-0.406h0.417c0.224,0,0.406,0.183,0.406,0.406S8.952,14.094,8.728,14.094z M14.089,10.292
	c0,0.546-0.443,0.989-0.989,0.989s-0.99-0.443-0.99-0.989V8.667c0-0.546,0.444-0.99,0.99-0.99s0.989,0.444,0.989,0.99V10.292z"/>
</svg>
