<?xml version="1.0" encoding="utf-8"?>
<!-- Generator: Adobe Illustrator 17.0.0, SVG Export Plug-In . SVG Version: 6.00 Build 0)  -->
<!DOCTYPE svg PUBLIC "-//W3C//DTD SVG 1.1//EN" "http://www.w3.org/Graphics/SVG/1.1/DTD/svg11.dtd">
<svg version="1.1" id="图层_1" xmlns="http://www.w3.org/2000/svg" xmlns:xlink="http://www.w3.org/1999/xlink" x="0px" y="0px"
	 width="16px" height="16px" viewBox="0 0 16 16" enable-background="new 0 0 16 16" xml:space="preserve">
<g>
	<g>
		<path fill="#535455" d="M13.656,4.499H6.989c-0.276,0-0.5-0.224-0.5-0.5s0.224-0.5,0.5-0.5h6.667c0.276,0,0.5,0.224,0.5,0.5
			S13.932,4.499,13.656,4.499z"/>
	</g>
	<g>
		<path fill="#535455" d="M13.656,8.616H6.989c-0.276,0-0.5-0.224-0.5-0.5s0.224-0.5,0.5-0.5h6.667c0.276,0,0.5,0.224,0.5,0.5
			S13.932,8.616,13.656,8.616z"/>
	</g>
	<g>
		<path fill="#535455" d="M13.656,12.847H6.989c-0.276,0-0.5-0.224-0.5-0.5s0.224-0.5,0.5-0.5h6.667c0.276,0,0.5,0.224,0.5,0.5
			S13.932,12.847,13.656,12.847z"/>
	</g>
	<g>
		<path fill="#535455" d="M3.922,5.952c-0.337,0-0.653-0.131-0.891-0.37L2.214,4.765C1.976,4.528,1.844,4.211,1.844,3.874
			s0.131-0.653,0.369-0.891l0.797-0.797c0.476-0.477,1.307-0.476,1.782,0L5.61,3.003c0.238,0.237,0.369,0.554,0.369,0.891
			S5.848,4.547,5.61,4.785L4.813,5.582C4.575,5.821,4.259,5.952,3.922,5.952z M3.902,2.817c-0.069,0-0.135,0.027-0.184,0.076
			L2.921,3.69C2.871,3.74,2.844,3.805,2.844,3.874S2.871,4.009,2.92,4.057l0.818,0.818c0.099,0.099,0.269,0.099,0.368,0l0.797-0.797
			c0.049-0.049,0.076-0.115,0.076-0.184S4.952,3.76,4.904,3.711L4.086,2.893C4.036,2.844,3.971,2.817,3.902,2.817z"/>
	</g>
	<g>
		<path fill="#535455" d="M4.49,9.94H3.334c-0.695,0-1.26-0.565-1.26-1.26V7.552c0-0.695,0.565-1.261,1.26-1.261H4.49
			c0.695,0,1.26,0.565,1.26,1.261V8.68C5.75,9.374,5.185,9.94,4.49,9.94z M3.334,7.291c-0.143,0-0.26,0.117-0.26,0.261V8.68
			c0,0.144,0.117,0.26,0.26,0.26H4.49c0.143,0,0.26-0.116,0.26-0.26V7.552c0-0.144-0.117-0.261-0.26-0.261H3.334z"/>
	</g>
	<g>
		<path fill="#535455" d="M4.49,14.171H3.334c-0.695,0-1.26-0.565-1.26-1.26v-1.128c0-0.694,0.565-1.26,1.26-1.26H4.49
			c0.695,0,1.26,0.565,1.26,1.26v1.128C5.75,13.606,5.185,14.171,4.49,14.171z M3.334,11.524c-0.143,0-0.26,0.116-0.26,0.26v1.128
			c0,0.144,0.117,0.26,0.26,0.26H4.49c0.143,0,0.26-0.116,0.26-0.26v-1.128c0-0.144-0.117-0.26-0.26-0.26H3.334z"/>
	</g>
</g>
</svg>
