<?xml version="1.0" encoding="utf-8"?>
<!-- Generator: Adobe Illustrator 17.0.0, SVG Export Plug-In . SVG Version: 6.00 Build 0)  -->
<!DOCTYPE svg PUBLIC "-//W3C//DTD SVG 1.1//EN" "http://www.w3.org/Graphics/SVG/1.1/DTD/svg11.dtd">
<svg version="1.1" id="图层_1" xmlns="http://www.w3.org/2000/svg" xmlns:xlink="http://www.w3.org/1999/xlink" x="0px" y="0px"
	 width="16px" height="16px" viewBox="0 0 16 16" enable-background="new 0 0 16 16" xml:space="preserve">
<g>
	<path fill="#535455" d="M12.577,9.428c-0.276,0-0.5,0.224-0.5,0.5v3.413c0,0.275-0.225,0.5-0.5,0.5H2.505
		c-0.276,0-0.5-0.225-0.5-0.5V7.553h3.457V4.036c0.001-0.01,0.006-0.019,0.006-0.03c0-0.276-0.224-0.5-0.5-0.5H2.505
		c-0.827,0-1.5,0.673-1.5,1.5v8.335c0,0.827,0.673,1.5,1.5,1.5h9.072c0.827,0,1.5-0.673,1.5-1.5V9.928
		C13.077,9.651,12.854,9.428,12.577,9.428z"/>
	<path fill="#535455" d="M13.495,1.159H7.431c-0.827,0-1.5,0.673-1.5,1.5v4.952c0,0.827,0.673,1.5,1.5,1.5h6.064
		c0.827,0,1.5-0.673,1.5-1.5V2.659C14.995,1.832,14.322,1.159,13.495,1.159z M13.495,8.111H7.431c-0.276,0-0.5-0.224-0.5-0.5V4.006
		h7.064v3.605C13.995,7.887,13.77,8.111,13.495,8.111z"/>
</g>
</svg>
