<?xml version="1.0" encoding="utf-8"?>
<!-- Generator: Adobe Illustrator 17.0.0, SVG Export Plug-In . SVG Version: 6.00 Build 0)  -->
<!DOCTYPE svg PUBLIC "-//W3C//DTD SVG 1.1//EN" "http://www.w3.org/Graphics/SVG/1.1/DTD/svg11.dtd">
<svg version="1.1" id="图层_1" xmlns="http://www.w3.org/2000/svg" xmlns:xlink="http://www.w3.org/1999/xlink" x="0px" y="0px"
	 width="16px" height="16px" viewBox="0 0 16 16" enable-background="new 0 0 16 16" xml:space="preserve">
<g>
	<g>
		<g>
			<path fill="#535455" d="M12.335,5.204h-5.11c-0.276,0-0.5-0.224-0.5-0.5s0.224-0.5,0.5-0.5h5.11c0.276,0,0.5,0.224,0.5,0.5
				S12.611,5.204,12.335,5.204z"/>
		</g>
		<g>
			<path fill="#535455" d="M12.335,8.594h-5.11c-0.276,0-0.5-0.224-0.5-0.5c0-0.276,0.224-0.5,0.5-0.5h5.11
				c0.276,0,0.5,0.224,0.5,0.5C12.835,8.37,12.611,8.594,12.335,8.594z"/>
		</g>
		<g>
			<path fill="#535455" d="M12.335,11.982h-5.11c-0.276,0-0.5-0.224-0.5-0.5s0.224-0.5,0.5-0.5h5.11c0.276,0,0.5,0.224,0.5,0.5
				S12.611,11.982,12.335,11.982z"/>
		</g>
		<g>
			<g>
				<path fill="#535455" d="M4.108,6.088L3.482,5.462c-0.422-0.422-0.422-1.109,0-1.531L4.093,3.32c0.422-0.422,1.109-0.422,1.531,0
					l0.627,0.627c0.422,0.422,0.422,1.109,0,1.531L5.639,6.088C5.217,6.51,4.53,6.51,4.108,6.088z M4.917,4.026
					c-0.032-0.032-0.084-0.032-0.116,0L4.189,4.638c-0.032,0.032-0.032,0.084,0,0.116l0.627,0.627c0.032,0.032,0.085,0.032,0.117,0
					L5.544,4.77c0.032-0.032,0.032-0.085,0-0.117L4.917,4.026z"/>
			</g>
		</g>
		<g>
			<path fill="#535455" d="M5.309,9.608H4.423c-0.597,0-1.082-0.485-1.082-1.083V7.661c0-0.598,0.485-1.083,1.082-1.083h0.886
				c0.597,0,1.082,0.485,1.082,1.083v0.864C6.391,9.123,5.906,9.608,5.309,9.608z M4.423,7.578c-0.045,0-0.082,0.037-0.082,0.083
				v0.864c0,0.046,0.037,0.083,0.082,0.083h0.886c0.045,0,0.083-0.037,0.083-0.083V7.661c0-0.046-0.037-0.083-0.083-0.083H4.423z"/>
		</g>
		<g>
			<path fill="#535455" d="M5.309,12.997H4.423c-0.597,0-1.082-0.485-1.082-1.082v-0.864c0-0.598,0.485-1.083,1.082-1.083h0.886
				c0.597,0,1.082,0.485,1.082,1.083v0.864C6.391,12.512,5.906,12.997,5.309,12.997z M4.423,10.968
				c-0.045,0-0.082,0.037-0.082,0.083v0.864c0,0.045,0.037,0.082,0.082,0.082h0.886c0.045,0,0.083-0.037,0.083-0.082v-0.864
				c0-0.046-0.037-0.083-0.083-0.083H4.423z"/>
		</g>
	</g>
	<g>
		<path fill="#535455" d="M12.604,2.396c0.551,0,1,0.449,1,1v9.208c0,0.551-0.449,1-1,1H3.396c-0.551,0-1-0.449-1-1V3.396
			c0-0.551,0.449-1,1-1H12.604 M12.604,1.396H3.396c-1.105,0-2,0.895-2,2v9.208c0,1.105,0.895,2,2,2h9.208c1.105,0,2-0.895,2-2
			V3.396C14.604,2.291,13.709,1.396,12.604,1.396L12.604,1.396z"/>
	</g>
</g>
</svg>
