<?xml version="1.0" encoding="utf-8"?>
<!-- Generator: Adobe Illustrator 17.0.0, SVG Export Plug-In . SVG Version: 6.00 Build 0)  -->
<!DOCTYPE svg PUBLIC "-//W3C//DTD SVG 1.1//EN" "http://www.w3.org/Graphics/SVG/1.1/DTD/svg11.dtd">
<svg version="1.1" id="图层_1" xmlns="http://www.w3.org/2000/svg" xmlns:xlink="http://www.w3.org/1999/xlink" x="0px" y="0px"
	 width="16px" height="16px" viewBox="0 0 16 16" enable-background="new 0 0 16 16" xml:space="preserve">
<g>
	<path fill="#535455" d="M13.383,2.809H9.093C8.669,2.809,8.286,2.979,8,3.25C7.714,2.979,7.33,2.809,6.906,2.809H2.616
		c-0.879,0-1.594,0.715-1.594,1.594v7.193c0,0.879,0.715,1.594,1.594,1.594h4.289c0.424,0,0.808-0.169,1.094-0.44
		c0.286,0.271,0.67,0.44,1.094,0.44h4.289c0.879,0,1.595-0.715,1.595-1.594V4.404C14.977,3.525,14.261,2.809,13.383,2.809z
		 M6.906,12.191H2.616c-0.327,0-0.594-0.267-0.594-0.594V4.404c0-0.328,0.267-0.594,0.594-0.594h4.289
		c0.328,0,0.594,0.267,0.594,0.594v7.193C7.5,11.924,7.233,12.191,6.906,12.191z M13.977,11.597c0,0.327-0.267,0.594-0.595,0.594
		H9.093c-0.327,0-0.594-0.267-0.594-0.594V4.404c0-0.328,0.267-0.594,0.594-0.594h4.289c0.328,0,0.595,0.267,0.595,0.594V11.597z"/>
	<path fill="#535455" d="M3.03,5.56h1.993c0.276,0,0.5-0.224,0.5-0.5s-0.224-0.5-0.5-0.5H3.03c-0.276,0-0.5,0.224-0.5,0.5
		S2.753,5.56,3.03,5.56z"/>
	<path fill="#535455" d="M5.965,7.873H3.03c-0.276,0-0.5,0.224-0.5,0.5c0,0.276,0.224,0.5,0.5,0.5h2.935c0.276,0,0.5-0.225,0.5-0.5
		C6.465,8.096,6.241,7.873,5.965,7.873z"/>
	<path fill="#535455" d="M5.965,9.898H3.03c-0.276,0-0.5,0.224-0.5,0.5s0.224,0.5,0.5,0.5h2.935c0.276,0,0.5-0.224,0.5-0.5
		S6.241,9.898,5.965,9.898z"/>
	<path fill="#535455" d="M9.455,5.56h1.993c0.276,0,0.5-0.224,0.5-0.5s-0.224-0.5-0.5-0.5H9.455c-0.276,0-0.5,0.224-0.5,0.5
		S9.178,5.56,9.455,5.56z"/>
	<path fill="#535455" d="M12.389,7.873H9.455c-0.276,0-0.5,0.224-0.5,0.5c0,0.276,0.224,0.5,0.5,0.5h2.935
		c0.276,0,0.5-0.225,0.5-0.5C12.889,8.096,12.666,7.873,12.389,7.873z"/>
	<path fill="#535455" d="M12.389,9.898H9.455c-0.276,0-0.5,0.224-0.5,0.5s0.224,0.5,0.5,0.5h2.935c0.276,0,0.5-0.224,0.5-0.5
		S12.666,9.898,12.389,9.898z"/>
</g>
</svg>
