<?xml version="1.0" encoding="utf-8"?>
<!-- Generator: Adobe Illustrator 17.0.0, SVG Export Plug-In . SVG Version: 6.00 Build 0)  -->
<!DOCTYPE svg PUBLIC "-//W3C//DTD SVG 1.1//EN" "http://www.w3.org/Graphics/SVG/1.1/DTD/svg11.dtd">
<svg version="1.1" id="图层_1" xmlns="http://www.w3.org/2000/svg" xmlns:xlink="http://www.w3.org/1999/xlink" x="0px" y="0px"
	 width="16px" height="16px" viewBox="0 0 16 16" enable-background="new 0 0 16 16" xml:space="preserve">
<path fill="#535455" d="M0.899,3.842v8.315c0,1.776,3.572,2.706,7.101,2.706s7.101-0.93,7.101-2.706V3.842
	C15.101,0.29,0.899,0.29,0.899,3.842z M14.101,9.255c0,0.679-2.434,1.706-6.101,1.706c-3.667,0-6.101-1.027-6.101-1.706V8.233
	C3.206,9.06,5.611,9.487,8,9.487s4.794-0.428,6.101-1.254V9.255z M14.101,6.782c0,0.679-2.434,1.706-6.101,1.706
	c-3.667,0-6.101-1.026-6.101-1.706V5.294C3.206,6.121,5.611,6.548,8,6.548s4.794-0.427,6.101-1.254V6.782z M8,2.137
	c3.667,0,6.101,1.026,6.101,1.706S11.667,5.548,8,5.548c-3.667,0-6.101-1.026-6.101-1.706S4.333,2.137,8,2.137z M8,13.863
	c-3.667,0-6.101-1.026-6.101-1.706v-1.45C3.206,11.533,5.611,11.961,8,11.961s4.794-0.427,6.101-1.254v1.45
	C14.101,12.837,11.667,13.863,8,13.863z"/>
</svg>
