<?xml version="1.0" encoding="utf-8"?>
<!-- Generator: Adobe Illustrator 17.0.0, SVG Export Plug-In . SVG Version: 6.00 Build 0)  -->
<!DOCTYPE svg PUBLIC "-//W3C//DTD SVG 1.1//EN" "http://www.w3.org/Graphics/SVG/1.1/DTD/svg11.dtd">
<svg version="1.1" id="图层_1" xmlns="http://www.w3.org/2000/svg" xmlns:xlink="http://www.w3.org/1999/xlink" x="0px" y="0px"
	 width="16px" height="16px" viewBox="0 0 16 16" enable-background="new 0 0 16 16" xml:space="preserve">
<g>
	<path fill="#515151" d="M3.992,7.213h1.91c0.276,0,0.5-0.224,0.5-0.5s-0.224-0.5-0.5-0.5h-1.91c-0.276,0-0.5,0.224-0.5,0.5
		S3.716,7.213,3.992,7.213z"/>
	<path fill="#515151" d="M3.992,9.004h1.91c0.276,0,0.5-0.224,0.5-0.5s-0.224-0.5-0.5-0.5h-1.91c-0.276,0-0.5,0.224-0.5,0.5
		S3.716,9.004,3.992,9.004z"/>
	<path fill="#515151" d="M8.641,9.796H3.992c-0.276,0-0.5,0.224-0.5,0.5s0.224,0.5,0.5,0.5h4.649c0.276,0,0.5-0.224,0.5-0.5
		S8.918,9.796,8.641,9.796z"/>
	<path fill="#515151" d="M8.641,11.587H3.992c-0.276,0-0.5,0.224-0.5,0.5s0.224,0.5,0.5,0.5h4.649c0.276,0,0.5-0.224,0.5-0.5
		S8.918,11.587,8.641,11.587z"/>
	<path fill="#515151" d="M4.117,2.921c-1.105,0-2,0.895-2,2v8.183c0,1.105,0.895,2,2,2h5c1.105,0,2-0.895,2-2V6.186L7.852,2.921
		H4.117z M7.636,4.119l2.475,2.475H9.136c-0.827,0-1.5-0.673-1.5-1.5V4.119z M9.117,14.104h-5c-0.551,0-1-0.449-1-1V4.921
		c0-0.551,0.449-1,1-1h2.519v1.173c0,1.378,1.122,2.5,2.5,2.5h0.981v5.51C10.117,13.656,9.668,14.104,9.117,14.104z"/>
	<path fill="#515151" d="M10.324,0.896H6.383c-0.617,0-1.21,0.227-1.67,0.639c-0.206,0.184-0.223,0.5-0.038,0.706
		c0.184,0.205,0.5,0.223,0.706,0.038c0.275-0.247,0.631-0.383,1.002-0.383h3.006v1.173c0,1.378,1.121,2.5,2.5,2.5h0.994v6.011
		c0,0.609-0.364,1.154-0.928,1.387c-0.256,0.105-0.377,0.397-0.271,0.652c0.079,0.193,0.266,0.31,0.462,0.31
		c0.063,0,0.128-0.012,0.19-0.038c0.939-0.388,1.547-1.295,1.547-2.311V4.454L10.324,0.896z M10.389,3.069V2.374l2.194,2.194h-0.694
		C11.062,4.569,10.389,3.896,10.389,3.069z"/>
</g>
</svg>
