<?xml version="1.0" encoding="utf-8"?>
<!-- Generator: Adobe Illustrator 17.0.0, SVG Export Plug-In . SVG Version: 6.00 Build 0)  -->
<!DOCTYPE svg PUBLIC "-//W3C//DTD SVG 1.1//EN" "http://www.w3.org/Graphics/SVG/1.1/DTD/svg11.dtd">
<svg version="1.1" id="图层_1" xmlns="http://www.w3.org/2000/svg" xmlns:xlink="http://www.w3.org/1999/xlink" x="0px" y="0px"
	 width="16px" height="16px" viewBox="0 0 16 16" enable-background="new 0 0 16 16" xml:space="preserve">
<g>
	<path fill="#535455" d="M11.944,8.544H9.62V6.22c0-0.276-0.224-0.5-0.5-0.5s-0.5,0.224-0.5,0.5v2.324H6.296
		c-0.276,0-0.5,0.224-0.5,0.5s0.224,0.5,0.5,0.5H8.62v2.324c0,0.276,0.224,0.5,0.5,0.5s0.5-0.224,0.5-0.5V9.544h2.324
		c0.276,0,0.5-0.224,0.5-0.5S12.22,8.544,11.944,8.544z"/>
	<path fill="#535455" d="M13.662,3.002h-0.74V2.414c0-0.827-0.673-1.5-1.5-1.5H2.338c-0.827,0-1.5,0.673-1.5,1.5v9.083
		c0,0.827,0.673,1.5,1.5,1.5h0.74v0.588c0,0.827,0.673,1.5,1.5,1.5h9.083c0.827,0,1.5-0.673,1.5-1.5V4.502
		C15.162,3.675,14.489,3.002,13.662,3.002z M2.338,11.998c-0.276,0-0.5-0.225-0.5-0.5V2.414c0-0.276,0.224-0.5,0.5-0.5h9.083
		c0.275,0,0.5,0.224,0.5,0.5v0.588H4.579c-0.827,0-1.5,0.673-1.5,1.5v7.496H2.338z M14.162,13.586c0,0.275-0.225,0.5-0.5,0.5H4.579
		c-0.276,0-0.5-0.225-0.5-0.5V4.502c0-0.276,0.224-0.5,0.5-0.5h9.083c0.275,0,0.5,0.224,0.5,0.5V13.586z"/>
</g>
</svg>
