<?xml version="1.0" encoding="utf-8"?>
<!-- Generator: Adobe Illustrator 17.0.0, SVG Export Plug-In . SVG Version: 6.00 Build 0)  -->
<!DOCTYPE svg PUBLIC "-//W3C//DTD SVG 1.1//EN" "http://www.w3.org/Graphics/SVG/1.1/DTD/svg11.dtd">
<svg version="1.1" id="图层_1" xmlns="http://www.w3.org/2000/svg" xmlns:xlink="http://www.w3.org/1999/xlink" x="0px" y="0px"
	 width="16px" height="16px" viewBox="0 0 16 16" enable-background="new 0 0 16 16" xml:space="preserve">
<g>
	<path fill="#535455" d="M15.87,17.167H5.437c-0.276,0-0.5-0.224-0.5-0.5s0.224-0.5,0.5-0.5H15.87c0.276,0,0.5,0.224,0.5,0.5
		S16.146,17.167,15.87,17.167z"/>
</g>
<g>
	<g>
		<path fill="#535455" d="M8.008,14.337c-0.119,0-0.238-0.042-0.333-0.127L2.605,9.68C2.45,9.542,2.397,9.323,2.47,9.129
			c0.074-0.193,0.26-0.321,0.467-0.321h1.831V3.149c0-0.819,0.667-1.485,1.486-1.485h3.507c0.819,0,1.485,0.667,1.485,1.485v5.659
			h1.815c0.207,0,0.393,0.128,0.467,0.321s0.021,0.413-0.133,0.551l-5.055,4.529C8.246,14.294,8.127,14.337,8.008,14.337z
			 M4.248,9.807l3.759,3.358l3.748-3.358h-1.008c-0.276,0-0.5-0.224-0.5-0.5V3.149c0-0.268-0.218-0.485-0.485-0.485H6.255
			c-0.268,0-0.486,0.218-0.486,0.485v6.159c0,0.276-0.224,0.5-0.5,0.5H4.248z"/>
	</g>
	<g>
		<path fill="#535455" d="M7.448,5.406l0.009,0c0.394,0,0.694-0.283,0.892-0.844c0.098-0.29,0.214-0.45,0.318-0.45
			C8.79,4.122,8.92,4.168,8.938,4.419c0,0.117-0.028,0.223-0.084,0.318C8.801,4.82,8.775,4.888,8.776,4.967
			C8.792,5.13,8.893,5.228,9.049,5.228l0.033-0.004c0.236-0.065,0.369-0.32,0.404-0.797c-0.034-0.534-0.313-0.852-0.824-0.92
			c-0.376,0-0.66,0.273-0.847,0.813C7.74,4.538,7.613,4.8,7.453,4.801C7.168,4.776,7.033,4.637,7.016,4.36
			c0-0.116,0.044-0.25,0.134-0.399c0.053-0.094,0.075-0.157,0.075-0.211c0-0.132-0.08-0.273-0.304-0.273L6.888,3.48
			c-0.24,0.067-0.367,0.353-0.39,0.884C6.52,5.002,6.848,5.363,7.448,5.406z"/>
		<path fill="#535455" d="M7.986,7.757h0.006h0.006c0.922-0.042,1.426-0.5,1.458-1.33V5.772c0-0.187-0.116-0.303-0.304-0.303h-2.35
			c-0.188,0-0.304,0.116-0.304,0.303v0.722C6.529,7.041,6.812,7.704,7.986,7.757z M7.032,6.411V6.061h1.892v0.317
			C8.906,6.886,8.608,7.132,7.998,7.15C7.154,7.114,7.043,6.709,7.032,6.411z"/>
		<path fill="#535455" d="M9.486,8.137c0-0.179-0.116-0.289-0.304-0.289H6.773c-0.169,0-0.274,0.11-0.274,0.289
			s0.105,0.289,0.274,0.289h0.846L6.58,9.477L6.554,9.515C6.517,9.6,6.499,9.671,6.499,9.729c0,0.162,0.086,0.27,0.229,0.287
			l0.016,0.001c0.078,0,0.155-0.029,0.238-0.098l1.082-1.123l0.901,1.009c0.038,0.049,0.11,0.107,0.259,0.107
			c0.001,0,0.002,0,0.003,0c0.146-0.018,0.24-0.105,0.26-0.258c0-0.068-0.028-0.138-0.086-0.212L8.47,8.427h0.712
			C9.37,8.427,9.486,8.316,9.486,8.137z"/>
	</g>
</g>
</svg>
