<?xml version="1.0" encoding="utf-8"?>
<!-- Generator: Adobe Illustrator 17.0.0, SVG Export Plug-In . SVG Version: 6.00 Build 0)  -->
<!DOCTYPE svg PUBLIC "-//W3C//DTD SVG 1.1//EN" "http://www.w3.org/Graphics/SVG/1.1/DTD/svg11.dtd">
<svg version="1.1" id="图层_1" xmlns="http://www.w3.org/2000/svg" xmlns:xlink="http://www.w3.org/1999/xlink" x="0px" y="0px"
	 width="16px" height="16px" viewBox="0 0 16 16" enable-background="new 0 0 16 16" xml:space="preserve">
<g>
	<path fill="#515151" d="M13.764,7.487c-0.276,0-0.5,0.224-0.5,0.5v3.343c0,0.827-0.673,1.5-1.5,1.5H4.236
		c-0.827,0-1.5-0.673-1.5-1.5V7.987c0-0.276-0.224-0.5-0.5-0.5s-0.5,0.224-0.5,0.5v3.343c0,1.379,1.122,2.5,2.5,2.5h7.529
		c1.379,0,2.5-1.121,2.5-2.5V7.987C14.264,7.711,14.041,7.487,13.764,7.487z"/>
	<path fill="#515151" d="M7.646,11.757c0.001,0.001,0.002,0.002,0.003,0.003L8,12.109l0.352-0.349
		c0.001-0.001,0.002-0.002,0.003-0.003l3.524-3.497c0.195-0.195,0.197-0.511,0.002-0.707c-0.194-0.195-0.511-0.197-0.707-0.003
		l-2.673,2.654V2.67c0-0.276-0.225-0.5-0.5-0.5c-0.276,0-0.5,0.224-0.5,0.5v7.534L4.826,7.55C4.631,7.356,4.313,7.356,4.119,7.552
		C3.925,7.748,3.926,8.065,4.122,8.26L7.646,11.757z"/>
</g>
</svg>
