<?xml version="1.0" encoding="utf-8"?>
<!-- Generator: Adobe Illustrator 17.0.0, SVG Export Plug-In . SVG Version: 6.00 Build 0)  -->
<!DOCTYPE svg PUBLIC "-//W3C//DTD SVG 1.1//EN" "http://www.w3.org/Graphics/SVG/1.1/DTD/svg11.dtd">
<svg version="1.1" id="图层_1" xmlns="http://www.w3.org/2000/svg" xmlns:xlink="http://www.w3.org/1999/xlink" x="0px" y="0px"
	 width="16px" height="16px" viewBox="0 0 16 16" enable-background="new 0 0 16 16" xml:space="preserve">
<g>
	<path fill="#535455" d="M7.896,12.726c0.016,0.001,0.03,0.005,0.046,0.005c0.006,0,0.012-0.002,0.018-0.002
		c0.013,0,0.026,0.002,0.04,0.002c3.128,0,5.673-2.545,5.673-5.672c0-3.128-2.545-5.672-5.673-5.672
		c-0.013,0-0.026,0.002-0.04,0.002c-0.006,0-0.012-0.002-0.018-0.002c-0.016,0-0.03,0.005-0.046,0.005
		C4.816,1.448,2.328,3.966,2.328,7.059C2.328,10.151,4.816,12.67,7.896,12.726z M3.378,7.559h2.169
		c0.05,1.457,0.323,2.874,0.804,3.857C4.74,10.804,3.57,9.331,3.378,7.559z M7.922,2.394c0.011,0,0.021-0.003,0.032-0.003
		c0.451,0.023,1.275,1.495,1.372,4.168H6.557C6.653,3.901,7.469,2.433,7.922,2.394z M9.326,7.559
		c-0.097,2.672-0.921,4.145-1.372,4.168c-0.011,0-0.021-0.003-0.032-0.003c-0.453-0.039-1.269-1.507-1.365-4.164H9.326z
		 M9.51,11.458c0.495-0.984,0.774-2.421,0.826-3.9h2.286C12.424,9.381,11.19,10.88,9.51,11.458z M12.622,6.559h-2.286
		c-0.051-1.479-0.331-2.916-0.826-3.9C11.19,3.238,12.424,4.737,12.622,6.559z M6.351,2.702c-0.481,0.983-0.753,2.4-0.804,3.857
		H3.378C3.57,4.786,4.74,3.314,6.351,2.702z"/>
	<path fill="#535455" d="M12.611,13.614H3.389c-0.276,0-0.5,0.224-0.5,0.5s0.224,0.5,0.5,0.5h9.222c0.276,0,0.5-0.224,0.5-0.5
		S12.887,13.614,12.611,13.614z"/>
</g>
</svg>
