<?xml version="1.0" encoding="utf-8"?>
<!-- Generator: Adobe Illustrator 17.0.0, SVG Export Plug-In . SVG Version: 6.00 Build 0)  -->
<!DOCTYPE svg PUBLIC "-//W3C//DTD SVG 1.1//EN" "http://www.w3.org/Graphics/SVG/1.1/DTD/svg11.dtd">
<svg version="1.1" id="图层_1" xmlns="http://www.w3.org/2000/svg" xmlns:xlink="http://www.w3.org/1999/xlink" x="0px" y="0px"
	 width="16px" height="16px" viewBox="0 0 16 16" enable-background="new 0 0 16 16" xml:space="preserve">
<g>
	<path fill="#535455" d="M12.167,0.899H3.833c-1.105,0-2,0.895-2,2v7.057c0,1.105,4.918,5.144,6.167,5.144
		c1.189,0,6.167-4.04,6.167-5.144V2.899C14.167,1.795,13.271,0.899,12.167,0.899z M4.722,8.358c-0.562,0-1.018-0.456-1.018-1.019
		s0.456-1.019,1.018-1.019c0.563,0,1.019,0.456,1.019,1.019S5.284,8.358,4.722,8.358z M8,8.358c-0.562,0-1.019-0.456-1.019-1.019
		S7.437,6.321,8,6.321c0.563,0,1.019,0.456,1.019,1.019S8.563,8.358,8,8.358z M11.278,8.358c-0.562,0-1.019-0.456-1.019-1.019
		s0.456-1.019,1.019-1.019c0.563,0,1.019,0.456,1.019,1.019S11.841,8.358,11.278,8.358z"/>
</g>
</svg>
