<?xml version="1.0" encoding="utf-8"?>
<!-- Generator: Adobe Illustrator 17.0.0, SVG Export Plug-In . SVG Version: 6.00 Build 0)  -->
<!DOCTYPE svg PUBLIC "-//W3C//DTD SVG 1.1//EN" "http://www.w3.org/Graphics/SVG/1.1/DTD/svg11.dtd">
<svg version="1.1" id="图层_1" xmlns="http://www.w3.org/2000/svg" xmlns:xlink="http://www.w3.org/1999/xlink" x="0px" y="0px"
	 width="16px" height="16px" viewBox="0 0 16 16" enable-background="new 0 0 16 16" xml:space="preserve">
<path fill="#515151" d="M12.167,0.899H3.833c-1.105,0-2,0.895-2,2v7.057c0,1.105,4.918,5.144,6.167,5.144
	c1.189,0,6.167-4.04,6.167-5.144V2.899C14.167,1.795,13.271,0.899,12.167,0.899z M13.167,9.862
	c-0.431,0.948-4.134,3.981-5.172,4.233c-1.033-0.232-4.733-3.266-5.161-4.23V2.899c0-0.551,0.449-1,1-1h8.333c0.551,0,1,0.449,1,1
	V9.862z"/>
<g>
	<circle fill="#515151" cx="4.851" cy="6.934" r="0.785"/>
	<circle fill="#515151" cx="8.001" cy="6.934" r="0.785"/>
	<circle fill="#515151" cx="11.151" cy="6.934" r="0.785"/>
</g>
</svg>
