<?xml version="1.0" encoding="utf-8"?>
<!-- Generator: Adobe Illustrator 17.0.0, SVG Export Plug-In . SVG Version: 6.00 Build 0)  -->
<!DOCTYPE svg PUBLIC "-//W3C//DTD SVG 1.1//EN" "http://www.w3.org/Graphics/SVG/1.1/DTD/svg11.dtd">
<svg version="1.1" id="图层_1" xmlns="http://www.w3.org/2000/svg" xmlns:xlink="http://www.w3.org/1999/xlink" x="0px" y="0px"
	 width="200px" height="200px" viewBox="0 0 200 200" enable-background="new 0 0 200 200" xml:space="preserve">
<g>
	<path fill="#040000" d="M198.098,162.913L115.403,19.424c-3.136-5.543-9.045-8.987-15.42-8.987c-3.035,0-6.044,0.794-8.701,2.297
		c-2.795,1.582-5.108,3.896-6.684,6.68L1.905,162.902c-4.94,8.418-2.112,19.285,6.305,24.226c2.714,1.593,5.812,2.436,8.958,2.436
		l165.519-0.001l0.144,0.001c0,0,0,0,0.001,0c9.68,0,17.618-7.877,17.695-17.56C200.552,168.808,199.71,165.661,198.098,162.913z
		 M182.239,171.463H17.699l82.249-142.32L182.239,171.463z"/>
	<path fill="#040000" d="M90.998,68.062v58.9c0,4.963,4.038,9,9,9c4.963,0,9-4.037,9-9V68.062c-0.004-4.959-4.041-8.995-9.005-8.995
		C95.036,59.07,91.001,63.105,90.998,68.062z"/>
	<path fill="#040000" d="M99.999,142.358c-5.842,0-10.598,4.753-10.601,10.604c-0.001,2.832,1.101,5.494,3.102,7.497
		c2.001,2.003,4.663,3.106,7.494,3.107h0.004c0,0,0,0,0.001,0c5.842,0,10.597-4.753,10.599-10.603
		c0.002-2.832-1.1-5.494-3.101-7.497C105.496,143.463,102.834,142.359,99.999,142.358z M99.998,162.066L99.998,162.066
		L99.998,162.066L99.998,162.066z"/>
</g>
</svg>
