<?xml version="1.0" encoding="utf-8"?>
<!-- Generator: Adobe Illustrator 17.0.0, SVG Export Plug-In . SVG Version: 6.00 Build 0)  -->
<!DOCTYPE svg PUBLIC "-//W3C//DTD SVG 1.1//EN" "http://www.w3.org/Graphics/SVG/1.1/DTD/svg11.dtd">
<svg version="1.1" id="图层_1" xmlns="http://www.w3.org/2000/svg" xmlns:xlink="http://www.w3.org/1999/xlink" x="0px" y="0px"
	 width="16px" height="16px" viewBox="0 0 16 16" enable-background="new 0 0 16 16" xml:space="preserve">
<g>
	<path fill="#515151" d="M14.916,7.313L11.87,4.264C11.704,4.099,11.453,4,11.2,4c-0.501,0-0.864,0.365-0.864,0.867V5.75h-5.54
		c-0.496,0-0.9,0.404-0.9,0.9v2.7c0,0.496,0.404,0.899,0.9,0.899h5.54v0.841c0,0.527,0.377,0.909,0.896,0.909
		c0.245,0,0.478-0.092,0.638-0.252l3.046-3.047c0.187-0.186,0.289-0.432,0.289-0.694S15.102,7.498,14.916,7.313z M11.335,10.868
		V9.25h-6.44v-2.5h6.44V5.143l2.874,2.85L11.335,10.868z"/>
	<path fill="#515151" d="M9.358,11.562c-0.276,0-0.5,0.224-0.5,0.5c0,0.827-0.673,1.5-1.5,1.5H3.295c-0.827,0-1.5-0.673-1.5-1.5
		V3.938c0-0.827,0.673-1.5,1.5-1.5h4.062c0.827,0,1.5,0.673,1.5,1.5c0,0.276,0.224,0.5,0.5,0.5s0.5-0.224,0.5-0.5
		c0-1.378-1.121-2.5-2.5-2.5H3.295c-1.378,0-2.5,1.122-2.5,2.5v8.125c0,1.379,1.122,2.5,2.5,2.5h4.062c1.379,0,2.5-1.121,2.5-2.5
		C9.858,11.786,9.634,11.562,9.358,11.562z"/>
</g>
</svg>
