<?xml version="1.0" encoding="utf-8"?>
<!-- Generator: Adobe Illustrator 17.0.0, SVG Export Plug-In . SVG Version: 6.00 Build 0)  -->
<!DOCTYPE svg PUBLIC "-//W3C//DTD SVG 1.1//EN" "http://www.w3.org/Graphics/SVG/1.1/DTD/svg11.dtd">
<svg version="1.1" id="图层_1" xmlns="http://www.w3.org/2000/svg" xmlns:xlink="http://www.w3.org/1999/xlink" x="0px" y="0px"
	 width="16px" height="16px" viewBox="0 0 16 16" enable-background="new 0 0 16 16" xml:space="preserve">
<path fill="#535455" d="M8,1.506c-2.596,0-4.707,2.086-4.707,4.649c0,0.979,0.308,1.919,0.889,2.715L4.183,8.87
	c0.055,0.08,0.131,0.171,0.23,0.288c0.257,0.305,0.736,0.871,0.935,1.21c0.112,0.193,0.235,0.607,0.268,1.165
	c0,0.008-0.005,0.015-0.005,0.024c0,0.014,0.007,0.026,0.008,0.04c0.003,0.07,0.011,0.133,0.011,0.207l-0.002,0.22
	c-0.002,0.134-0.003,0.236,0.002,0.318v1.191c0,0.276,0.224,0.5,0.5,0.5h0.838C7.176,14.311,7.556,14.494,8,14.494
	s0.823-0.183,1.031-0.461H9.87c0.276,0,0.5-0.224,0.5-0.5v-1.193c0.006-0.081,0.004-0.182,0.002-0.313l-0.002-0.223
	c0-0.073,0.008-0.135,0.011-0.205c0.001-0.015,0.009-0.027,0.009-0.043c0-0.009-0.005-0.016-0.005-0.025
	c0.034-0.552,0.157-0.969,0.271-1.168c0.177-0.311,0.663-0.888,0.925-1.198c0.103-0.121,0.181-0.214,0.236-0.295l0.001,0.001
	c0.583-0.795,0.891-1.734,0.891-2.716C12.708,3.592,10.595,1.506,8,1.506z M9.374,12.265c-0.003,0.021-0.004,0.044-0.004,0.065
	v0.702H8.701c-0.248,0-0.453,0.18-0.493,0.416c-0.074,0.041-0.342,0.041-0.416,0c-0.04-0.236-0.246-0.416-0.493-0.416H6.63l0-0.702
	c0-0.021-0.001-0.043-0.004-0.063c-0.001-0.046,0.001-0.126,0.002-0.211h2.745C9.374,12.14,9.374,12.22,9.374,12.265z M11.01,8.28
	c-0.009,0.013-0.018,0.025-0.025,0.039c-0.033,0.041-0.093,0.112-0.17,0.202c-0.302,0.358-0.807,0.958-1.029,1.347
	c-0.172,0.301-0.292,0.723-0.358,1.188H6.572c-0.066-0.471-0.188-0.895-0.361-1.192C5.969,9.45,5.473,8.863,5.176,8.512
	C5.104,8.426,5.046,8.359,5.015,8.32C5.007,8.306,4.999,8.293,4.989,8.281C4.533,7.657,4.292,6.922,4.292,6.156
	c0-2.012,1.663-3.649,3.707-3.649c2.045,0,3.708,1.637,3.708,3.649C11.708,6.923,11.466,7.658,11.01,8.28z"/>
</svg>
