<?xml version="1.0" encoding="utf-8"?>
<!-- Generator: Adobe Illustrator 17.0.0, SVG Export Plug-In . SVG Version: 6.00 Build 0)  -->
<!DOCTYPE svg PUBLIC "-//W3C//DTD SVG 1.1//EN" "http://www.w3.org/Graphics/SVG/1.1/DTD/svg11.dtd">
<svg version="1.1" id="图层_1" xmlns="http://www.w3.org/2000/svg" xmlns:xlink="http://www.w3.org/1999/xlink" x="0px" y="0px"
	 width="16px" height="16px" viewBox="0 0 16 16" enable-background="new 0 0 16 16" xml:space="preserve">
<g>
	<g>
		<g>
			<path fill="#535455" d="M9.169,15.067L9.169,15.067c-0.206,0-0.4-0.061-0.578-0.179l-2.332-1.457
				c-0.334-0.263-0.499-0.587-0.499-0.922V7.293L2.006,2.688c-0.34-0.382-0.294-0.864-0.148-1.156
				c0.145-0.29,0.477-0.599,0.975-0.599h10.343c0.536,0,0.896,0.344,1.002,0.664c0.074,0.138,0.176,0.639-0.168,1.081L10.281,7.23
				l-0.033,6.774c0,0.26-0.09,0.63-0.516,0.914c-0.037,0.024-0.077,0.044-0.119,0.059C9.523,15.009,9.366,15.067,9.169,15.067z
				 M2.832,1.933c0.004,0.005-0.057,0.115-0.053,0.121L6.5,6.596c0.119,0.158,0.26,0.382,0.26,0.698v5.216
				c0,0.023,0.026,0.067,0.076,0.107l2.333,1.45c0.019,0,0.053-0.013,0.082-0.023c-0.003-0.005-0.003-0.021-0.003-0.04v-6.71
				c0-0.316,0.141-0.54,0.246-0.681l3.734-4.559c0.03-0.039,0.019-0.091,0.014-0.106L2.832,1.933z"/>
		</g>
	</g>
</g>
</svg>
