<?xml version="1.0" encoding="utf-8"?>
<!-- Generator: Adobe Illustrator 17.0.0, SVG Export Plug-In . SVG Version: 6.00 Build 0)  -->
<!DOCTYPE svg PUBLIC "-//W3C//DTD SVG 1.1//EN" "http://www.w3.org/Graphics/SVG/1.1/DTD/svg11.dtd">
<svg version="1.1" id="图层_1" xmlns="http://www.w3.org/2000/svg" xmlns:xlink="http://www.w3.org/1999/xlink" x="0px" y="0px"
	 width="200px" height="200px" viewBox="0 0 200 200" enable-background="new 0 0 200 200" xml:space="preserve">
<g>
	<path fill="#040000" d="M47.96,1.371c-25.694,0-46.597,20.903-46.597,46.597c0,25.693,20.903,46.597,46.597,46.597h46.597V47.968
		C94.556,22.274,73.653,1.371,47.96,1.371z"/>
	<path fill="#040000" d="M198.637,47.968c0-25.694-20.903-46.597-46.597-46.597c-25.694,0-46.598,20.903-46.598,46.597v46.597
		h46.598C177.734,94.564,198.637,73.661,198.637,47.968z"/>
	<path fill="#040000" d="M1.363,152.033c0,25.693,20.903,46.597,46.597,46.597c25.693,0,46.597-20.903,46.597-46.597v-46.597H47.96
		C22.266,105.436,1.363,126.339,1.363,152.033z"/>
	<path fill="#040000" d="M152.041,105.436h-46.598v46.597c0,25.693,20.903,46.597,46.598,46.597
		c25.693,0,46.597-20.903,46.597-46.597S177.734,105.436,152.041,105.436z"/>
</g>
</svg>
