<?xml version="1.0" encoding="utf-8"?>
<!-- Generator: Adobe Illustrator 17.0.0, SVG Export Plug-In . SVG Version: 6.00 Build 0)  -->
<!DOCTYPE svg PUBLIC "-//W3C//DTD SVG 1.1//EN" "http://www.w3.org/Graphics/SVG/1.1/DTD/svg11.dtd">
<svg version="1.1" id="图层_1" xmlns="http://www.w3.org/2000/svg" xmlns:xlink="http://www.w3.org/1999/xlink" x="0px" y="0px"
	 width="16px" height="16px" viewBox="0 0 16 16" enable-background="new 0 0 16 16" xml:space="preserve">
<g>
	<g>
		<path fill="#515151" d="M8.559,2.366c0.047,0,0.099,0.041,0.099,0.099v0.839c0,0.43,0.275,0.813,0.684,0.949
			c0.138,0.046,0.275,0.109,0.413,0.17c0.131,0.058,0.269,0.086,0.406,0.086c0.265,0,0.526-0.106,0.719-0.304l0.567-0.585
			c0.021-0.021,0.056-0.024,0.075-0.024c0.019,0,0.055,0.003,0.076,0.024l0.783,0.783c0.021,0.021,0.024,0.056,0.024,0.075
			S12.4,4.533,12.38,4.554L11.783,5.15c-0.293,0.293-0.375,0.735-0.207,1.113c0.061,0.138,0.124,0.275,0.17,0.413
			c0.136,0.409,0.519,0.684,0.948,0.684c0.007,0,0.015,0,0.022,0l0.816-0.018c0.05,0,0.076,0.022,0.085,0.031l0.014,0.068v1.118
			c0,0.047-0.041,0.099-0.099,0.099h-0.839c-0.43,0-0.813,0.275-0.949,0.684c-0.046,0.138-0.109,0.275-0.17,0.413
			c-0.17,0.383-0.083,0.833,0.218,1.125l0.585,0.566c0.021,0.021,0.024,0.056,0.024,0.076c0,0.019-0.003,0.055-0.024,0.076
			l-0.783,0.783c-0.021,0.021-0.056,0.024-0.076,0.024c-0.019,0-0.055-0.003-0.076-0.024l-0.596-0.596
			c-0.191-0.191-0.447-0.293-0.707-0.293c-0.137,0-0.276,0.028-0.406,0.086c-0.138,0.061-0.275,0.124-0.413,0.17
			c-0.416,0.139-0.693,0.532-0.683,0.971l0.018,0.816c0,0.047-0.041,0.099-0.099,0.099H7.441c-0.047,0-0.099-0.041-0.099-0.099
			v-0.839c0-0.43-0.275-0.813-0.684-0.949c-0.138-0.046-0.275-0.109-0.413-0.17c-0.131-0.058-0.269-0.086-0.406-0.086
			c-0.265,0-0.526,0.105-0.719,0.304L4.554,12.38c-0.021,0.021-0.056,0.024-0.076,0.024s-0.055-0.003-0.075-0.024L3.62,11.597
			c-0.021-0.021-0.024-0.056-0.024-0.075s0.003-0.055,0.024-0.076l0.596-0.596c0.293-0.293,0.375-0.735,0.207-1.113
			c-0.061-0.138-0.124-0.275-0.17-0.413C4.116,8.914,3.734,8.64,3.304,8.64c-0.007,0-0.015,0-0.022,0L2.466,8.658
			c-0.047,0-0.099-0.041-0.099-0.099V7.441c0-0.047,0.041-0.099,0.099-0.099h0.839c0.43,0,0.813-0.275,0.949-0.684
			c0.046-0.138,0.109-0.275,0.17-0.413c0.17-0.383,0.083-0.833-0.218-1.125L3.62,4.554C3.599,4.533,3.596,4.498,3.596,4.478
			S3.599,4.424,3.62,4.403L4.403,3.62c0.021-0.021,0.056-0.024,0.075-0.024S4.533,3.599,4.554,3.62L5.15,4.216
			c0.191,0.191,0.447,0.293,0.708,0.293c0.137,0,0.276-0.028,0.406-0.086c0.138-0.061,0.275-0.124,0.413-0.17
			C7.092,4.114,7.369,3.721,7.36,3.282L7.341,2.466c0-0.047,0.041-0.099,0.099-0.099H8.559 M8.559,1.366H7.441
			c-0.615,0-1.099,0.503-1.099,1.099L6.36,3.304C6.192,3.36,6.025,3.435,5.857,3.509L5.261,2.913
			C5.056,2.708,4.776,2.596,4.478,2.596c-0.298,0-0.578,0.112-0.783,0.317L2.913,3.696C2.708,3.901,2.596,4.18,2.596,4.478
			s0.112,0.578,0.317,0.783l0.596,0.578C3.435,6.006,3.36,6.174,3.304,6.342H2.466c-0.615,0-1.099,0.503-1.099,1.099v1.118
			c0,0.615,0.503,1.099,1.099,1.099L3.304,9.64c0.056,0.168,0.13,0.335,0.205,0.503l-0.596,0.596
			c-0.205,0.205-0.317,0.484-0.317,0.783s0.112,0.578,0.317,0.783l0.783,0.783c0.205,0.205,0.484,0.317,0.783,0.317
			c0.298,0,0.578-0.112,0.783-0.317l0.578-0.596c0.168,0.075,0.335,0.149,0.503,0.205v0.839c0,0.615,0.503,1.099,1.099,1.099h1.118
			c0.615,0,1.099-0.503,1.099-1.099L9.64,12.696c0.168-0.056,0.335-0.13,0.503-0.205l0.596,0.596
			c0.205,0.205,0.484,0.317,0.783,0.317c0.298,0,0.578-0.112,0.783-0.317l0.783-0.783c0.205-0.205,0.317-0.484,0.317-0.783
			s-0.112-0.578-0.317-0.783l-0.596-0.578c0.075-0.168,0.149-0.335,0.205-0.503h0.839c0.615,0,1.099-0.503,1.099-1.099V7.441
			c0.019-0.615-0.484-1.099-1.099-1.099L12.695,6.36c-0.056-0.168-0.13-0.335-0.205-0.503l0.596-0.596
			c0.205-0.205,0.317-0.484,0.317-0.783s-0.112-0.578-0.317-0.783l-0.783-0.783c-0.205-0.205-0.484-0.317-0.783-0.317
			c-0.298,0-0.578,0.112-0.783,0.317l-0.578,0.596C9.994,3.435,9.826,3.36,9.658,3.304V2.466C9.658,1.851,9.155,1.366,8.559,1.366
			L8.559,1.366z"/>
	</g>
	<g>
		<path fill="#515151" d="M8,11.029C6.33,11.029,4.97,9.67,4.97,8C4.97,6.33,6.33,4.97,8,4.97c0.408,0,0.805,0.08,1.179,0.238
			c0.255,0.107,0.374,0.401,0.267,0.655C9.337,6.118,9.043,6.236,8.79,6.129C8.54,6.024,8.274,5.97,8,5.97
			C6.881,5.97,5.97,6.881,5.97,8S6.881,10.029,8,10.029S10.029,9.119,10.029,8c0-0.276,0.224-0.5,0.5-0.5s0.5,0.224,0.5,0.5
			C11.029,9.67,9.67,11.029,8,11.029z"/>
	</g>
</g>
</svg>
