<?xml version="1.0" encoding="utf-8"?>
<!-- Generator: Adobe Illustrator 17.0.0, SVG Export Plug-In . SVG Version: 6.00 Build 0)  -->
<!DOCTYPE svg PUBLIC "-//W3C//DTD SVG 1.1//EN" "http://www.w3.org/Graphics/SVG/1.1/DTD/svg11.dtd">
<svg version="1.1" id="图层_1" xmlns="http://www.w3.org/2000/svg" xmlns:xlink="http://www.w3.org/1999/xlink" x="0px" y="0px"
	 width="16px" height="16px" viewBox="0 0 16 16" enable-background="new 0 0 16 16" xml:space="preserve">
<g>
	<path fill="#535455" d="M1.845,4.867h5.18c0.091,0.705,0.689,1.253,1.418,1.253h1.424c0.731,0,1.33-0.551,1.419-1.258
		c0.008,0,0.015,0.005,0.024,0.005h2.846c0.276,0,0.5-0.224,0.5-0.5s-0.224-0.5-0.5-0.5h-2.846c-0.002,0-0.004,0.001-0.006,0.001
		V3.295c0-0.792-0.645-1.437-1.437-1.437H8.443c-0.792,0-1.437,0.645-1.437,1.437v0.573H1.845c-0.276,0-0.5,0.224-0.5,0.5
		S1.569,4.867,1.845,4.867z M8.006,3.295c0-0.241,0.196-0.437,0.437-0.437h1.424c0.24,0,0.437,0.196,0.437,0.437v1.39
		c0,0.241-0.196,0.437-0.437,0.437H8.443c-0.24,0-0.437-0.196-0.437-0.437V3.295z"/>
	<path fill="#535455" d="M14.155,7.878H7.286V7.305c0-0.792-0.645-1.436-1.437-1.436H4.425c-0.792,0-1.436,0.644-1.436,1.436v0.573
		H1.845c-0.276,0-0.5,0.224-0.5,0.5s0.224,0.5,0.5,0.5h1.162c0.091,0.705,0.688,1.253,1.418,1.253h1.424
		c0.729,0,1.327-0.548,1.418-1.253h6.888c0.276,0,0.5-0.224,0.5-0.5S14.431,7.878,14.155,7.878z M6.286,8.696
		c0,0.24-0.196,0.436-0.437,0.436H4.425c-0.24,0-0.436-0.195-0.436-0.436V7.305c0-0.24,0.196-0.436,0.436-0.436h1.424
		c0.24,0,0.437,0.195,0.437,0.436V8.696z"/>
	<path fill="#535455" d="M14.155,11.889h-1.144v-0.573c0-0.792-0.645-1.436-1.437-1.436h-1.424c-0.792,0-1.437,0.644-1.437,1.436
		v0.573H1.845c-0.276,0-0.5,0.224-0.5,0.5s0.224,0.5,0.5,0.5h6.888c0.091,0.705,0.689,1.253,1.418,1.253h1.424
		c0.729,0,1.327-0.548,1.418-1.253h1.162c0.276,0,0.5-0.224,0.5-0.5S14.431,11.889,14.155,11.889z M12.011,12.706
		c0,0.24-0.196,0.436-0.437,0.436h-1.424c-0.24,0-0.437-0.195-0.437-0.436v-1.391c0-0.24,0.196-0.436,0.437-0.436h1.424
		c0.24,0,0.437,0.195,0.437,0.436V12.706z"/>
</g>
</svg>
