<?xml version="1.0" encoding="utf-8"?>
<!-- Generator: Adobe Illustrator 17.0.0, SVG Export Plug-In . SVG Version: 6.00 Build 0)  -->
<!DOCTYPE svg PUBLIC "-//W3C//DTD SVG 1.1//EN" "http://www.w3.org/Graphics/SVG/1.1/DTD/svg11.dtd">
<svg version="1.1" id="图层_1" xmlns="http://www.w3.org/2000/svg" xmlns:xlink="http://www.w3.org/1999/xlink" x="0px" y="0px"
	 width="16px" height="16px" viewBox="0 0 16 16" enable-background="new 0 0 16 16" xml:space="preserve">
<g>
	<path fill="#515151" d="M8.048,4.739c0.048,0.003,0.096,0.004,0.145,0.004c0.841,0,1.743-0.42,2.384-1.12
		c0.672-0.733,0.997-1.637,0.892-2.479l-0.031-0.247L11.19,0.913c-0.893,0.06-1.917,0.538-2.493,1.163
		c-0.289,0.29-0.537,0.672-0.699,1.077C7.816,3.609,7.748,4.078,7.802,4.508l0.027,0.218L8.048,4.739z M8.927,3.524
		c0.111-0.278,0.286-0.549,0.506-0.771c0.222-0.241,0.558-0.458,0.922-0.613c-0.109,0.279-0.283,0.554-0.514,0.807
		C9.573,3.239,9.242,3.465,8.898,3.6C8.908,3.575,8.917,3.549,8.927,3.524z"/>
	<path fill="#515151" d="M13.908,11.094c-0.185-0.068-1.742-0.695-1.742-2.421c0-0.632,0.231-1.205,0.685-1.703
		c0.37-0.404,0.746-0.599,0.75-0.601l0.261-0.131l-0.175-0.234c-0.916-1.221-2.318-1.376-2.779-1.428l-0.013-0.001
		c-0.079-0.007-0.157-0.01-0.234-0.01c-0.66,0-1.269,0.224-1.768,0.407c-0.308,0.113-0.598,0.22-0.777,0.22
		c-0.207,0-0.501-0.105-0.813-0.217C6.84,4.811,6.315,4.623,5.737,4.623c-1.264,0-2.46,0.663-3.2,1.774L2.532,6.402
		c-0.779,1.241-0.716,2.679-0.527,3.667c0.226,1.175,0.752,2.368,1.443,3.272C3.8,13.8,4.122,14.207,4.501,14.532
		c0.448,0.384,0.892,0.572,1.353,0.572c0.029,0,0.057-0.001,0.086-0.002c0.446-0.023,0.766-0.143,1.076-0.258
		c0.364-0.136,0.709-0.265,1.29-0.265c0.521,0,0.846,0.126,1.19,0.259c0.336,0.13,0.684,0.264,1.189,0.264
		c0.512,0,0.975-0.185,1.414-0.565c0.372-0.321,0.684-0.746,0.971-1.153c0.386-0.516,0.644-1.009,0.792-1.333
		c0.102-0.223,0.254-0.597,0.254-0.714v-0.244H13.908z M12.254,12.807c-0.252,0.356-0.521,0.725-0.808,0.973
		c-0.33,0.285-0.58,0.321-0.76,0.321c-0.318,0-0.532-0.083-0.828-0.197c-0.376-0.145-0.844-0.326-1.551-0.326
		c-0.762,0-1.249,0.182-1.64,0.328c-0.271,0.101-0.486,0.181-0.811,0.197c-0.135,0-0.355-0.034-0.702-0.331
		c-0.306-0.262-0.592-0.626-0.908-1.039c-0.601-0.785-1.058-1.825-1.256-2.853c-0.156-0.811-0.215-1.981,0.38-2.929
		c0.555-0.832,1.44-1.329,2.368-1.329c0.405,0,0.824,0.15,1.229,0.295c0.396,0.142,0.769,0.276,1.15,0.276
		c0.357,0,0.712-0.13,1.123-0.281c0.441-0.162,0.941-0.346,1.423-0.346c0.05,0,0.1,0.002,0.137,0.005
		c0.292,0.032,0.947,0.105,1.532,0.504c-0.072,0.067-0.145,0.141-0.217,0.221c-0.62,0.678-0.947,1.5-0.947,2.378
		c0,1.48,0.842,2.496,1.748,3.046C12.782,11.996,12.57,12.384,12.254,12.807z"/>
</g>
</svg>
