<?xml version="1.0" encoding="utf-8"?>
<!-- Generator: Adobe Illustrator 17.0.0, SVG Export Plug-In . SVG Version: 6.00 Build 0)  -->
<!DOCTYPE svg PUBLIC "-//W3C//DTD SVG 1.1//EN" "http://www.w3.org/Graphics/SVG/1.1/DTD/svg11.dtd">
<svg version="1.1" id="图层_1" xmlns="http://www.w3.org/2000/svg" xmlns:xlink="http://www.w3.org/1999/xlink" x="0px" y="0px"
	 width="16px" height="16px" viewBox="0 0 16 16" enable-background="new 0 0 16 16" xml:space="preserve">
<g>
	<g>
		<path fill="#535455" d="M12.167,0.899H3.833c-1.105,0-2,0.895-2,2v7.057c0,1.105,4.918,5.144,6.167,5.144
			c1.189,0,6.167-4.04,6.167-5.144V2.899C14.167,1.795,13.271,0.899,12.167,0.899z M9.333,8.906c0.359,0,0.65,0.291,0.65,0.65
			s-0.291,0.65-0.65,0.65H8.65v0.965c0,0.359-0.291,0.65-0.65,0.65s-0.65-0.291-0.65-0.65V8.23C6.142,7.936,5.24,6.853,5.24,5.556
			c0-1.521,1.238-2.76,2.759-2.76c1.522,0,2.76,1.238,2.76,2.76c0,1.297-0.902,2.38-2.11,2.674v0.675H9.333z"/>
	</g>
	<g>
		<circle fill="#535455" cx="8" cy="5.556" r="1.46"/>
	</g>
</g>
</svg>
