<?xml version="1.0" encoding="utf-8"?>
<!-- Generator: Adobe Illustrator 17.0.0, SVG Export Plug-In . SVG Version: 6.00 Build 0)  -->
<!DOCTYPE svg PUBLIC "-//W3C//DTD SVG 1.1//EN" "http://www.w3.org/Graphics/SVG/1.1/DTD/svg11.dtd">
<svg version="1.1" id="图层_1" xmlns="http://www.w3.org/2000/svg" xmlns:xlink="http://www.w3.org/1999/xlink" x="0px" y="0px"
	 width="16px" height="16px" viewBox="0 0 16 16" enable-background="new 0 0 16 16" xml:space="preserve">
<path fill="#535455" d="M13.437,1.86H2.562c-0.827,0-1.5,0.673-1.5,1.5v9.28c0,0.827,0.673,1.5,1.5,1.5h10.875
	c0.827,0,1.5-0.673,1.5-1.5V3.36C14.937,2.533,14.265,1.86,13.437,1.86z M2.062,7.772h2.219v2.375H2.062V7.772z M5.281,7.772H7.5
	v2.375H5.281V7.772z M7.5,11.147v1.993H5.281v-1.993H7.5z M8.5,11.147h2.219v1.993H8.5V11.147z M8.5,10.147V7.772h2.219v2.375H8.5z
	 M11.719,7.772h2.219v2.375h-2.219V7.772z M2.562,2.86h10.875c0.275,0,0.5,0.224,0.5,0.5v3.412H2.062V3.36
	C2.062,3.084,2.287,2.86,2.562,2.86z M2.062,12.64v-1.493h2.219v1.993H2.562C2.287,13.14,2.062,12.915,2.062,12.64z M13.437,13.14
	h-1.719v-1.993h2.219v1.493C13.937,12.915,13.713,13.14,13.437,13.14z"/>
</svg>
