<?xml version="1.0" encoding="utf-8"?>
<!-- Generator: Adobe Illustrator 17.0.0, SVG Export Plug-In . SVG Version: 6.00 Build 0)  -->
<!DOCTYPE svg PUBLIC "-//W3C//DTD SVG 1.1//EN" "http://www.w3.org/Graphics/SVG/1.1/DTD/svg11.dtd">
<svg version="1.1" id="图层_1" xmlns="http://www.w3.org/2000/svg" xmlns:xlink="http://www.w3.org/1999/xlink" x="0px" y="0px"
	 width="16px" height="16px" viewBox="0 0 16 16" enable-background="new 0 0 16 16" xml:space="preserve">
<g>
	<path fill="#535455" d="M14.172,13.148h-2.017V8.936c0-0.276-0.224-0.5-0.5-0.5s-0.5,0.224-0.5,0.5v4.212H8.776V8.378
		c0-0.276-0.224-0.5-0.5-0.5s-0.5,0.224-0.5,0.5v4.771H5.397V8.595c0-0.276-0.224-0.5-0.5-0.5s-0.5,0.224-0.5,0.5v4.553H2.328V2.352
		c0-0.276-0.224-0.5-0.5-0.5s-0.5,0.224-0.5,0.5v11.296c0,0.276,0.224,0.5,0.5,0.5h12.344c0.276,0,0.5-0.224,0.5-0.5
		S14.448,13.148,14.172,13.148z"/>
	<path fill="#535455" d="M5.858,7.229C5.951,7.303,6.062,7.34,6.173,7.34c0.131,0,0.262-0.051,0.359-0.152l3.613-3.733l2.667,2.368
		c0.207,0.182,0.522,0.165,0.706-0.042s0.164-0.522-0.042-0.706l-3.025-2.686c-0.2-0.179-0.506-0.167-0.691,0.026L6.132,6.164
		L4.117,4.534C3.902,4.36,3.587,4.395,3.414,4.609C3.24,4.823,3.273,5.138,3.488,5.312L5.858,7.229z"/>
</g>
</svg>
