<?xml version="1.0" encoding="utf-8"?>
<!-- Generator: Adobe Illustrator 17.0.0, SVG Export Plug-In . SVG Version: 6.00 Build 0)  -->
<!DOCTYPE svg PUBLIC "-//W3C//DTD SVG 1.1//EN" "http://www.w3.org/Graphics/SVG/1.1/DTD/svg11.dtd">
<svg version="1.1" id="图层_1" xmlns="http://www.w3.org/2000/svg" xmlns:xlink="http://www.w3.org/1999/xlink" x="0px" y="0px"
	 width="16px" height="16px" viewBox="0 0 16 16" enable-background="new 0 0 16 16" xml:space="preserve">
<g>
	<path fill="#535455" d="M12.877,5.015c0.095,0.155,0.26,0.24,0.428,0.24c0.089,0,0.179-0.023,0.26-0.073
		c0.235-0.143,0.311-0.451,0.168-0.687c-0.502-0.826-1.191-1.548-1.993-2.087c-0.228-0.152-0.539-0.093-0.694,0.136
		c-0.154,0.229-0.093,0.54,0.136,0.694C11.864,3.697,12.45,4.312,12.877,5.015z"/>
	<path fill="#535455" d="M8.752,2.318C9.179,2.374,9.6,2.479,10.004,2.631c0.058,0.021,0.117,0.032,0.176,0.032
		c0.202,0,0.393-0.124,0.468-0.324c0.098-0.259-0.033-0.547-0.292-0.644C9.88,1.516,9.384,1.392,8.881,1.327
		C8.621,1.29,8.357,1.483,8.321,1.758C8.285,2.032,8.478,2.283,8.752,2.318z"/>
	<path fill="#535455" d="M14.396,5.958c-0.083-0.263-0.364-0.407-0.627-0.327c-0.264,0.083-0.409,0.364-0.326,0.627
		c0.174,0.552,0.262,1.129,0.262,1.716c0,3.146-2.559,5.704-5.704,5.704s-5.705-2.559-5.705-5.704c0-2.854,2.131-5.286,4.956-5.656
		c0.274-0.036,0.467-0.287,0.432-0.561C7.647,1.482,7.378,1.289,7.122,1.327C3.801,1.761,1.296,4.619,1.296,7.974
		c0,3.696,3.008,6.704,6.705,6.704c3.696,0,6.704-3.008,6.704-6.704C14.704,7.285,14.601,6.607,14.396,5.958z"/>
	<path fill="#535455" d="M6.735,4.312C6.566,4.397,6.459,4.57,6.459,4.759v6.43c0,0.189,0.106,0.362,0.275,0.447
		c0.071,0.035,0.148,0.053,0.225,0.053c0.105,0,0.211-0.033,0.299-0.099l4.313-3.215c0.127-0.095,0.201-0.243,0.201-0.401
		s-0.074-0.307-0.201-0.401L7.258,4.358C7.107,4.245,6.906,4.227,6.735,4.312z M7.459,5.755l2.977,2.219l-2.977,2.219V5.755z"/>
</g>
</svg>
