<?xml version="1.0" encoding="utf-8"?>
<!-- Generator: Adobe Illustrator 17.0.0, SVG Export Plug-In . SVG Version: 6.00 Build 0)  -->
<!DOCTYPE svg PUBLIC "-//W3C//DTD SVG 1.1//EN" "http://www.w3.org/Graphics/SVG/1.1/DTD/svg11.dtd">
<svg version="1.1" id="图层_1" xmlns="http://www.w3.org/2000/svg" xmlns:xlink="http://www.w3.org/1999/xlink" x="0px" y="0px"
	 width="16px" height="16px" viewBox="0 0 16 16" enable-background="new 0 0 16 16" xml:space="preserve">
<g>
	<path fill="#535455" d="M11.817,8.871c0.582-0.795,0.89-1.733,0.89-2.715c0-2.563-2.111-4.649-4.707-4.649S3.293,3.592,3.293,6.156
		c0,0.979,0.308,1.919,0.89,2.715L4.184,8.87c0.054,0.08,0.131,0.171,0.229,0.288c0.257,0.304,0.736,0.871,0.935,1.211
		c0.112,0.191,0.235,0.607,0.268,1.166c0,0.008-0.004,0.014-0.004,0.022c0,0.013,0.007,0.024,0.008,0.037
		c0.003,0.071,0.011,0.135,0.011,0.21l-0.002,0.22c-0.002,0.134-0.004,0.236,0.002,0.318v1.191c0,0.276,0.224,0.5,0.5,0.5h0.839
		C7.177,14.311,7.557,14.494,8,14.494s0.823-0.183,1.031-0.461H9.87c0.276,0,0.5-0.224,0.5-0.5v-1.193
		c0.006-0.081,0.004-0.182,0.002-0.313l-0.002-0.223c0-0.073,0.008-0.135,0.011-0.205c0.001-0.015,0.009-0.027,0.009-0.043
		c0-0.009-0.005-0.016-0.005-0.025c0.034-0.552,0.157-0.969,0.271-1.168c0.177-0.311,0.663-0.888,0.925-1.198
		C11.683,9.044,11.762,8.952,11.817,8.871L11.817,8.871z M9.374,12.265c-0.003,0.021-0.004,0.044-0.004,0.065v0.702H8.701
		c-0.248,0-0.453,0.18-0.493,0.416c-0.074,0.041-0.342,0.041-0.416,0c-0.04-0.236-0.246-0.416-0.493-0.416H6.63v-0.702
		c0-0.021-0.002-0.043-0.004-0.063c-0.001-0.046,0-0.126,0.002-0.211h2.745C9.374,12.14,9.375,12.22,9.374,12.265z M11.011,8.281
		c-0.01,0.012-0.018,0.025-0.025,0.038c-0.033,0.041-0.093,0.112-0.169,0.202c-0.303,0.358-0.808,0.958-1.03,1.347
		c-0.172,0.301-0.292,0.723-0.358,1.188H6.573c-0.066-0.471-0.188-0.895-0.362-1.192C5.97,9.45,5.473,8.863,5.177,8.511
		C5.104,8.426,5.047,8.359,5.016,8.32C5.008,8.306,4.999,8.293,4.989,8.281C4.534,7.657,4.293,6.922,4.293,6.156
		c0-2.013,1.663-3.649,3.707-3.649s3.707,1.637,3.707,3.649C11.707,6.923,11.466,7.658,11.011,8.281z"/>
	<path fill="#535455" d="M3.439,3.289c0.098,0.098,0.226,0.146,0.354,0.146s0.256-0.049,0.354-0.146
		c0.195-0.195,0.195-0.512,0-0.707L3.395,1.83c-0.195-0.195-0.512-0.195-0.707,0s-0.195,0.512,0,0.707L3.439,3.289z"/>
	<path fill="#535455" d="M12.207,3.435c0.128,0,0.256-0.049,0.354-0.146l0.753-0.752c0.195-0.195,0.195-0.512,0-0.707
		s-0.512-0.195-0.707,0l-0.753,0.752c-0.195,0.195-0.195,0.512,0,0.707C11.951,3.386,12.079,3.435,12.207,3.435z"/>
	<path fill="#535455" d="M12.561,9.657c-0.195-0.195-0.512-0.195-0.707,0s-0.195,0.512,0,0.707l0.753,0.752
		c0.098,0.098,0.226,0.146,0.354,0.146s0.256-0.049,0.354-0.146c0.195-0.195,0.195-0.512,0-0.707L12.561,9.657z"/>
	<path fill="#535455" d="M3.439,9.657l-0.752,0.752c-0.195,0.195-0.195,0.512,0,0.707c0.098,0.098,0.226,0.146,0.354,0.146
		s0.256-0.049,0.354-0.146l0.752-0.752c0.195-0.195,0.195-0.512,0-0.707S3.635,9.461,3.439,9.657z"/>
	<path fill="#535455" d="M2.894,6.465c0-0.276-0.224-0.5-0.5-0.5H1.412c-0.276,0-0.5,0.224-0.5,0.5s0.224,0.5,0.5,0.5h0.981
		C2.67,6.965,2.894,6.742,2.894,6.465z"/>
	<path fill="#535455" d="M14.588,5.965h-0.981c-0.276,0-0.5,0.224-0.5,0.5s0.224,0.5,0.5,0.5h0.981c0.276,0,0.5-0.224,0.5-0.5
		S14.864,5.965,14.588,5.965z"/>
</g>
</svg>
