<?xml version="1.0" encoding="utf-8"?>
<!-- Generator: Adobe Illustrator 17.0.0, SVG Export Plug-In . SVG Version: 6.00 Build 0)  -->
<!DOCTYPE svg PUBLIC "-//W3C//DTD SVG 1.1//EN" "http://www.w3.org/Graphics/SVG/1.1/DTD/svg11.dtd">
<svg version="1.1" id="图层_1" xmlns="http://www.w3.org/2000/svg" xmlns:xlink="http://www.w3.org/1999/xlink" x="0px" y="0px"
	 width="16px" height="16px" viewBox="0 0 16 16" enable-background="new 0 0 16 16" xml:space="preserve">
<g>
	<path fill="#515151" d="M8.168,9.061C7.951,9.232,7.914,9.547,8.085,9.763c0.471,0.597,0.424,1.449-0.109,1.983l-1.385,1.385
		c-0.566,0.566-1.555,0.566-2.121,0l-1.614-1.613c-0.585-0.585-0.585-1.536,0-2.121l1.385-1.385c0.533-0.533,1.385-0.582,1.983-0.11
		c0.217,0.171,0.531,0.134,0.702-0.083c0.171-0.217,0.133-0.531-0.084-0.702C5.848,6.333,4.425,6.413,3.533,7.305L2.149,8.69
		c-0.975,0.975-0.975,2.561,0,3.535l1.613,1.613c0.472,0.473,1.1,0.732,1.768,0.732s1.296-0.26,1.768-0.732l1.385-1.385
		c0.892-0.893,0.972-2.315,0.188-3.31C8.698,8.926,8.383,8.889,8.168,9.061z"/>
	<path fill="#515151" d="M13.85,3.751l-1.614-1.613c-0.942-0.943-2.588-0.944-3.535,0L7.316,3.522
		c-0.892,0.892-0.973,2.315-0.188,3.31C7.299,7.049,7.615,7.087,7.83,6.915C8.047,6.744,8.084,6.43,7.913,6.213
		C7.442,5.616,7.489,4.763,8.022,4.23l1.385-1.385c0.567-0.567,1.556-0.567,2.121,0l1.614,1.613c0.584,0.585,0.584,1.536,0,2.121
		l-1.385,1.385c-0.533,0.534-1.384,0.582-1.983,0.11c-0.216-0.171-0.53-0.135-0.702,0.082c-0.17,0.217-0.133,0.531,0.084,0.702
		c0.457,0.361,1.005,0.54,1.551,0.54c0.641,0,1.276-0.245,1.759-0.728l1.385-1.385C14.825,6.311,14.825,4.725,13.85,3.751z"/>
	<path fill="#515151" d="M4.979,11.008c0.098,0.098,0.226,0.146,0.354,0.146s0.256-0.049,0.354-0.146l5.333-5.333
		c0.195-0.195,0.195-0.512,0-0.707s-0.512-0.195-0.707,0L4.98,10.301C4.784,10.496,4.784,10.812,4.979,11.008z"/>
</g>
</svg>
