<?xml version="1.0" encoding="utf-8"?>
<!-- Generator: Adobe Illustrator 17.0.0, SVG Export Plug-In . SVG Version: 6.00 Build 0)  -->
<!DOCTYPE svg PUBLIC "-//W3C//DTD SVG 1.1//EN" "http://www.w3.org/Graphics/SVG/1.1/DTD/svg11.dtd">
<svg version="1.1" id="图层_1" xmlns="http://www.w3.org/2000/svg" xmlns:xlink="http://www.w3.org/1999/xlink" x="0px" y="0px"
	 width="16px" height="16px" viewBox="0 0 16 16" enable-background="new 0 0 16 16" xml:space="preserve">
<g>
	<path fill="#515151" d="M5.07,2.591H3.409c-0.904,0-1.637,0.733-1.637,1.637v1.661c0,0.904,0.733,1.637,1.637,1.637H5.07
		c0.904,0,1.637-0.733,1.637-1.637V4.228C6.707,3.324,5.974,2.591,5.07,2.591z M5.707,5.889c0,0.351-0.286,0.637-0.637,0.637H3.409
		c-0.351,0-0.637-0.286-0.637-0.637V4.228c0-0.351,0.286-0.637,0.637-0.637H5.07c0.351,0,0.637,0.286,0.637,0.637V5.889z"/>
	<path fill="#515151" d="M8.093,4.434h5.636c0.276,0,0.5-0.224,0.5-0.5s-0.224-0.5-0.5-0.5H8.093c-0.276,0-0.5,0.224-0.5,0.5
		S7.816,4.434,8.093,4.434z"/>
	<path fill="#515151" d="M13.729,5.684H8.093c-0.276,0-0.5,0.224-0.5,0.5s0.224,0.5,0.5,0.5h5.636c0.276,0,0.5-0.224,0.5-0.5
		S14.005,5.684,13.729,5.684z"/>
	<path fill="#515151" d="M5.07,8.473H3.409c-0.904,0-1.637,0.733-1.637,1.637v1.661c0,0.904,0.733,1.637,1.637,1.637H5.07
		c0.904,0,1.637-0.733,1.637-1.637v-1.661C6.707,9.206,5.974,8.473,5.07,8.473z M5.707,11.772c0,0.351-0.286,0.637-0.637,0.637
		H3.409c-0.351,0-0.637-0.286-0.637-0.637v-1.661c0-0.351,0.286-0.637,0.637-0.637H5.07c0.351,0,0.637,0.286,0.637,0.637V11.772z"/>
	<path fill="#515151" d="M13.729,9.317H8.093c-0.276,0-0.5,0.224-0.5,0.5s0.224,0.5,0.5,0.5h5.636c0.276,0,0.5-0.224,0.5-0.5
		S14.005,9.317,13.729,9.317z"/>
	<path fill="#515151" d="M13.729,11.567H8.093c-0.276,0-0.5,0.224-0.5,0.5s0.224,0.5,0.5,0.5h5.636c0.276,0,0.5-0.224,0.5-0.5
		S14.005,11.567,13.729,11.567z"/>
</g>
</svg>
