<?xml version="1.0" encoding="utf-8"?>
<!-- Generator: Adobe Illustrator 17.0.0, SVG Export Plug-In . SVG Version: 6.00 Build 0)  -->
<!DOCTYPE svg PUBLIC "-//W3C//DTD SVG 1.1//EN" "http://www.w3.org/Graphics/SVG/1.1/DTD/svg11.dtd">
<svg version="1.1" id="图层_1" xmlns="http://www.w3.org/2000/svg" xmlns:xlink="http://www.w3.org/1999/xlink" x="0px" y="0px"
	 width="16px" height="16px" viewBox="0 0 16 16" enable-background="new 0 0 16 16" xml:space="preserve">
<path fill="#515151" d="M14.194,13.427l-4.22-4.22c0.601-0.782,0.972-1.749,0.972-2.809c0-2.559-2.081-4.64-4.64-4.64
	c-2.558,0-4.64,2.081-4.64,4.64s2.081,4.64,4.64,4.64c1.154,0,2.198-0.439,3.011-1.139l4.202,4.202
	c0.093,0.093,0.215,0.14,0.337,0.14c0.122,0,0.244-0.047,0.337-0.14C14.38,13.915,14.38,13.613,14.194,13.427z M6.306,10.084
	c-2.032,0-3.685-1.654-3.685-3.686s1.653-3.686,3.685-3.686s3.686,1.654,3.686,3.686S8.338,10.084,6.306,10.084z"/>
</svg>
