<?xml version="1.0" encoding="utf-8"?>
<!-- Generator: Adobe Illustrator 17.0.0, SVG Export Plug-In . SVG Version: 6.00 Build 0)  -->
<!DOCTYPE svg PUBLIC "-//W3C//DTD SVG 1.1//EN" "http://www.w3.org/Graphics/SVG/1.1/DTD/svg11.dtd">
<svg version="1.1" id="图层_1" xmlns="http://www.w3.org/2000/svg" xmlns:xlink="http://www.w3.org/1999/xlink" x="0px" y="0px"
	 width="16px" height="16px" viewBox="0 0 16 16" enable-background="new 0 0 16 16" xml:space="preserve">
<g>
	<path fill="#535455" d="M11.312,1.273H4.688c-1.004,0-1.818,0.848-1.818,1.894v9.666c0,1.046,0.814,1.894,1.818,1.894h6.625
		c1.004,0,1.818-0.848,1.818-1.894V3.167C13.13,2.121,12.316,1.273,11.312,1.273z M3.62,4.261c0.024,0.005,0.046,0.014,0.071,0.014
		h8.656c0.012,0,0.021-0.006,0.033-0.007v6.057c-0.011-0.001-0.021-0.007-0.033-0.007H3.691c-0.025,0-0.047,0.01-0.071,0.014V4.261z
		 M4.688,2.023h6.625c0.589,0,1.068,0.513,1.068,1.144v0.365c-0.011-0.001-0.021-0.007-0.033-0.007H3.691
		c-0.025,0-0.047,0.01-0.071,0.014V3.167C3.62,2.537,4.099,2.023,4.688,2.023z M11.312,13.977H4.688
		c-0.589,0-1.068-0.513-1.068-1.144v-1.778c0.024,0.005,0.046,0.014,0.071,0.014h8.656c0.012,0,0.021-0.006,0.033-0.007v1.771
		C12.38,13.463,11.901,13.977,11.312,13.977z"/>
	<path fill="#535455" d="M8.019,11.399c-0.574,0-1.041,0.467-1.041,1.04c0,0.574,0.467,1.041,1.041,1.041
		c0.573,0,1.04-0.467,1.04-1.041C9.059,11.866,8.592,11.399,8.019,11.399z M8.019,12.73c-0.16,0-0.291-0.131-0.291-0.291
		s0.13-0.29,0.291-0.29s0.29,0.13,0.29,0.29S8.179,12.73,8.019,12.73z"/>
</g>
</svg>
