<?xml version="1.0" encoding="utf-8"?>
<!-- Generator: Adobe Illustrator 17.0.0, SVG Export Plug-In . SVG Version: 6.00 Build 0)  -->
<!DOCTYPE svg PUBLIC "-//W3C//DTD SVG 1.1//EN" "http://www.w3.org/Graphics/SVG/1.1/DTD/svg11.dtd">
<svg version="1.1" id="图层_1" xmlns="http://www.w3.org/2000/svg" xmlns:xlink="http://www.w3.org/1999/xlink" x="0px" y="0px"
	 width="16px" height="16px" viewBox="0 0 16 16" enable-background="new 0 0 16 16" xml:space="preserve">
<g>
	<g>
		<path fill="#515151" d="M3.296,5.203c0-0.276,0.224-0.5,0.5-0.5h6.146c0.276,0,0.5,0.224,0.5,0.5s-0.224,0.5-0.5,0.5H3.796
			C3.52,5.703,3.296,5.479,3.296,5.203z"/>
	</g>
	<g>
		<path fill="#515151" d="M3.296,8.001c0-0.276,0.224-0.5,0.5-0.5h6.146c0.276,0,0.5,0.224,0.5,0.5s-0.224,0.5-0.5,0.5H3.796
			C3.52,8.501,3.296,8.277,3.296,8.001z"/>
	</g>
	<g>
		<path fill="#515151" d="M3.296,10.797c0-0.276,0.224-0.5,0.5-0.5h6.146c0.276,0,0.5,0.224,0.5,0.5s-0.224,0.5-0.5,0.5H3.796
			C3.52,11.297,3.296,11.073,3.296,10.797z"/>
	</g>
	<g>
		<path fill="#515151" d="M11.073,6.926c0-0.182,0.208-0.183,0.287-0.104l1.285,1.285c0.079,0.079,0.079,0.208,0,0.287L11.36,9.678
			c-0.079,0.079-0.287,0.062-0.287-0.128C11.073,8.906,11.073,7.578,11.073,6.926z"/>
	</g>
</g>
</svg>
