<?xml version="1.0" encoding="utf-8"?>
<!-- Generator: Adobe Illustrator 17.0.0, SVG Export Plug-In . SVG Version: 6.00 Build 0)  -->
<!DOCTYPE svg PUBLIC "-//W3C//DTD SVG 1.1//EN" "http://www.w3.org/Graphics/SVG/1.1/DTD/svg11.dtd">
<svg version="1.1" id="图层_1" xmlns="http://www.w3.org/2000/svg" xmlns:xlink="http://www.w3.org/1999/xlink" x="0px" y="0px"
	 width="16px" height="16px" viewBox="0 0 16 16" enable-background="new 0 0 16 16" xml:space="preserve">
<g>
	<g>
		<path fill="#515151" d="M12.204,5.703H6.058c-0.276,0-0.5-0.224-0.5-0.5s0.224-0.5,0.5-0.5h6.146c0.276,0,0.5,0.224,0.5,0.5
			S12.48,5.703,12.204,5.703z"/>
	</g>
	<g>
		<path fill="#515151" d="M12.204,8.501H6.058c-0.276,0-0.5-0.224-0.5-0.5s0.224-0.5,0.5-0.5h6.146c0.276,0,0.5,0.224,0.5,0.5
			S12.48,8.501,12.204,8.501z"/>
	</g>
	<g>
		<path fill="#515151" d="M12.204,11.297H6.058c-0.276,0-0.5-0.224-0.5-0.5s0.224-0.5,0.5-0.5h6.146c0.276,0,0.5,0.224,0.5,0.5
			S12.48,11.297,12.204,11.297z"/>
	</g>
	<g>
		<path fill="#515151" d="M4.927,9.55c0,0.19-0.208,0.207-0.287,0.128L3.355,8.394c-0.079-0.079-0.079-0.208,0-0.287L4.64,6.822
			c0.079-0.079,0.287-0.078,0.287,0.104C4.927,7.578,4.927,8.906,4.927,9.55z"/>
	</g>
</g>
</svg>
