<?xml version="1.0" encoding="utf-8"?>
<!-- Generator: Adobe Illustrator 17.0.0, SVG Export Plug-In . SVG Version: 6.00 Build 0)  -->
<!DOCTYPE svg PUBLIC "-//W3C//DTD SVG 1.1//EN" "http://www.w3.org/Graphics/SVG/1.1/DTD/svg11.dtd">
<svg version="1.1" id="图层_1" xmlns="http://www.w3.org/2000/svg" xmlns:xlink="http://www.w3.org/1999/xlink" x="0px" y="0px"
	 width="16px" height="16px" viewBox="0 0 16 16" enable-background="new 0 0 16 16" xml:space="preserve">
<g>
	<g>
		<path fill="#535455" d="M9.083,13.875c-0.09,0-0.18-0.024-0.26-0.072l-4.957-3.007H3.151c-1.103,0-2-0.897-2-2V6.977
			c0-1.103,0.897-2,2-2h0.724l4.963-2.788c0.155-0.086,0.344-0.086,0.498,0.004c0.153,0.09,0.247,0.254,0.247,0.432v10.75
			c0,0.181-0.098,0.347-0.255,0.436C9.251,13.854,9.167,13.875,9.083,13.875z M3.151,5.977c-0.551,0-1,0.448-1,1v1.819
			c0,0.552,0.449,1,1,1h0.854c0.091,0,0.181,0.025,0.259,0.072l4.318,2.619V3.479L4.25,5.912C4.175,5.954,4.091,5.977,4.005,5.977
			H3.151z"/>
	</g>
	<g>
		<path fill="#535455" d="M10.372,10.043c-0.276,0-0.5-0.224-0.5-0.5s0.224-0.5,0.5-0.5c0.296,0,0.625-0.429,0.625-1.043
			s-0.329-1.043-0.625-1.043c-0.276,0-0.5-0.224-0.5-0.5s0.224-0.5,0.5-0.5c0.911,0,1.625,0.897,1.625,2.043
			S11.283,10.043,10.372,10.043z"/>
	</g>
	<g>
		<path fill="#535455" d="M14.349,8.5h-1.384c-0.276,0-0.5-0.224-0.5-0.5c0-0.276,0.224-0.5,0.5-0.5h1.384
			c0.276,0,0.5,0.224,0.5,0.5C14.849,8.277,14.625,8.5,14.349,8.5z"/>
	</g>
	<g>
		<g>
			<path fill="#535455" d="M12.506,4.847c-0.128,0-0.256-0.049-0.354-0.146c-0.195-0.195-0.195-0.512,0-0.707l0.979-0.979
				c0.195-0.195,0.512-0.195,0.707,0s0.195,0.512,0,0.707L12.86,4.701C12.762,4.799,12.634,4.847,12.506,4.847z"/>
		</g>
		<g>
			<path fill="#535455" d="M13.485,13.131c-0.128,0-0.256-0.049-0.354-0.146l-0.979-0.979c-0.195-0.195-0.195-0.512,0-0.707
				s0.512-0.195,0.707,0l0.979,0.979c0.195,0.195,0.195,0.512,0,0.707C13.741,13.082,13.613,13.131,13.485,13.131z"/>
		</g>
	</g>
</g>
</svg>
