<?xml version="1.0" encoding="utf-8"?>
<!-- Generator: Adobe Illustrator 17.0.0, SVG Export Plug-In . SVG Version: 6.00 Build 0)  -->
<!DOCTYPE svg PUBLIC "-//W3C//DTD SVG 1.1//EN" "http://www.w3.org/Graphics/SVG/1.1/DTD/svg11.dtd">
<svg version="1.1" id="图层_1" xmlns="http://www.w3.org/2000/svg" xmlns:xlink="http://www.w3.org/1999/xlink" x="0px" y="0px"
	 width="60px" height="60px" viewBox="0 0 60 60" enable-background="new 0 0 60 60" xml:space="preserve">
<g>
	<path fill="#515151" d="M28.685,39.5l1.944,1.944l2.638,0.429l0.09,2.299l1.61,1.61l0.765-0.11l-0.134,0.741l1.786,1.785
		l4.785,0.608l2.003-2.002l-11.171-11.17c1.759-3.279,1.187-7.3-1.481-9.966c-1.599-1.599-3.725-2.48-5.986-2.48
		s-4.386,0.88-5.985,2.479c-1.599,1.599-2.479,3.724-2.479,5.985c0,2.261,0.88,4.387,2.479,5.985
		c1.594,1.595,3.715,2.473,5.972,2.473C26.6,40.111,27.684,39.901,28.685,39.5z M18.57,31.653c0-1.86,0.725-3.609,2.04-4.924
		c1.315-1.315,3.064-2.04,4.924-2.04s3.609,0.725,4.924,2.04c2.312,2.312,2.711,5.86,0.969,8.628l-0.318,0.507L42.05,46.805
		l-0.423,0.422l-3.547-0.452l-0.868-0.867l0.362-2.015l-2.079,0.298l-0.663-0.663l-0.115-2.939l-3.37-0.546l-2.338-2.34
		l-0.479,0.229c-0.932,0.444-1.972,0.68-3.009,0.68c-1.856,0-3.6-0.722-4.911-2.033C19.294,35.262,18.569,33.513,18.57,31.653z"/>
	<path fill="#515151" d="M16.25,13.705c1.991,0,3.611-1.62,3.611-3.611c0-0.571-0.141-1.137-0.411-1.654c0-0.002,0-0.005,0-0.008
		V2.829c0-1.572-1.279-2.851-2.851-2.851h-0.7c-1.572,0-2.851,1.279-2.851,2.851v5.602c0,0.003,0,0.006,0,0.009
		c-0.269,0.517-0.41,1.083-0.41,1.653C12.639,12.085,14.258,13.705,16.25,13.705z M14.456,8.998l0.128-0.209l-0.035-5.958
		c0-0.745,0.606-1.351,1.351-1.351h0.7c0.745,0,1.351,0.606,1.351,1.351l-0.003,5.608L17.916,8.79l0.128,0.209
		c0.21,0.344,0.317,0.712,0.317,1.096c0,1.164-0.947,2.111-2.111,2.111s-2.111-0.947-2.111-2.111
		C14.139,9.71,14.246,9.342,14.456,8.998z"/>
	<path fill="#515151" d="M30.002,13.705c1.991,0,3.611-1.62,3.611-3.611c0-0.569-0.142-1.136-0.41-1.653c0-0.003,0-0.006,0-0.009
		V2.829c0-1.572-1.279-2.851-2.851-2.851h-0.7c-1.572,0-2.851,1.279-2.851,2.851v5.602c0,0.003,0,0.006,0,0.009
		c-0.269,0.517-0.41,1.083-0.41,1.653C26.391,12.085,28.01,13.705,30.002,13.705z M28.208,8.998l0.128-0.209l-0.035-5.958
		c0-0.745,0.606-1.351,1.351-1.351h0.7c0.745,0,1.351,0.606,1.351,1.351L31.7,8.439l-0.032,0.35l0.128,0.209
		c0.211,0.345,0.317,0.714,0.317,1.097c0,1.164-0.947,2.111-2.111,2.111s-2.111-0.947-2.111-2.112
		C27.891,9.71,27.998,9.342,28.208,8.998z"/>
	<path fill="#515151" d="M43.782,13.764c1.991,0,3.611-1.62,3.611-3.611c0-0.569-0.142-1.136-0.41-1.652c0-0.003,0-0.006,0-0.009
		V2.891c0-1.572-1.278-2.851-2.851-2.851h-0.7c-1.572,0-2.851,1.279-2.851,2.851v5.602c0,0.003,0,0.006,0,0.008
		c-0.269,0.516-0.41,1.083-0.41,1.653C40.172,12.144,41.791,13.764,43.782,13.764z M41.989,9.059l0.128-0.209l-0.035-5.958
		c0-0.745,0.605-1.351,1.351-1.351h0.7c0.745,0,1.351,0.606,1.351,1.351l-0.003,5.608l-0.032,0.35l0.128,0.209
		c0.211,0.345,0.317,0.714,0.317,1.096c0,1.164-0.947,2.111-2.111,2.111s-2.11-0.947-2.11-2.111
		C41.672,9.769,41.778,9.401,41.989,9.059z"/>
	<path fill="#515151" d="M24.865,43.593v12.149h21.239c1.572,0,2.851-1.278,2.851-2.851V23.834c0-1.572-1.278-2.851-2.851-2.851
		H13.899c-1.572,0-2.851,1.279-2.851,2.851v18.408h12.466C24.259,42.243,24.865,42.848,24.865,43.593z M12.548,23.834
		c0-0.745,0.606-1.351,1.351-1.351h32.205c0.745,0,1.351,0.606,1.351,1.351v29.058c0,0.745-0.605,1.351-1.351,1.351H26.365v-10.65
		c0-1.572-1.279-2.851-2.851-2.851H12.548V23.834z"/>
	<path fill="#515151" d="M50.707,2.393h-2.271c-0.414,0-0.75,0.336-0.75,0.75s0.336,0.75,0.75,0.75h2.271
		c0.745,0,1.351,0.606,1.351,1.351v10.818H7.947V5.244c0-0.745,0.606-1.351,1.351-1.351h2.298c0.414,0,0.75-0.336,0.75-0.75
		s-0.336-0.75-0.75-0.75H9.298c-1.572,0-2.851,1.279-2.851,2.851v40.948H6.441v0.536l13.364,13.294h0.335h0.445h30.123
		c1.572,0,2.851-1.278,2.851-2.851V5.242C53.557,3.672,52.279,2.393,50.707,2.393z M20.139,58.238L8.501,46.661h10.288
		c0.745,0,1.351,0.605,1.351,1.351v10.226H20.139z M52.057,57.17c0,0.745-0.605,1.351-1.351,1.351H21.639V48.013
		c0-1.572-1.279-2.851-2.851-2.851H7.946V17.561h44.111V57.17z"/>
	<path fill="#515151" d="M20.904,3.893h4.304c0.414,0,0.75-0.336,0.75-0.75s-0.336-0.75-0.75-0.75h-4.304
		c-0.414,0-0.75,0.336-0.75,0.75S20.49,3.893,20.904,3.893z"/>
	<path fill="#515151" d="M34.517,3.893h4.61c0.414,0,0.75-0.336,0.75-0.75s-0.336-0.75-0.75-0.75h-4.61
		c-0.414,0-0.75,0.336-0.75,0.75S34.103,3.893,34.517,3.893z"/>
	<path fill="#515151" d="M28.641,31.708c0-1.719-1.398-3.117-3.117-3.117s-3.117,1.398-3.117,3.117c0,1.719,1.398,3.117,3.117,3.117
		S28.641,33.427,28.641,31.708z M23.907,31.708c0-0.892,0.725-1.617,1.617-1.617s1.617,0.725,1.617,1.617
		c0,0.892-0.725,1.617-1.617,1.617S23.907,32.601,23.907,31.708z"/>
</g>
</svg>
