<?xml version="1.0" encoding="utf-8"?>
<!-- Generator: Adobe Illustrator 17.0.0, SVG Export Plug-In . SVG Version: 6.00 Build 0)  -->
<!DOCTYPE svg PUBLIC "-//W3C//DTD SVG 1.1//EN" "http://www.w3.org/Graphics/SVG/1.1/DTD/svg11.dtd">
<svg version="1.1" id="图层_1" xmlns="http://www.w3.org/2000/svg" xmlns:xlink="http://www.w3.org/1999/xlink" x="0px" y="0px"
	 width="16px" height="16px" viewBox="0 0 16 16" enable-background="new 0 0 16 16" xml:space="preserve">
<g>
	<g>
		<path fill="#535455" d="M1.824,12.803c-0.774,0-1.404-0.641-1.404-1.429V6.708c0-0.788,0.63-1.43,1.404-1.43
			c0.774,0,1.404,0.641,1.404,1.43v4.667C3.228,12.162,2.598,12.803,1.824,12.803z M1.824,6.253c-0.223,0-0.404,0.204-0.404,0.455
			v4.667c0,0.25,0.181,0.454,0.404,0.454c0.223,0,0.404-0.204,0.404-0.454V6.708C2.228,6.457,2.046,6.253,1.824,6.253z"/>
	</g>
	<g>
		<path fill="#535455" d="M9.492,13.399c-0.529,0-1.026-0.213-1.397-0.6l-2.398-2.497c-0.746-0.777-0.746-2.041,0-2.817l0.796-0.829
			C6.681,6.459,6.998,6.45,7.199,6.633C7.4,6.816,7.411,7.125,7.222,7.322L6.426,8.151c-0.394,0.409-0.394,1.076,0,1.485
			l2.398,2.497c0.359,0.375,0.975,0.375,1.334,0l4.132-4.304c0.394-0.409,0.394-1.076,0-1.485l-2.397-2.497
			c-0.359-0.375-0.977-0.375-1.335,0c-0.188,0.197-0.504,0.207-0.707,0.023C9.65,3.686,9.639,3.378,9.828,3.181
			c0.741-0.772,2.054-0.773,2.796,0l2.397,2.497c0.746,0.777,0.746,2.041,0,2.817l-4.132,4.304
			C10.518,13.186,10.021,13.399,9.492,13.399z"/>
	</g>
	<g>
		<path fill="#535455" d="M6.691,13.04H5.914c-1.316,0-2.388-1.1-2.388-2.453V7.413c0-1.176,0.65-1.746,1.551-2.533l0.362-0.319
			l1.429-1.107c0.216-0.168,0.53-0.133,0.702,0.079c0.172,0.21,0.136,0.517-0.081,0.684L5.745,5.606
			C4.839,6.398,4.526,6.708,4.526,7.413v3.174c0,0.815,0.623,1.478,1.388,1.478h0.777c0.276,0,0.5,0.218,0.5,0.487
			S6.967,13.04,6.691,13.04z"/>
	</g>
	<g>
		<path fill="#535455" d="M9.043,7.655c-0.022,0-0.046,0-0.068-0.001c-0.453-0.018-0.87-0.218-1.174-0.562L7.119,6.316
			c-0.18-0.205-0.155-0.512,0.055-0.687C7.381,5.453,7.7,5.478,7.878,5.682L8.56,6.458C8.68,6.594,8.843,6.673,9.017,6.68
			c0.171-0.006,0.337-0.058,0.466-0.182c0.285-0.274,0.304-0.758,0.04-1.056L8.451,4.225C8.331,4.089,8.168,4.01,7.995,4.002
			C7.818,4.003,7.659,4.059,7.529,4.184C7.332,4.371,7.015,4.37,6.822,4.178C6.628,3.986,6.63,3.677,6.828,3.489
			c0.329-0.314,0.77-0.472,1.208-0.461c0.453,0.019,0.87,0.218,1.174,0.562l1.072,1.217c0.604,0.684,0.561,1.755-0.098,2.386
			C9.872,7.492,9.469,7.655,9.043,7.655z"/>
	</g>
</g>
</svg>
