<?xml version="1.0" encoding="utf-8"?>
<!-- Generator: Adobe Illustrator 17.0.0, SVG Export Plug-In . SVG Version: 6.00 Build 0)  -->
<!DOCTYPE svg PUBLIC "-//W3C//DTD SVG 1.1//EN" "http://www.w3.org/Graphics/SVG/1.1/DTD/svg11.dtd">
<svg version="1.1" id="图层_1" xmlns="http://www.w3.org/2000/svg" xmlns:xlink="http://www.w3.org/1999/xlink" x="0px" y="0px"
	 width="16px" height="16px" viewBox="0 0 16 16" enable-background="new 0 0 16 16" xml:space="preserve">
<g>
	<path fill="#535455" d="M5.896,9.945H3.043c-0.89,0-1.614,0.725-1.614,1.614v1.719c0,0.89,0.724,1.614,1.614,1.614h2.853
		c0.89,0,1.614-0.725,1.614-1.614v-1.719C7.51,10.67,6.786,9.945,5.896,9.945z M3.043,10.945h2.853c0.311,0,0.559,0.236,0.598,0.537
		H2.445C2.485,11.181,2.732,10.945,3.043,10.945z M5.896,13.892H3.043c-0.338,0-0.614-0.275-0.614-0.614v-0.796H6.51v0.796
		C6.51,13.617,6.235,13.892,5.896,13.892z"/>
	<path fill="#535455" d="M12.957,9.945h-2.854c-0.89,0-1.614,0.725-1.614,1.614v1.719c0,0.89,0.725,1.614,1.614,1.614h2.854
		c0.89,0,1.613-0.725,1.613-1.614v-1.719C14.57,10.67,13.847,9.945,12.957,9.945z M10.104,10.945h2.854
		c0.311,0,0.558,0.236,0.598,0.537h-4.05C9.544,11.181,9.792,10.945,10.104,10.945z M12.957,13.892h-2.854
		c-0.339,0-0.614-0.275-0.614-0.614v-0.796h4.081v0.796C13.57,13.617,13.295,13.892,12.957,13.892z"/>
	<path fill="#535455" d="M6.707,6.054h2.854c0.89,0,1.613-0.724,1.613-1.614V2.721c0-0.89-0.724-1.614-1.613-1.614H6.707
		c-0.89,0-1.614,0.724-1.614,1.614V4.44C5.093,5.33,5.817,6.054,6.707,6.054z M9.561,5.054H6.707c-0.338,0-0.614-0.275-0.614-0.614
		V3.633c0.021,0.003,0.039,0.012,0.061,0.012h3.959c0.021,0,0.04-0.01,0.061-0.012V4.44C10.174,4.779,9.898,5.054,9.561,5.054z
		 M6.707,2.108h2.854c0.314,0,0.565,0.241,0.6,0.547c-0.016-0.002-0.03-0.009-0.047-0.009H6.154c-0.017,0-0.031,0.008-0.047,0.009
		C6.142,2.349,6.392,2.108,6.707,2.108z"/>
	<path fill="#535455" d="M4.196,9.521c0.276,0,0.5-0.224,0.5-0.5c0-0.386,0.314-0.7,0.7-0.7h5.474c0.386,0,0.7,0.314,0.7,0.7
		c0,0.276,0.224,0.5,0.5,0.5s0.5-0.224,0.5-0.5c0-0.938-0.763-1.7-1.7-1.7H8.633V6.8c0-0.276-0.223-0.5-0.5-0.5s-0.5,0.224-0.5,0.5
		v0.521H5.396c-0.938,0-1.7,0.763-1.7,1.7C3.696,9.298,3.92,9.521,4.196,9.521z"/>
</g>
</svg>
