<?xml version="1.0" encoding="utf-8"?>
<!-- Generator: Adobe Illustrator 17.0.0, SVG Export Plug-In . SVG Version: 6.00 Build 0)  -->
<!DOCTYPE svg PUBLIC "-//W3C//DTD SVG 1.1//EN" "http://www.w3.org/Graphics/SVG/1.1/DTD/svg11.dtd">
<svg version="1.1" id="图层_1" xmlns="http://www.w3.org/2000/svg" xmlns:xlink="http://www.w3.org/1999/xlink" x="0px" y="0px"
	 width="16px" height="16px" viewBox="0 0 16 16" enable-background="new 0 0 16 16" xml:space="preserve">
<g>
	<path fill="#535455" d="M9.826,12.421H9.335C9.147,12.03,8.748,11.76,8.287,11.76H4.431c-0.462,0-0.861,0.271-1.049,0.661H2.891
		c-0.728,0-1.32,0.593-1.32,1.32s0.593,1.32,1.32,1.32h6.936c0.728,0,1.32-0.593,1.32-1.32S10.554,12.421,9.826,12.421z
		 M9.826,14.062H2.891c-0.177,0-0.32-0.144-0.32-0.32s0.144-0.32,0.32-0.32h0.878c0.276,0,0.5-0.224,0.5-0.5
		c0-0.089,0.072-0.161,0.162-0.161h3.856c0.089,0,0.161,0.072,0.161,0.161c0,0.276,0.224,0.5,0.5,0.5h0.878
		c0.177,0,0.32,0.144,0.32,0.32S10.003,14.062,9.826,14.062z"/>
	<path fill="#535455" d="M14.061,10.029l-2.737-2.738l0.848-0.848c0.252-0.251,0.391-0.586,0.391-0.942
		c0-0.346-0.136-0.67-0.375-0.919l0.327-0.327l0.48,0.48c0.098,0.098,0.226,0.146,0.354,0.146s0.256-0.049,0.354-0.146
		c0.195-0.195,0.195-0.512,0-0.707l-2.942-2.943c-0.195-0.195-0.512-0.195-0.707,0s-0.195,0.512,0,0.707l0.413,0.413L10.14,2.528
		L9.972,2.359c-0.504-0.504-1.382-0.503-1.884,0L4.604,5.842c-0.52,0.52-0.52,1.365,0,1.884l0.169,0.169L4.45,8.218L4.037,7.805
		c-0.195-0.195-0.512-0.195-0.707,0s-0.195,0.512,0,0.707l0.765,0.765c0.001,0.001,0.001,0.001,0.001,0.002S4.098,9.28,4.098,9.281
		l2.175,2.175c0.098,0.098,0.226,0.146,0.354,0.146s0.256-0.049,0.354-0.146c0.195-0.195,0.195-0.512,0-0.707l-0.48-0.48
		l0.327-0.327c0.507,0.484,1.364,0.482,1.861-0.015l0.848-0.848l2.738,2.737c0.238,0.238,0.556,0.37,0.894,0.37
		c0.337,0,0.654-0.132,0.893-0.37C14.553,11.323,14.553,10.521,14.061,10.029z M11.17,2.912l0.636,0.636l-0.323,0.323l-0.636-0.636
		L11.17,2.912z M5.157,8.925L5.48,8.602l0.636,0.636L5.793,9.561L5.157,8.925z M13.354,11.108c-0.102,0.1-0.273,0.098-0.372,0
		L9.89,8.017C9.796,7.923,9.669,7.871,9.536,7.871s-0.26,0.053-0.354,0.146L7.981,9.219c-0.125,0.125-0.346,0.125-0.471,0
		L5.312,7.02c-0.13-0.13-0.13-0.34,0-0.47l3.484-3.483c0.123-0.125,0.344-0.125,0.469,0l2.199,2.199
		c0.062,0.063,0.098,0.146,0.098,0.235s-0.035,0.172-0.098,0.235l-1.201,1.202c-0.195,0.195-0.195,0.512,0,0.707l3.091,3.091
		C13.456,10.839,13.456,11.006,13.354,11.108z"/>
</g>
</svg>
