<?xml version="1.0" encoding="utf-8"?>
<!-- Generator: Adobe Illustrator 17.0.0, SVG Export Plug-In . SVG Version: 6.00 Build 0)  -->
<!DOCTYPE svg PUBLIC "-//W3C//DTD SVG 1.1//EN" "http://www.w3.org/Graphics/SVG/1.1/DTD/svg11.dtd">
<svg version="1.1" id="图层_1" xmlns="http://www.w3.org/2000/svg" xmlns:xlink="http://www.w3.org/1999/xlink" x="0px" y="0px"
	 width="16px" height="16px" viewBox="0 0 16 16" enable-background="new 0 0 16 16" xml:space="preserve">
<path fill="#535455" d="M15.449,9.528c0-0.744-0.404-1.39-1-1.747c0-0.006,0.003-0.011,0.003-0.017V6.826
	c0-1.136-0.766-2.087-1.806-2.39l-0.871-1.769c-0.609-1.236-2.11-1.749-3.34-1.142l-6.3,2.98C2.071,4.53,2.013,4.561,1.953,4.591
	l-0.05,0.024C1.896,4.618,1.892,4.624,1.886,4.628C1.096,5.048,0.551,5.87,0.551,6.826v5.404c0,1.379,1.122,2.5,2.5,2.5h8.9
	c1.379,0,2.5-1.121,2.5-2.5v-0.958C15.046,10.915,15.449,10.27,15.449,9.528z M13.407,10.569h-1.725
	c-0.574,0-1.041-0.467-1.041-1.041s0.467-1.042,1.041-1.042h1.725c0.574,0,1.042,0.468,1.042,1.042S13.981,10.569,13.407,10.569z
	 M8.869,2.426c0.743-0.366,1.643-0.059,2.009,0.683l0.599,1.217H4.854L8.869,2.426z M13.452,12.23c0,0.827-0.673,1.5-1.5,1.5h-8.9
	c-0.827,0-1.5-0.673-1.5-1.5V6.826c0-0.564,0.316-1.05,0.777-1.306c0.001,0,0.001,0,0.002,0l0.201-0.095
	c0.163-0.06,0.336-0.098,0.52-0.098h8.9c0.827,0,1.5,0.673,1.5,1.5V7.49c-0.015,0-0.03-0.005-0.045-0.005h-1.725
	c-1.125,0-2.041,0.916-2.041,2.042c0,1.125,0.916,2.041,2.041,2.041h1.725c0.015,0,0.03-0.004,0.045-0.005V12.23z"/>
</svg>
