<?xml version="1.0" encoding="utf-8"?>
<!-- Generator: Adobe Illustrator 17.0.0, SVG Export Plug-In . SVG Version: 6.00 Build 0)  -->
<!DOCTYPE svg PUBLIC "-//W3C//DTD SVG 1.1//EN" "http://www.w3.org/Graphics/SVG/1.1/DTD/svg11.dtd">
<svg version="1.1" id="图层_1" xmlns="http://www.w3.org/2000/svg" xmlns:xlink="http://www.w3.org/1999/xlink" x="0px" y="0px"
	 width="16px" height="16px" viewBox="0 0 16 16" enable-background="new 0 0 16 16" xml:space="preserve">
<g>
	<path fill="#535455" d="M6.607,3.074h2.875c0.276,0,0.5-0.224,0.5-0.5s-0.224-0.5-0.5-0.5H6.607c-0.276,0-0.5,0.224-0.5,0.5
		S6.331,3.074,6.607,3.074z"/>
	<path fill="#535455" d="M13.247,2.09c-0.271-0.072-0.54,0.089-0.611,0.356c-0.07,0.267,0.089,0.541,0.355,0.611
		c0.657,0.173,1.115,0.77,1.115,1.45V5.4H1.919c-0.009,0-0.017,0.005-0.026,0.005V4.507c0-0.663,0.425-1.239,1.057-1.433
		c0.264-0.082,0.412-0.361,0.331-0.625C3.199,2.185,2.919,2.034,2.656,2.118C1.602,2.443,0.893,3.403,0.893,4.507v7.951
		c0,1.379,1.122,2.5,2.5,2.5h9.213c1.379,0,2.5-1.121,2.5-2.5V4.507C15.106,3.373,14.342,2.379,13.247,2.09z M14.106,12.458
		c0,0.827-0.673,1.5-1.5,1.5H3.393c-0.827,0-1.5-0.673-1.5-1.5V6.395C1.902,6.395,1.91,6.4,1.919,6.4h12.187V12.458z"/>
	<path fill="#535455" d="M4.617,4.105c0.632,0,1.146-0.514,1.146-1.146v-0.77c0-0.632-0.514-1.146-1.146-1.146
		c-0.632,0-1.146,0.514-1.146,1.146v0.77C3.47,3.591,3.984,4.105,4.617,4.105z M4.47,2.188c0-0.081,0.066-0.146,0.146-0.146
		s0.146,0.065,0.146,0.146v0.77c0,0.161-0.292,0.161-0.292,0V2.188z"/>
	<path fill="#535455" d="M11.364,4.105c0.632,0,1.146-0.514,1.146-1.146v-0.77c0-0.632-0.515-1.146-1.146-1.146
		s-1.146,0.514-1.146,1.146v0.77C10.218,3.591,10.732,4.105,11.364,4.105z M11.218,2.188c0-0.081,0.065-0.146,0.146-0.146
		s0.146,0.065,0.146,0.146v0.77c0,0.161-0.293,0.161-0.293,0V2.188z"/>
	<path fill="#535455" d="M3.836,12.682c0.276,0,0.5-0.224,0.5-0.5V8.065c0-0.276-0.224-0.5-0.5-0.5s-0.5,0.224-0.5,0.5v4.117
		C3.336,12.458,3.56,12.682,3.836,12.682z"/>
	<path fill="#535455" d="M5.923,12.682c0.276,0,0.5-0.224,0.5-0.5V9.525c0-0.276-0.224-0.5-0.5-0.5s-0.5,0.224-0.5,0.5v2.656
		C5.423,12.458,5.646,12.682,5.923,12.682z"/>
	<path fill="#535455" d="M8.009,12.682c0.276,0,0.5-0.224,0.5-0.5V9.525c0-0.276-0.224-0.5-0.5-0.5s-0.5,0.224-0.5,0.5v2.656
		C7.509,12.458,7.732,12.682,8.009,12.682z"/>
	<path fill="#535455" d="M10.095,12.682c0.276,0,0.5-0.224,0.5-0.5V8.065c0-0.276-0.224-0.5-0.5-0.5s-0.5,0.224-0.5,0.5v4.117
		C9.595,12.458,9.818,12.682,10.095,12.682z"/>
	<path fill="#535455" d="M12.182,12.682c0.276,0,0.5-0.224,0.5-0.5v-2.059c0-0.276-0.224-0.5-0.5-0.5s-0.5,0.224-0.5,0.5v2.059
		C11.682,12.458,11.905,12.682,12.182,12.682z"/>
</g>
</svg>
