<?xml version="1.0" encoding="utf-8"?>
<!-- Generator: Adobe Illustrator 17.0.0, SVG Export Plug-In . SVG Version: 6.00 Build 0)  -->
<!DOCTYPE svg PUBLIC "-//W3C//DTD SVG 1.1//EN" "http://www.w3.org/Graphics/SVG/1.1/DTD/svg11.dtd">
<svg version="1.1" id="图层_1" xmlns="http://www.w3.org/2000/svg" xmlns:xlink="http://www.w3.org/1999/xlink" x="0px" y="0px"
	 width="16px" height="16px" viewBox="0 0 16 16" enable-background="new 0 0 16 16" xml:space="preserve">
<g>
	<path fill="#535455" d="M6.607,3.073h2.875c0.276,0,0.5-0.224,0.5-0.5s-0.224-0.5-0.5-0.5H6.607c-0.276,0-0.5,0.224-0.5,0.5
		S6.33,3.073,6.607,3.073z"/>
	<path fill="#535455" d="M13.247,2.09c-0.27-0.069-0.54,0.089-0.611,0.356c-0.07,0.267,0.089,0.541,0.355,0.611
		c0.657,0.173,1.116,0.77,1.116,1.451V5.4H1.919c-0.009,0-0.017,0.005-0.026,0.005V4.508c0-0.663,0.425-1.239,1.057-1.434
		c0.264-0.081,0.412-0.361,0.33-0.625c-0.081-0.264-0.36-0.413-0.625-0.33C1.601,2.444,0.893,3.404,0.893,4.508v7.95
		c0,1.379,1.122,2.5,2.5,2.5h9.214c1.379,0,2.5-1.121,2.5-2.5v-7.95C15.107,3.373,14.343,2.379,13.247,2.09z M12.607,13.958H3.393
		c-0.827,0-1.5-0.673-1.5-1.5V6.395C1.902,6.395,1.91,6.4,1.919,6.4h12.188v6.058C14.107,13.285,13.434,13.958,12.607,13.958z"/>
	<path fill="#535455" d="M4.616,4.105c0.632,0,1.146-0.514,1.146-1.146v-0.77c0-0.632-0.514-1.146-1.146-1.146
		S3.47,1.556,3.47,2.188v0.77C3.47,3.591,3.985,4.105,4.616,4.105z M4.47,2.188c0-0.081,0.065-0.146,0.146-0.146
		s0.146,0.065,0.146,0.146v0.77c0,0.161-0.292,0.161-0.292,0V2.188z"/>
	<path fill="#535455" d="M11.364,4.105c0.632,0,1.146-0.514,1.146-1.146v-0.77c0-0.632-0.515-1.146-1.146-1.146
		s-1.146,0.514-1.146,1.146v0.77C10.219,3.591,10.732,4.105,11.364,4.105z M11.219,2.188c0-0.081,0.065-0.146,0.146-0.146
		c0.081,0,0.146,0.065,0.146,0.146v0.77c0,0.161-0.292,0.163-0.292,0V2.188z"/>
	<path fill="#535455" d="M10.208,9.355c0.276,0,0.5-0.224,0.5-0.5s-0.224-0.5-0.5-0.5H9.305L10.03,7.63
		c0.195-0.195,0.195-0.512,0-0.707s-0.512-0.195-0.707,0l-1.27,1.27L6.807,6.947c-0.195-0.195-0.512-0.195-0.707,0
		s-0.195,0.512,0,0.707l0.701,0.701H5.81c-0.276,0-0.5,0.224-0.5,0.5s0.224,0.5,0.5,0.5h1.699v0.917H5.81
		c-0.276,0-0.5,0.224-0.5,0.5s0.224,0.5,0.5,0.5h1.699v1.699c0,0.276,0.224,0.5,0.5,0.5s0.5-0.224,0.5-0.5v-1.699h1.699
		c0.276,0,0.5-0.224,0.5-0.5s-0.224-0.5-0.5-0.5H8.509V9.355H10.208z"/>
</g>
</svg>
