<?xml version="1.0" encoding="utf-8"?>
<!-- Generator: Adobe Illustrator 17.0.0, SVG Export Plug-In . SVG Version: 6.00 Build 0)  -->
<!DOCTYPE svg PUBLIC "-//W3C//DTD SVG 1.1//EN" "http://www.w3.org/Graphics/SVG/1.1/DTD/svg11.dtd">
<svg version="1.1" id="图层_1" xmlns="http://www.w3.org/2000/svg" xmlns:xlink="http://www.w3.org/1999/xlink" x="0px" y="0px"
	 width="16px" height="16px" viewBox="0 0 16 16" enable-background="new 0 0 16 16" xml:space="preserve">
<g>
	<g>
		<path fill="none" stroke="#535455" stroke-linecap="round" stroke-miterlimit="10" d="M13.084,9.305"/>
	</g>
	<g>
		<path fill="none" stroke="#535455" stroke-linecap="round" stroke-miterlimit="10" d="M13.084,12.867"/>
	</g>
	<g>
		<path fill="#535455" d="M7.964,8.413c-3.959,0-7.061-1.647-7.061-3.75s3.102-3.75,7.061-3.75s7.061,1.647,7.061,3.75
			S11.924,8.413,7.964,8.413z M7.964,1.913c-3.572,0-6.061,1.449-6.061,2.75s2.489,2.75,6.061,2.75s6.061-1.449,6.061-2.75
			S11.536,1.913,7.964,1.913z"/>
	</g>
	<g>
		<path fill="#535455" d="M7.964,10.659c-3.672,0-6.623-1.396-7.017-3.317c-0.056-0.271,0.119-0.535,0.389-0.59
			C1.609,6.695,1.872,6.87,1.927,7.14c0.249,1.211,2.627,2.519,6.038,2.519c3.47,0,5.839-1.33,6.045-2.562
			c0.045-0.272,0.308-0.46,0.575-0.411c0.272,0.045,0.457,0.303,0.411,0.576C14.673,9.198,11.65,10.659,7.964,10.659z"/>
	</g>
	<g>
		<path fill="#535455" d="M7.964,12.873c-3.672,0-6.623-1.395-7.017-3.316C0.892,9.286,1.066,9.021,1.336,8.965
			c0.273-0.056,0.535,0.119,0.59,0.39c0.248,1.211,2.627,2.518,6.038,2.518c3.47,0,5.84-1.329,6.045-2.561
			c0.045-0.273,0.308-0.457,0.575-0.411c0.272,0.046,0.457,0.303,0.411,0.575C14.673,11.413,11.65,12.873,7.964,12.873z"/>
	</g>
	<g>
		<path fill="#535455" d="M8.058,15.087c-3.672,0-6.623-1.396-7.017-3.317C0.986,11.5,1.16,11.235,1.431,11.179
			c0.272-0.055,0.535,0.119,0.59,0.39c0.248,1.211,2.627,2.519,6.037,2.519c3.471,0,5.84-1.329,6.045-2.562
			c0.046-0.272,0.309-0.457,0.575-0.411c0.272,0.045,0.456,0.303,0.411,0.575C14.768,13.626,11.745,15.087,8.058,15.087z"/>
	</g>
	<path fill="#535455" d="M9.548,4.628H8.47V4.252h1.078c0.276,0,0.5-0.224,0.5-0.5s-0.224-0.5-0.5-0.5H9.241l0.279-0.279
		c0.195-0.195,0.195-0.512,0-0.707s-0.512-0.195-0.707,0L8.002,3.077L7.208,2.283c-0.195-0.195-0.512-0.195-0.707,0
		s-0.195,0.512,0,0.707l0.262,0.262h-0.37c-0.276,0-0.5,0.224-0.5,0.5s0.224,0.5,0.5,0.5H7.47v0.375H6.393
		c-0.276,0-0.5,0.224-0.5,0.5s0.224,0.5,0.5,0.5H7.47v1.078c0,0.276,0.224,0.5,0.5,0.5c0.276,0,0.5-0.224,0.5-0.5V5.628h1.078
		c0.276,0,0.5-0.224,0.5-0.5S9.824,4.628,9.548,4.628z"/>
	<g>
		<path fill="none" stroke="#535455" stroke-linecap="round" stroke-miterlimit="10" d="M12.144,8.902"/>
	</g>
</g>
</svg>
