<?xml version="1.0" encoding="utf-8"?>
<!-- Generator: Adobe Illustrator 17.0.0, SVG Export Plug-In . SVG Version: 6.00 Build 0)  -->
<!DOCTYPE svg PUBLIC "-//W3C//DTD SVG 1.1//EN" "http://www.w3.org/Graphics/SVG/1.1/DTD/svg11.dtd">
<svg version="1.1" id="图层_1" xmlns="http://www.w3.org/2000/svg" xmlns:xlink="http://www.w3.org/1999/xlink" x="0px" y="0px"
	 width="16px" height="16px" viewBox="0 0 16 16" enable-background="new 0 0 16 16" xml:space="preserve">
<g>
	<path fill="#535455" d="M11.718,2.035c-0.276,0-0.5,0.224-0.5,0.5s0.224,0.5,0.5,0.5c0.771,0,1.396,0.626,1.396,1.396v8.454
		c0,0.77-0.626,1.396-1.396,1.396H4.282c-0.771,0-1.396-0.626-1.396-1.396V4.431c0-0.77,0.626-1.396,1.396-1.396
		c0.276,0,0.5-0.224,0.5-0.5s-0.224-0.5-0.5-0.5c-1.321,0-2.396,1.075-2.396,2.396v8.454c0,1.321,1.075,2.396,2.396,2.396h7.436
		c1.321,0,2.396-1.074,2.396-2.396V4.431C14.114,3.11,13.039,2.035,11.718,2.035z"/>
	<path fill="#535455" d="M4.558,3.725c0,0.905,0.736,1.641,1.641,1.641h3.719c0.904,0,1.641-0.736,1.641-1.641
		c0-0.743-0.5-1.365-1.179-1.566C10.186,1.336,9.45,0.719,8.568,0.719H7.432c-0.896,0-1.645,0.635-1.823,1.479
		C4.995,2.436,4.558,3.029,4.558,3.725z M7.432,1.719h1.137c0.286,0,0.529,0.149,0.686,0.365H6.746
		C6.903,1.869,7.145,1.719,7.432,1.719z M6.198,3.084h3.719c0.354,0,0.641,0.288,0.641,0.641c0,0.354-0.287,0.641-0.641,0.641H6.198
		c-0.354,0-0.641-0.288-0.641-0.641C5.558,3.372,5.845,3.084,6.198,3.084z"/>
	<path fill="#535455" d="M10.495,8.605c0.276,0,0.5-0.224,0.5-0.5s-0.224-0.5-0.5-0.5H9.363l0.897-0.897
		c0.195-0.195,0.195-0.512,0-0.707s-0.512-0.195-0.707,0L8.106,7.447L6.687,6.028c-0.195-0.195-0.512-0.195-0.707,0
		s-0.195,0.512,0,0.707l0.87,0.87H5.62c-0.276,0-0.5,0.224-0.5,0.5s0.224,0.5,0.5,0.5h1.938V9.73H5.62c-0.276,0-0.5,0.224-0.5,0.5
		s0.224,0.5,0.5,0.5h1.938v1.938c0,0.276,0.224,0.5,0.5,0.5s0.5-0.224,0.5-0.5V10.73h1.938c0.276,0,0.5-0.224,0.5-0.5
		s-0.224-0.5-0.5-0.5H8.558V8.605H10.495z"/>
</g>
</svg>
