<?xml version="1.0" encoding="utf-8"?>
<!-- Generator: Adobe Illustrator 17.0.0, SVG Export Plug-In . SVG Version: 6.00 Build 0)  -->
<!DOCTYPE svg PUBLIC "-//W3C//DTD SVG 1.1//EN" "http://www.w3.org/Graphics/SVG/1.1/DTD/svg11.dtd">
<svg version="1.1" id="图层_1" xmlns="http://www.w3.org/2000/svg" xmlns:xlink="http://www.w3.org/1999/xlink" x="0px" y="0px"
	 width="16px" height="16px" viewBox="0 0 16 16" enable-background="new 0 0 16 16" xml:space="preserve">
<path fill="#535455" d="M13.154,1.785H2.845c-0.804,0-1.456,0.652-1.456,1.456v6.564c0,0.804,0.652,1.456,1.456,1.456h4.269v1.879
	H3.831c-0.297,0-0.538,0.241-0.538,0.538s0.241,0.538,0.538,0.538h8.337c0.297,0,0.538-0.241,0.538-0.538s-0.241-0.538-0.538-0.538
	H8.885v-1.879h4.269c0.804,0,1.456-0.652,1.456-1.456V3.241C14.61,2.437,13.959,1.785,13.154,1.785z"/>
</svg>
