<?xml version="1.0" encoding="utf-8"?>
<!-- Generator: Adobe Illustrator 17.0.0, SVG Export Plug-In . SVG Version: 6.00 Build 0)  -->
<!DOCTYPE svg PUBLIC "-//W3C//DTD SVG 1.1//EN" "http://www.w3.org/Graphics/SVG/1.1/DTD/svg11.dtd">
<svg version="1.1" id="图层_1" xmlns="http://www.w3.org/2000/svg" xmlns:xlink="http://www.w3.org/1999/xlink" x="0px" y="0px"
	 width="16px" height="16px" viewBox="0 0 16 16" enable-background="new 0 0 16 16" xml:space="preserve">
<g>
	<path fill="#ACADB0" d="M11.469,4.192H4.531c-0.551,0-1,0.448-1,1v3.852c0,0.552,0.449,1,1,1h6.938c0.551,0,1-0.448,1-1V5.192
		C12.469,4.64,12.02,4.192,11.469,4.192z"/>
	<path fill="#ACADB0" d="M13.104,0.896H2.896c-1.105,0-2,0.895-2,2v10.208c0,1.105,0.895,2,2,2h10.208c1.105,0,2-0.895,2-2V2.896
		C15.104,1.791,14.209,0.896,13.104,0.896z M10.795,12.808h-5.59c-0.276,0-0.5-0.224-0.5-0.5s0.224-0.5,0.5-0.5h5.59
		c0.276,0,0.5,0.224,0.5,0.5S11.071,12.808,10.795,12.808z M13.469,9.044c0,1.103-0.897,2-2,2H4.531c-1.103,0-2-0.897-2-2V5.192
		c0-1.103,0.897-2,2-2h6.938c1.103,0,2,0.897,2,2V9.044z"/>
</g>
</svg>
