<?xml version="1.0" encoding="utf-8"?>
<!-- Generator: Adobe Illustrator 17.0.0, SVG Export Plug-In . SVG Version: 6.00 Build 0)  -->
<!DOCTYPE svg PUBLIC "-//W3C//DTD SVG 1.1//EN" "http://www.w3.org/Graphics/SVG/1.1/DTD/svg11.dtd">
<svg version="1.1" id="图层_1" xmlns="http://www.w3.org/2000/svg" xmlns:xlink="http://www.w3.org/1999/xlink" x="0px" y="0px"
	 width="16px" height="16px" viewBox="0 0 16 16" enable-background="new 0 0 16 16" xml:space="preserve">
<g>
	<path fill="#535455" d="M12.535,3.185c-0.276,0-0.5,0.224-0.5,0.5s0.224,0.5,0.5,0.5c0.827,0,1.5,0.673,1.5,1.497l-0.044,6.125
		c0,0.827-0.673,1.5-1.5,1.5H3.465c-0.827,0-1.5-0.673-1.5-1.496l0.044-6.126c0-0.827,0.673-1.5,1.5-1.5h3.554
		c0.276,0,0.5-0.224,0.5-0.5s-0.224-0.5-0.5-0.5H3.509c-1.378,0-2.5,1.122-2.5,2.497l-0.044,6.125c0,1.379,1.122,2.5,2.5,2.5h9.027
		c1.379,0,2.5-1.121,2.5-2.496l0.044-6.126C15.035,4.306,13.914,3.185,12.535,3.185z"/>
	<path fill="#535455" d="M3.236,7.209h3.742c0.276,0,0.5-0.224,0.5-0.5s-0.224-0.5-0.5-0.5H3.236c-0.276,0-0.5,0.224-0.5,0.5
		S2.96,7.209,3.236,7.209z"/>
	<path fill="#535455" d="M3.236,9.211h3.742c0.276,0,0.5-0.224,0.5-0.5s-0.224-0.5-0.5-0.5H3.236c-0.276,0-0.5,0.224-0.5,0.5
		S2.96,9.211,3.236,9.211z"/>
	<path fill="#535455" d="M2.854,10.781c0,0.276,0.224,0.5,0.5,0.5h4.673c0.276,0,0.5-0.224,0.5-0.5s-0.224-0.5-0.5-0.5H3.354
		C3.077,10.281,2.854,10.505,2.854,10.781z"/>
	<path fill="#535455" d="M9.666,11.718c0.08,0.182,0.26,0.299,0.458,0.299s0.378-0.117,0.458-0.299L11.8,8.946
		c0.027-0.063,0.042-0.132,0.042-0.201V3.411c0-0.947-0.771-1.717-1.718-1.717c-0.946,0-1.717,0.771-1.717,1.717v5.334
		c0,0.069,0.014,0.138,0.042,0.201L9.666,11.718z M10.124,10.273L9.658,9.211h0.933L10.124,10.273z M10.124,2.693
		c0.396,0,0.718,0.322,0.718,0.717v4.8H9.407v-4.8C9.407,3.015,9.729,2.693,10.124,2.693z"/>
</g>
</svg>
