<?xml version="1.0" encoding="utf-8"?>
<!-- Generator: Adobe Illustrator 17.0.0, SVG Export Plug-In . SVG Version: 6.00 Build 0)  -->
<!DOCTYPE svg PUBLIC "-//W3C//DTD SVG 1.1//EN" "http://www.w3.org/Graphics/SVG/1.1/DTD/svg11.dtd">
<svg version="1.1" id="图层_1" xmlns="http://www.w3.org/2000/svg" xmlns:xlink="http://www.w3.org/1999/xlink" x="0px" y="0px"
	 width="16px" height="16px" viewBox="0 0 16 16" enable-background="new 0 0 16 16" xml:space="preserve">
<g>
	<path fill="#515151" d="M8,2.29C4.847,2.29,2.29,4.847,2.29,8S4.847,13.71,8,13.71s5.71-2.556,5.71-5.71S11.153,2.29,8,2.29z
		 M7.666,11.668c-0.292,0-0.528-0.237-0.528-0.528s0.237-0.528,0.528-0.528s0.528,0.237,0.528,0.528S7.958,11.668,7.666,11.668z
		 M8.166,8.93v0.694c0,0.276-0.224,0.5-0.5,0.5s-0.5-0.224-0.5-0.5v-1.15c0-0.276,0.224-0.5,0.5-0.5
		c0.012,0,0.022,0.006,0.034,0.007C7.712,7.98,7.722,7.974,7.734,7.974c0.729,0,1.321-0.592,1.321-1.321S8.463,5.332,7.734,5.332
		c-0.354,0-0.686,0.138-0.936,0.389C6.604,5.918,6.287,5.917,6.091,5.722C5.896,5.527,5.896,5.21,6.09,5.015
		c0.439-0.44,1.023-0.683,1.644-0.683c1.28,0,2.321,1.042,2.321,2.321C10.056,7.785,9.24,8.727,8.166,8.93z"/>
</g>
</svg>
