<?xml version="1.0" encoding="utf-8"?>
<!-- Generator: Adobe Illustrator 17.0.0, SVG Export Plug-In . SVG Version: 6.00 Build 0)  -->
<!DOCTYPE svg PUBLIC "-//W3C//DTD SVG 1.1//EN" "http://www.w3.org/Graphics/SVG/1.1/DTD/svg11.dtd">
<svg version="1.1" id="图层_1" xmlns="http://www.w3.org/2000/svg" xmlns:xlink="http://www.w3.org/1999/xlink" x="0px" y="0px"
	 width="16px" height="16px" viewBox="0 0 16 16" enable-background="new 0 0 16 16" xml:space="preserve">
<g>
	<g>
		<path fill="#535455" d="M6.794,14.689c-3.229,0-5.857-2.627-5.857-5.856s2.627-5.857,5.857-5.857c0.276,0,0.5,0.224,0.5,0.5v1.604
			c0,0.276-0.224,0.5-0.5,0.5s-0.5-0.224-0.5-0.5V4.001C3.85,4.252,1.937,6.324,1.937,8.832c0,2.678,2.179,4.856,4.857,4.856
			c2.678,0,4.856-2.179,4.856-4.856c0-0.276,0.224-0.5,0.5-0.5s0.5,0.224,0.5,0.5C12.651,12.062,10.024,14.689,6.794,14.689z"/>
	</g>
	<g>
		<path fill="#535455" d="M8.813,11.63c-0.133,0-0.266-0.053-0.364-0.157L6.386,9.285C6.299,9.193,6.25,9.071,6.25,8.943V6.577
			c0-0.276,0.224-0.5,0.5-0.5s0.5,0.224,0.5,0.5v2.167l1.927,2.043c0.189,0.201,0.18,0.518-0.021,0.707
			C9.059,11.585,8.936,11.63,8.813,11.63z"/>
	</g>
	<g>
		<path fill="#535455" d="M12.036,7.029c-0.132,0-0.259-0.052-0.354-0.146L9.517,4.715l-0.981,1.69
			c-0.14,0.24-0.446,0.319-0.684,0.182C7.613,6.449,7.531,6.142,7.67,5.904l1.308-2.252c0.078-0.134,0.214-0.225,0.368-0.245
			c0.153-0.023,0.308,0.032,0.418,0.142l2.149,2.15l2.209-4.124c0.131-0.244,0.436-0.334,0.677-0.205
			c0.243,0.13,0.335,0.434,0.204,0.677l-2.526,4.718C12.403,6.905,12.266,7,12.11,7.023C12.085,7.027,12.061,7.029,12.036,7.029z"/>
	</g>
</g>
</svg>
