<?xml version="1.0" encoding="utf-8"?>
<!-- Generator: Adobe Illustrator 17.0.0, SVG Export Plug-In . SVG Version: 6.00 Build 0)  -->
<!DOCTYPE svg PUBLIC "-//W3C//DTD SVG 1.1//EN" "http://www.w3.org/Graphics/SVG/1.1/DTD/svg11.dtd">
<svg version="1.1" id="图层_1" xmlns="http://www.w3.org/2000/svg" xmlns:xlink="http://www.w3.org/1999/xlink" x="0px" y="0px"
	 width="16px" height="16px" viewBox="0 0 16 16" enable-background="new 0 0 16 16" xml:space="preserve">
<g>
	<path fill="#535455" d="M13.417,3.091h-1.333V2.364c0-0.276-0.224-0.5-0.5-0.5s-0.5,0.224-0.5,0.5v0.727H4.917V2.364
		c0-0.276-0.224-0.5-0.5-0.5s-0.5,0.224-0.5,0.5v0.727H2.583c-0.827,0-1.5,0.673-1.5,1.5v8.044c0,0.827,0.673,1.5,1.5,1.5h10.833
		c0.827,0,1.5-0.673,1.5-1.5V4.591C14.917,3.764,14.244,3.091,13.417,3.091z M13.917,12.636c0,0.275-0.225,0.5-0.5,0.5H2.583
		c-0.276,0-0.5-0.225-0.5-0.5V4.591c0-0.276,0.224-0.5,0.5-0.5h1.333v0.498c0,0.276,0.224,0.5,0.5,0.5s0.5-0.224,0.5-0.5V4.091
		h6.167v0.498c0,0.276,0.224,0.5,0.5,0.5s0.5-0.224,0.5-0.5V4.091h1.333c0.275,0,0.5,0.224,0.5,0.5V12.636z"/>
	<path fill="#535455" d="M11.261,7.228H3.324c-0.276,0-0.5,0.224-0.5,0.5s0.224,0.5,0.5,0.5h7.938c0.276,0,0.5-0.224,0.5-0.5
		S11.538,7.228,11.261,7.228z"/>
	<path fill="#535455" d="M11.261,9.165H3.324c-0.276,0-0.5,0.224-0.5,0.5s0.224,0.5,0.5,0.5h7.938c0.276,0,0.5-0.224,0.5-0.5
		S11.538,9.165,11.261,9.165z"/>
	<path fill="#535455" d="M7.829,11.021H3.12c-0.276,0-0.5,0.224-0.5,0.5s0.224,0.5,0.5,0.5h4.708c0.276,0,0.5-0.224,0.5-0.5
		S8.105,11.021,7.829,11.021z"/>
</g>
</svg>
