<?xml version="1.0" encoding="utf-8"?>
<!-- Generator: Adobe Illustrator 17.0.0, SVG Export Plug-In . SVG Version: 6.00 Build 0)  -->
<!DOCTYPE svg PUBLIC "-//W3C//DTD SVG 1.1//EN" "http://www.w3.org/Graphics/SVG/1.1/DTD/svg11.dtd">
<svg version="1.1" id="图层_1" xmlns="http://www.w3.org/2000/svg" xmlns:xlink="http://www.w3.org/1999/xlink" x="0px" y="0px"
	 width="200px" height="200px" viewBox="0 0 200 200" enable-background="new 0 0 200 200" xml:space="preserve">
<path fill="#040000" d="M4.055,57.251C4.09,27.886,27.886,4.09,57.251,4.055h85.498c29.365,0.035,53.161,23.831,53.196,53.196
	v85.498c-0.035,29.365-23.831,53.161-53.196,53.196H57.251C27.886,195.91,4.09,172.114,4.055,142.749V57.251z M46.825,170.734
	c9.694,0,17.553-7.859,17.553-17.553c0-9.694-7.859-17.553-17.553-17.553s-17.553,7.859-17.553,17.553
	C29.272,162.875,37.13,170.734,46.825,170.734z M121.754,146.745c-4.903-35.262-32.007-63.326-67.077-69.452
	c-6.392-0.958-12.349,3.447-13.307,9.838c-0.927,6.184,3.171,12.003,9.305,13.215c25.033,4.383,44.382,24.412,47.897,49.582
	c0.775,6.416,6.605,10.989,13.022,10.214c6.416-0.775,10.989-6.605,10.214-13.022c-0.016-0.129-0.033-0.258-0.053-0.387V146.745z
	 M181.259,147.306c-2.926-69.803-58.452-125.705-128.08-128.7c-6.46-0.199-11.858,4.877-12.057,11.337
	c-0.195,6.348,4.709,11.693,11.05,12.044c57.458,2.457,103.295,48.599,105.706,106.291c0.172,6.461,5.55,11.558,12.01,11.386
	c6.461-0.172,11.558-5.55,11.386-12.01c-0.003-0.12-0.008-0.239-0.015-0.358L181.259,147.306z"/>
</svg>
