<?xml version="1.0" encoding="utf-8"?>
<!-- Generator: Adobe Illustrator 17.0.0, SVG Export Plug-In . SVG Version: 6.00 Build 0)  -->
<!DOCTYPE svg PUBLIC "-//W3C//DTD SVG 1.1//EN" "http://www.w3.org/Graphics/SVG/1.1/DTD/svg11.dtd">
<svg version="1.1" id="图层_1" xmlns="http://www.w3.org/2000/svg" xmlns:xlink="http://www.w3.org/1999/xlink" x="0px" y="0px"
	 width="16px" height="16px" viewBox="0 0 16 16" enable-background="new 0 0 16 16" xml:space="preserve">
<g>
	<path fill="#535455" d="M12.401,0.958H3.599c-1.105,0-2,0.895-2,2v10.084c0,1.105,0.895,2,2,2h8.803c1.105,0,2-0.895,2-2V2.958
		C14.401,1.854,13.506,0.958,12.401,0.958z M7.455,1.958h1.062v1.906H7.455V1.958z M5.393,1.958h1.062v1.906H5.393V1.958z
		 M2.599,2.958c0-0.551,0.449-1,1-1h0.794v1.906H2.599V2.958z M13.401,13.042c0,0.551-0.449,1-1,1H3.599c-0.551,0-1-0.449-1-1V4.864
		h10.803V13.042z M13.401,3.864H9.518V1.958h2.883c0.551,0,1,0.449,1,1V3.864z"/>
	<path fill="#535455" d="M6.188,12.816c0.071,0.035,0.148,0.053,0.225,0.053c0.105,0,0.211-0.033,0.299-0.099l4.313-3.215
		c0.127-0.095,0.201-0.243,0.201-0.401s-0.074-0.307-0.201-0.4L6.711,5.538C6.56,5.424,6.359,5.407,6.188,5.491
		C6.019,5.576,5.912,5.749,5.912,5.938v6.431C5.912,12.558,6.019,12.731,6.188,12.816z M6.912,6.934l2.977,2.22l-2.977,2.219V6.934z
		"/>
</g>
</svg>
