<?xml version="1.0" encoding="utf-8"?>
<!-- Generator: Adobe Illustrator 17.0.0, SVG Export Plug-In . SVG Version: 6.00 Build 0)  -->
<!DOCTYPE svg PUBLIC "-//W3C//DTD SVG 1.1//EN" "http://www.w3.org/Graphics/SVG/1.1/DTD/svg11.dtd">
<svg version="1.1" id="图层_1" xmlns="http://www.w3.org/2000/svg" xmlns:xlink="http://www.w3.org/1999/xlink" x="0px" y="0px"
	 width="16px" height="16px" viewBox="0 0 16 16" enable-background="new 0 0 16 16" xml:space="preserve">
<g>
	<path fill="#535455" d="M12.401,0.958H3.599c-1.105,0-2,0.895-2,2v10.084c0,1.105,0.895,2,2,2h8.803c1.105,0,2-0.895,2-2V2.958
		C14.401,1.854,13.506,0.958,12.401,0.958z M13.401,2.958v0.906H9.518V1.958h2.883C12.953,1.958,13.401,2.407,13.401,2.958z
		 M7.455,3.865V1.958h1.062v1.906H7.455z M5.393,3.865V1.958h1.062v1.906H5.393z M3.599,1.958h0.794v1.906H2.599V2.958
		C2.599,2.407,3.047,1.958,3.599,1.958z M12.401,14.042H3.599c-0.551,0-1-0.449-1-1V4.865h10.803v8.177
		C13.401,13.593,12.953,14.042,12.401,14.042z"/>
	<path fill="#535455" d="M10.927,6.126c-0.195-0.195-0.512-0.195-0.707,0L8,8.346l-2.22-2.22c-0.195-0.195-0.512-0.195-0.707,0
		s-0.195,0.512,0,0.707l2.22,2.22l-2.22,2.22c-0.195,0.195-0.195,0.512,0,0.707c0.098,0.098,0.226,0.146,0.354,0.146
		s0.256-0.049,0.354-0.146L8,9.76l2.22,2.22c0.098,0.098,0.226,0.146,0.354,0.146s0.256-0.049,0.354-0.146
		c0.195-0.195,0.195-0.512,0-0.707l-2.22-2.22l2.22-2.22C11.122,6.638,11.122,6.321,10.927,6.126z"/>
</g>
</svg>
