<?xml version="1.0" encoding="utf-8"?>
<!-- Generator: Adobe Illustrator 17.0.0, SVG Export Plug-In . SVG Version: 6.00 Build 0)  -->
<!DOCTYPE svg PUBLIC "-//W3C//DTD SVG 1.1//EN" "http://www.w3.org/Graphics/SVG/1.1/DTD/svg11.dtd">
<svg version="1.1" id="图层_1" xmlns="http://www.w3.org/2000/svg" xmlns:xlink="http://www.w3.org/1999/xlink" x="0px" y="0px"
	 width="16px" height="16px" viewBox="0 0 16 16" enable-background="new 0 0 16 16" xml:space="preserve">
<path fill="#6D6D6D" d="M14.808,10.65c-0.002-0.046-0.007-0.09-0.011-0.135c-0.001-0.009-0.001-0.019-0.002-0.028
	c-0.061-0.648-0.299-1.175-0.767-1.621c-0.013-0.013-0.025-0.026-0.039-0.038c-0.008-0.008-0.017-0.015-0.025-0.023
	c-0.185-0.176-0.394-0.327-0.622-0.446c-0.333-0.194-0.75-0.341-1.217-0.507c-0.342-0.121-1.558-0.568-1.942-0.704l0,0
	c-0.003-0.001-0.006-0.002-0.009-0.003c-0.008-0.003-0.018-0.006-0.024-0.009l0,0C8.886,6.713,7.838,6.37,7.211,5.981
	C7.112,5.919,7.027,5.856,6.95,5.792C6.821,5.689,6.69,5.557,6.63,5.39C6.626,5.378,6.623,5.366,6.619,5.354
	c-0.011-0.035-0.02-0.071-0.026-0.109C6.59,5.223,6.588,5.201,6.586,5.179C6.585,5.16,6.581,5.141,6.581,5.122
	c0-0.227,0.097-0.431,0.25-0.576c0.16-0.162,0.43-0.258,0.773-0.302c1.274-0.164,3.541,0.377,4.795,0.753
	c0.113,0.034,0.217,0.063,0.315,0.09l-0.589,1.204l3.203-1.099l-1.1-3.203l-0.601,1.228c-0.975-0.392-3.393-1.188-6.791-1.083
	C3.211,2.245,2.48,3.848,2.363,4.895C2.361,4.91,2.358,4.925,2.356,4.94C2.355,4.949,2.354,4.959,2.354,4.968
	C2.352,4.985,2.352,5.003,2.351,5.02C2.348,5.066,2.345,5.112,2.344,5.158c0,0.009-0.001,0.018-0.001,0.028c0,0.015,0,0.03,0,0.044
	c0,0.015,0,0.029,0,0.043c0,0.004,0.001,0.008,0.001,0.013c0.001,0.087,0.004,0.168,0.008,0.235c0.055,0.826,0.685,2.175,2.97,3.001
	c0.845,0.305,1.86,0.65,2.807,0.961c0.591,0.171,1.208,0.441,1.381,0.52c0.321,0.141,0.601,0.423,0.655,0.793
	c0,0.003,0.001,0.007,0.001,0.01c0.006,0.042,0.013,0.084,0.013,0.128c0,0.437-0.295,0.802-0.695,0.916
	c-1.097,0.438-3.35-0.132-4.382-0.521c-0.698-0.264-1.364-0.612-1.813-0.866l0.587-1.201l-3.203,1.1l1.1,3.203l0.524-1.071
	c0.287,0.137,3.729,1.736,7.974,1.49c1.383-0.08,2.393-0.382,3.108-0.813c0.35-0.189,0.651-0.454,0.888-0.771
	c0.026-0.034,0.052-0.067,0.076-0.102c0.003-0.004,0.005-0.007,0.007-0.011c0.265-0.383,0.406-0.804,0.446-1.234
	c0-0.001,0-0.003,0-0.004c0.008-0.076,0.01-0.153,0.012-0.231c0-0.015,0.002-0.03,0.002-0.046c0-0.014-0.002-0.028-0.002-0.042
	C14.807,10.705,14.809,10.677,14.808,10.65z"/>
</svg>
