<?xml version="1.0" encoding="utf-8"?>
<!-- Generator: Adobe Illustrator 17.0.0, SVG Export Plug-In . SVG Version: 6.00 Build 0)  -->
<!DOCTYPE svg PUBLIC "-//W3C//DTD SVG 1.1//EN" "http://www.w3.org/Graphics/SVG/1.1/DTD/svg11.dtd">
<svg version="1.1" id="图层_1" xmlns="http://www.w3.org/2000/svg" xmlns:xlink="http://www.w3.org/1999/xlink" x="0px" y="0px"
	 width="16px" height="16px" viewBox="0 0 16 16" enable-background="new 0 0 16 16" xml:space="preserve">
<g>
	<path fill="#D0D2D3" d="M4.447,6.256h-0.76c-0.46,0-0.834,0.374-0.834,0.834v1.618c0,0.46,0.375,0.834,0.834,0.834h0.76
		c0.091,0,0.181,0.025,0.259,0.072l3.757,2.279v-7.82L4.692,6.192C4.617,6.234,4.533,6.256,4.447,6.256z"/>
	<path fill="#D0D2D3" d="M13.604,0.896H2.396c-0.828,0-1.5,0.672-1.5,1.5v11.208c0,0.828,0.672,1.5,1.5,1.5h11.208
		c0.828,0,1.5-0.672,1.5-1.5V2.396C15.104,1.567,14.433,0.896,13.604,0.896z M11.655,4.398l0.87-0.87
		c0.195-0.195,0.512-0.195,0.707,0s0.195,0.512,0,0.707l-0.87,0.87c-0.098,0.098-0.226,0.146-0.354,0.146s-0.256-0.049-0.354-0.146
		C11.46,4.91,11.46,4.593,11.655,4.398z M9.463,12.782c0,0.181-0.097,0.347-0.255,0.436c-0.076,0.043-0.161,0.064-0.245,0.064
		c-0.09,0-0.18-0.024-0.259-0.072l-4.396-2.667H3.687c-1.012,0-1.834-0.822-1.834-1.834V7.09c0-1.012,0.823-1.834,1.834-1.834h0.629
		l4.402-2.473c0.154-0.088,0.344-0.087,0.498,0.004c0.153,0.09,0.248,0.254,0.248,0.432V12.782z M10.109,9.873
		c-0.276,0-0.5-0.224-0.5-0.5s0.224-0.5,0.5-0.5c0.237,0,0.501-0.373,0.501-0.873c0-0.499-0.265-0.872-0.501-0.872
		c-0.276,0-0.5-0.224-0.5-0.5s0.224-0.5,0.5-0.5c0.842,0,1.501,0.822,1.501,1.872C11.611,9.051,10.951,9.873,10.109,9.873z
		 M13.232,12.473c-0.098,0.098-0.226,0.146-0.354,0.146s-0.256-0.049-0.354-0.146l-0.87-0.87c-0.195-0.195-0.195-0.512,0-0.707
		s0.512-0.195,0.707,0l0.87,0.87C13.427,11.961,13.427,12.278,13.232,12.473z M13.648,8.5h-1.231c-0.276,0-0.5-0.224-0.5-0.5
		s0.224-0.5,0.5-0.5h1.231c0.276,0,0.5,0.224,0.5,0.5S13.924,8.5,13.648,8.5z"/>
</g>
</svg>
