<?xml version="1.0" encoding="utf-8"?>
<!-- Generator: Adobe Illustrator 17.0.0, SVG Export Plug-In . SVG Version: 6.00 Build 0)  -->
<!DOCTYPE svg PUBLIC "-//W3C//DTD SVG 1.1//EN" "http://www.w3.org/Graphics/SVG/1.1/DTD/svg11.dtd">
<svg version="1.1" id="图层_1" xmlns="http://www.w3.org/2000/svg" xmlns:xlink="http://www.w3.org/1999/xlink" x="0px" y="0px"
	 width="16px" height="16px" viewBox="0 0 16 16" enable-background="new 0 0 16 16" xml:space="preserve">
<g>
	<path fill="#515151" d="M12.782,15.021H3.218c-1.235,0-2.239-1.004-2.239-2.238V3.218c0-1.235,1.004-2.239,2.239-2.239h9.564
		c1.234,0,2.238,1.004,2.238,2.239v9.564C15.021,14.017,14.017,15.021,12.782,15.021z M3.218,1.979
		c-0.683,0-1.239,0.556-1.239,1.239v9.564c0,0.683,0.556,1.238,1.239,1.238h9.564c0.683,0,1.238-0.556,1.238-1.238V3.218
		c0-0.683-0.556-1.239-1.238-1.239H3.218z"/>
</g>
</svg>
