<?xml version="1.0" encoding="utf-8"?>
<!-- Generator: Adobe Illustrator 17.0.0, SVG Export Plug-In . SVG Version: 6.00 Build 0)  -->
<!DOCTYPE svg PUBLIC "-//W3C//DTD SVG 1.1//EN" "http://www.w3.org/Graphics/SVG/1.1/DTD/svg11.dtd">
<svg version="1.1" id="图层_1" xmlns="http://www.w3.org/2000/svg" xmlns:xlink="http://www.w3.org/1999/xlink" x="0px" y="0px"
	 width="16px" height="16px" viewBox="0 0 16 16" enable-background="new 0 0 16 16" xml:space="preserve">
<path fill="#535455" d="M13.104,1.969H2.896c-1.105,0-2,0.895-2,2v0v1.406v6.656c0,1.105,0.895,2,2,2h10.208c1.105,0,2-0.895,2-2
	V3.969C15.104,2.864,14.209,1.969,13.104,1.969z M6.224,9.974V8.5h3.25v1.474H6.224z M9.474,10.974v2.058h-3.25v-2.058H9.474z
	 M14.104,7.5h-3.631V5.934c0-0.021-0.009-0.038-0.012-0.059h3.642V7.5z M1.896,5.875h3.34c-0.002,0.02-0.012,0.038-0.012,0.059V7.5
	H1.896V5.875z M6.212,5.875h3.274c-0.002,0.02-0.012,0.038-0.012,0.059V7.5h-3.25V5.934C6.224,5.913,6.214,5.895,6.212,5.875z
	 M1.896,8.5h3.328v1.474H1.896V8.5z M10.474,8.5h3.631v1.474h-3.631V8.5z M1.896,12.031v-1.058h3.328v2.058H2.896
	C2.344,13.031,1.896,12.583,1.896,12.031z M13.104,13.031h-2.631v-2.058h3.631v1.058C14.104,12.583,13.656,13.031,13.104,13.031z"/>
</svg>
