<?xml version="1.0" encoding="utf-8"?>
<!-- Generator: Adobe Illustrator 17.0.0, SVG Export Plug-In . SVG Version: 6.00 Build 0)  -->
<!DOCTYPE svg PUBLIC "-//W3C//DTD SVG 1.1//EN" "http://www.w3.org/Graphics/SVG/1.1/DTD/svg11.dtd">
<svg version="1.1" id="图层_1" xmlns="http://www.w3.org/2000/svg" xmlns:xlink="http://www.w3.org/1999/xlink" x="0px" y="0px"
	 width="60px" height="60px" viewBox="0 0 60 60" enable-background="new 0 0 60 60" xml:space="preserve">
<g>
	<path fill="#515151" d="M31.347,8.081l3.39,3.39c0.146,0.146,0.329,0.214,0.504,0.214c0.263,0,0.508-0.154,0.587-0.433l1.477-4.983
		c0.131-0.451,0-0.96-0.356-1.317L33.566,1.57c-0.149-0.149-0.332-0.218-0.508-0.218c-0.263,0-0.507,0.154-0.59,0.429l-1.477,4.983
		C30.853,7.222,30.991,7.724,31.347,8.081z M33.489,3.614l2.344,2.344l-1.026,3.461l-2.344-2.344L33.489,3.614z"/>
	<path fill="#515151" d="M29.655,8.392c-0.12,0-0.241,0.017-0.359,0.053L24.32,9.928c-0.458,0.138-0.582,0.727-0.218,1.091
		l3.404,3.405c0.265,0.265,0.61,0.409,0.958,0.409c0.12,0,0.241-0.017,0.359-0.053l4.976-1.484c0.458-0.138,0.575-0.735,0.211-1.098
		l-3.397-3.397C30.348,8.536,30.003,8.392,29.655,8.392z M28.512,13.309l-2.361-2.361l3.456-1.031l2.361,2.361L28.512,13.309z"/>
	<path fill="#515151" d="M23.63,8.88c0.057,0,0.118-0.009,0.18-0.029l4.998-1.579c0.226-0.065,0.436-0.204,0.611-0.378
		c0.175-0.174,0.313-0.386,0.378-0.611l1.579-4.998c0.073-0.233,0.007-0.444-0.138-0.56c-0.088-0.107-0.216-0.168-0.366-0.168
		c-0.061,0-0.126,0.01-0.194,0.031l-5.005,1.571c-0.225,0.065-0.436,0.204-0.611,0.378c-0.175,0.174-0.313,0.386-0.378,0.611
		l-1.579,4.998c-0.073,0.233,0,0.436,0.138,0.56C23.339,8.813,23.474,8.88,23.63,8.88z M26.109,3.615l0.03-0.03l3.262-1.024
		l-1.028,3.256l-0.03,0.03l-3.264,1.031L26.109,3.615z"/>
	<path fill="#515151" d="M8.182,38.233c0.083,0.274,0.329,0.426,0.592,0.426c0.177,0,0.36-0.069,0.507-0.215l3.397-3.397
		c0.356-0.356,0.495-0.858,0.356-1.317l-1.484-4.976c-0.084-0.276-0.33-0.431-0.593-0.431c-0.174,0-0.354,0.068-0.499,0.212
		L7.054,31.94c-0.356,0.356-0.495,0.858-0.356,1.317L8.182,38.233z M10.53,30.585l1.031,3.456L9.2,36.402l-1.03-3.457L10.53,30.585z
		"/>
	<path fill="#515151" d="M14.206,33.242c0.065,0.225,0.204,0.436,0.378,0.611c0.174,0.175,0.386,0.313,0.611,0.378l4.998,1.579
		c0.065,0.02,0.128,0.03,0.189,0.03c0.155,0,0.288-0.063,0.372-0.168c0.153-0.124,0.211-0.327,0.138-0.56l-1.571-5.005
		c-0.065-0.225-0.204-0.436-0.378-0.611c-0.174-0.175-0.386-0.313-0.611-0.378l-4.998-1.579c-0.065-0.02-0.126-0.029-0.183-0.029
		c-0.156,0-0.289,0.066-0.379,0.167c-0.145,0.131-0.218,0.335-0.145,0.567L14.206,33.242z M17.863,30.542l0.03,0.03l1.024,3.262
		l-3.256-1.028l-0.03-0.03L14.6,29.512L17.863,30.542z"/>
	<path fill="#515151" d="M19.908,38c0.371-0.371,0.247-0.96-0.211-1.098l-4.983-1.477c-0.118-0.036-0.238-0.053-0.359-0.053
		c-0.348,0-0.693,0.144-0.958,0.409l-3.39,3.39c-0.364,0.364-0.247,0.96,0.218,1.091l4.983,1.477c0.115,0.033,0.233,0.05,0.352,0.05
		c0.348,0,0.699-0.14,0.965-0.406L19.908,38z M15.52,40.267l-3.461-1.026l2.344-2.344l3.461,1.026L15.52,40.267z"/>
	<path fill="#515151" d="M42.507,29.633l3.397,3.397c0.265,0.265,0.61,0.409,0.958,0.409c0.12,0,0.241-0.017,0.359-0.053
		l4.976-1.484c0.458-0.138,0.582-0.727,0.218-1.091l-3.404-3.404c-0.265-0.264-0.61-0.409-0.958-0.409
		c-0.12,0-0.241,0.017-0.359,0.053l-4.976,1.484C42.26,28.673,42.143,29.27,42.507,29.633z M48.006,28.524l2.361,2.361l-3.456,1.031
		l-2.361-2.361L48.006,28.524z"/>
	<path fill="#515151" d="M47.098,34.937c-0.175,0.175-0.313,0.386-0.378,0.611l-1.579,4.998c-0.073,0.233-0.007,0.444,0.138,0.56
		c0.088,0.109,0.216,0.169,0.367,0.169c0.061,0,0.126-0.01,0.194-0.031l5.005-1.571c0.225-0.065,0.436-0.204,0.611-0.378
		s0.313-0.386,0.378-0.611l1.579-4.998c0.073-0.233,0-0.436-0.138-0.56c-0.097-0.107-0.232-0.175-0.388-0.175
		c-0.057,0-0.118,0.009-0.18,0.029l-4.998,1.579C47.484,34.624,47.273,34.763,47.098,34.937z M48.175,35.984l3.264-1.031
		l-1.03,3.263l-0.03,0.03l-3.262,1.024l1.028-3.256L48.175,35.984z"/>
	<path fill="#515151" d="M45.17,33.752l-3.39-3.39c-0.145-0.147-0.329-0.215-0.504-0.215c-0.263,0-0.508,0.154-0.587,0.433
		l-1.477,4.983c-0.131,0.451,0,0.96,0.356,1.317l3.383,3.383c0.149,0.149,0.333,0.218,0.508,0.218c0.263,0,0.507-0.154,0.59-0.429
		l1.477-4.983C45.664,34.611,45.526,34.109,45.17,33.752z M43.028,38.217l-2.344-2.344l1.026-3.461l2.344,2.344L43.028,38.217z"/>
	<path fill="#515151" d="M17.056,26.386c0.414,0,0.75-0.336,0.75-0.75v-3.557c0-0.689,0.561-1.25,1.25-1.25h21.826
		c0.689,0,1.25,0.561,1.25,1.25v3.557c0,0.414,0.336,0.75,0.75,0.75s0.75-0.336,0.75-0.75v-3.557c0-1.517-1.233-2.75-2.75-2.75
		H30.719v-2.082c0-0.414-0.336-0.75-0.75-0.75s-0.75,0.336-0.75,0.75v2.082H19.056c-1.516,0-2.75,1.233-2.75,2.75v3.557
		C16.306,26.05,16.642,26.386,17.056,26.386z"/>
	<path fill="#515151" d="M57.306,36.39h-3.262c-0.414,0-0.75,0.336-0.75,0.75s0.336,0.75,0.75,0.75h3.262
		c0.681,0,1.236,0.561,1.236,1.25v17.554c0,0.689-0.554,1.25-1.236,1.25H2.693c-0.681,0-1.236-0.561-1.236-1.25V39.14
		c0-0.689,0.554-1.25,1.236-1.25h2.679c0.414,0,0.75-0.336,0.75-0.75s-0.336-0.75-0.75-0.75H2.693c-1.508,0-2.736,1.233-2.736,2.75
		v17.553c0,1.517,1.227,2.75,2.736,2.75h54.614c1.508,0,2.736-1.233,2.735-2.749V39.14C60.042,37.623,58.815,36.39,57.306,36.39z"/>
	<path fill="#515151" d="M29.957,54.968c0.446,0,0.866-0.174,1.183-0.49l5.852-5.853c0.431-0.43,0.57-1.16,0.332-1.736
		c-0.222-0.534-0.722-0.852-1.338-0.852h-1.907V34.821c0-0.837-0.681-1.519-1.518-1.519h-5.185c-0.838,0-1.519,0.682-1.519,1.519
		v11.216h-1.823c-0.653,0-1.183,0.337-1.417,0.902c-0.239,0.576-0.114,1.269,0.303,1.686l5.853,5.853
		C29.089,54.794,29.51,54.968,29.957,54.968z M24.035,47.536h3.323l0.019-12.734l5.203,0.019v12.716l3.357,0.003
		c-0.002,0.011-0.004,0.02-0.005,0.024l-5.851,5.852c-0.085,0.086-0.164,0.085-0.248,0.001L24.035,47.536L24.035,47.536z"/>
	<path fill="#515151" d="M4.046,48.115c-0.414,0-0.75,0.336-0.75,0.75v5.243c0,1.271,1.033,2.304,2.304,2.304h9.28
		c0.414,0,0.75-0.336,0.75-0.75s-0.336-0.75-0.75-0.75H5.6c-0.444,0-0.804-0.361-0.804-0.804v-5.243
		C4.796,48.451,4.46,48.115,4.046,48.115z"/>
	<path fill="#515151" d="M55.117,54.108c0,0.444-0.361,0.804-0.804,0.804h-9.279c-0.414,0-0.75,0.336-0.75,0.75
		s0.336,0.75,0.75,0.75h9.279c1.271,0,2.304-1.033,2.304-2.304v-5.243c0-0.414-0.336-0.75-0.75-0.75s-0.75,0.336-0.75,0.75V54.108z"
		/>
	<path fill="#515151" d="M26.719,31.581h6.5c0.414,0,0.75-0.336,0.75-0.75s-0.336-0.75-0.75-0.75h-6.5
		c-0.414,0-0.75,0.336-0.75,0.75S26.305,31.581,26.719,31.581z"/>
	<path fill="#515151" d="M18.386,56.412h4.691c0.414,0,0.75-0.336,0.75-0.75s-0.336-0.75-0.75-0.75h-4.691
		c-0.414,0-0.75,0.336-0.75,0.75S17.972,56.412,18.386,56.412z"/>
	<path fill="#515151" d="M55.867,46.717c0.414,0,0.75-0.336,0.75-0.75v-4.691c0-0.414-0.336-0.75-0.75-0.75s-0.75,0.336-0.75,0.75
		v4.691C55.117,46.381,55.453,46.717,55.867,46.717z"/>
	<path fill="#515151" d="M26.719,28.456h6.5c0.414,0,0.75-0.336,0.75-0.75s-0.336-0.75-0.75-0.75h-6.5
		c-0.414,0-0.75,0.336-0.75,0.75S26.305,28.456,26.719,28.456z"/>
	<path fill="#515151" d="M26.719,25.659h6.5c0.414,0,0.75-0.336,0.75-0.75s-0.336-0.75-0.75-0.75h-6.5
		c-0.414,0-0.75,0.336-0.75,0.75S26.305,25.659,26.719,25.659z"/>
</g>
</svg>
