<?xml version="1.0" encoding="utf-8"?>
<!-- Generator: Adobe Illustrator 17.0.0, SVG Export Plug-In . SVG Version: 6.00 Build 0)  -->
<!DOCTYPE svg PUBLIC "-//W3C//DTD SVG 1.1//EN" "http://www.w3.org/Graphics/SVG/1.1/DTD/svg11.dtd">
<svg version="1.1" id="图层_1" xmlns="http://www.w3.org/2000/svg" xmlns:xlink="http://www.w3.org/1999/xlink" x="0px" y="0px"
	 width="16px" height="16px" viewBox="0 0 16 16" enable-background="new 0 0 16 16" xml:space="preserve">
<g>
	<path fill="#515151" d="M10.844,5.156c-0.195-0.195-0.512-0.195-0.707,0L8,7.293L5.863,5.156c-0.195-0.195-0.512-0.195-0.707,0
		s-0.195,0.512,0,0.707L7.293,8l-2.137,2.137c-0.195,0.195-0.195,0.512,0,0.707c0.098,0.098,0.226,0.146,0.354,0.146
		s0.256-0.049,0.354-0.146L8,8.707l2.137,2.137c0.098,0.098,0.226,0.146,0.354,0.146s0.256-0.049,0.354-0.146
		c0.195-0.195,0.195-0.512,0-0.707L8.707,8l2.137-2.137C11.039,5.668,11.039,5.352,10.844,5.156z"/>
	<path fill="#515151" d="M8,0.896C4.076,0.896,0.896,4.077,0.896,8S4.076,15.104,8,15.104S15.104,11.924,15.104,8
		S11.924,0.896,8,0.896z M8,14.104c-3.366,0-6.104-2.738-6.104-6.104S4.634,1.896,8,1.896S14.104,4.634,14.104,8
		S11.366,14.104,8,14.104z"/>
</g>
</svg>
