<?xml version="1.0" encoding="utf-8"?>
<!-- Generator: Adobe Illustrator 17.0.0, SVG Export Plug-In . SVG Version: 6.00 Build 0)  -->
<!DOCTYPE svg PUBLIC "-//W3C//DTD SVG 1.1//EN" "http://www.w3.org/Graphics/SVG/1.1/DTD/svg11.dtd">
<svg version="1.1" id="图层_1" xmlns="http://www.w3.org/2000/svg" xmlns:xlink="http://www.w3.org/1999/xlink" x="0px" y="0px"
	 width="200px" height="200px" viewBox="0 0 200 200" enable-background="new 0 0 200 200" xml:space="preserve">
<g>
	<path fill="#040000" d="M0.727,177.419c0,0-1.587,10.381,5.128,17.097c5.372,5.372,15.266,4.275,15.266,4.275l73.478-76.07
		l-19.422-18.559L0.727,177.419L0.727,177.419z"/>
	<path fill="#040000" d="M130.633,114.152L46.245,33.701l-1.274-17.518L20.99,0.643l-6.809,6.849l-6.809,6.838l-6.809,6.838
		l15.324,24.072l16.315,1.429l84.954,80.736l-13.48,13.826c19.306,19.37,38.593,38.751,57.891,58.125
		c19.857-5.271,31.348-19.235,37.733-38.033l-57.884-58.136L130.633,114.152z"/>
	<path fill="#040000" d="M125.073,94.002l9.512-9.927c19.002,8.246,38.577,4.892,51.85-6.562
		c12.959-11.289,13.002-33.406,13.002-33.406l-10.341-4.059l-19.989,20.272l-29.211-28.932l20.125-20.404l-4.051-10.341
		c0,0-20.125,0-33.542,13.27c-12.587,12.305-16.499,32.712-7.695,51.164l-9.916,9.784L125.073,94.002z"/>
</g>
</svg>
