<?xml version="1.0" encoding="utf-8"?>
<!-- Generator: Adobe Illustrator 17.0.0, SVG Export Plug-In . SVG Version: 6.00 Build 0)  -->
<!DOCTYPE svg PUBLIC "-//W3C//DTD SVG 1.1//EN" "http://www.w3.org/Graphics/SVG/1.1/DTD/svg11.dtd">
<svg version="1.1" id="图层_1" xmlns="http://www.w3.org/2000/svg" xmlns:xlink="http://www.w3.org/1999/xlink" x="0px" y="0px"
	 width="16px" height="16px" viewBox="0 0 16 16" enable-background="new 0 0 16 16" xml:space="preserve">
<g>
	<path fill="#515151" d="M12.285,5.035c-0.276,0-0.5,0.224-0.5,0.5v7.085c0,0.827-0.673,1.5-1.5,1.5h-4.57
		c-0.827,0-1.5-0.673-1.5-1.5V5.535c0-0.276-0.224-0.5-0.5-0.5s-0.5,0.224-0.5,0.5v7.085c0,1.379,1.122,2.5,2.5,2.5h4.57
		c1.379,0,2.5-1.121,2.5-2.5V5.535C12.785,5.259,12.562,5.035,12.285,5.035z"/>
	<path fill="#515151" d="M13.786,3.348h-2.805c-0.017-1.364-1.129-2.469-2.497-2.469H7.516c-1.368,0-2.48,1.105-2.497,2.469H2.214
		c-0.276,0-0.5,0.224-0.5,0.5s0.224,0.5,0.5,0.5h11.573c0.276,0,0.5-0.224,0.5-0.5S14.063,3.348,13.786,3.348z M7.516,1.879h0.969
		c0.816,0,1.48,0.656,1.497,1.469H6.019C6.036,2.535,6.699,1.879,7.516,1.879z"/>
	<path fill="#515151" d="M6.052,12.619V6.577c0-0.276-0.224-0.5-0.5-0.5s-0.5,0.224-0.5,0.5v6.042c0,0.276,0.224,0.5,0.5,0.5
		S6.052,12.895,6.052,12.619z"/>
	<path fill="#515151" d="M8.5,12.619V6.577c0-0.276-0.224-0.5-0.5-0.5s-0.5,0.224-0.5,0.5v6.042c0,0.276,0.224,0.5,0.5,0.5
		S8.5,12.895,8.5,12.619z"/>
	<path fill="#515151" d="M10.948,12.619V6.577c0-0.276-0.224-0.5-0.5-0.5s-0.5,0.224-0.5,0.5v6.042c0,0.276,0.224,0.5,0.5,0.5
		S10.948,12.895,10.948,12.619z"/>
</g>
</svg>
