<?xml version="1.0" encoding="utf-8"?>
<!-- Generator: Adobe Illustrator 17.0.0, SVG Export Plug-In . SVG Version: 6.00 Build 0)  -->
<!DOCTYPE svg PUBLIC "-//W3C//DTD SVG 1.1//EN" "http://www.w3.org/Graphics/SVG/1.1/DTD/svg11.dtd">
<svg version="1.1" id="图层_1" xmlns="http://www.w3.org/2000/svg" xmlns:xlink="http://www.w3.org/1999/xlink" x="0px" y="0px"
	 width="16px" height="16px" viewBox="0 0 16 16" enable-background="new 0 0 16 16" xml:space="preserve">
<g>
	<path fill="#515151" d="M13.765,7.589c-0.276,0-0.5,0.224-0.5,0.5v3.344c0,0.827-0.673,1.5-1.5,1.5H4.235
		c-0.827,0-1.5-0.673-1.5-1.5V8.089c0-0.276-0.224-0.5-0.5-0.5s-0.5,0.224-0.5,0.5v3.344c0,1.379,1.122,2.5,2.5,2.5h7.529
		c1.379,0,2.5-1.121,2.5-2.5V8.089C14.265,7.812,14.041,7.589,13.765,7.589z"/>
	<path fill="#515151" d="M4.826,6.626L7.5,3.972v7.534c0,0.276,0.224,0.5,0.5,0.5s0.5-0.224,0.5-0.5V3.972l2.674,2.654
		c0.098,0.097,0.226,0.145,0.353,0.145c0.129,0,0.257-0.049,0.354-0.148c0.195-0.196,0.193-0.512-0.002-0.707L8.354,2.418l0,0
		L8,2.067L7.647,2.418c0,0,0,0,0,0L4.122,5.917C3.925,6.111,3.924,6.428,4.119,6.624S4.63,6.82,4.826,6.626z"/>
</g>
</svg>
