<?xml version="1.0" encoding="utf-8"?>
<!-- Generator: Adobe Illustrator 17.0.0, SVG Export Plug-In . SVG Version: 6.00 Build 0)  -->
<!DOCTYPE svg PUBLIC "-//W3C//DTD SVG 1.1//EN" "http://www.w3.org/Graphics/SVG/1.1/DTD/svg11.dtd">
<svg version="1.1" id="图层_1" xmlns="http://www.w3.org/2000/svg" xmlns:xlink="http://www.w3.org/1999/xlink" x="0px" y="0px"
	 width="16px" height="16px" viewBox="0 0 16 16" enable-background="new 0 0 16 16" xml:space="preserve">
<g>
	<path fill="#515151" d="M8.593,7.527c0.726-0.656,1.19-1.594,1.19-2.649C9.782,2.9,8.178,1.296,6.2,1.296
		c-1.979,0-3.583,1.604-3.583,3.583c0,1.055,0.464,1.994,1.19,2.649C2.138,8.329,0.986,9.923,0.986,11.78
		c0,2.658,2.334,2.925,5.214,2.925s5.214-0.267,5.214-2.925C11.414,9.923,10.262,8.329,8.593,7.527z M6.202,13.704
		c-3.606,0-4.214-0.594-4.214-1.925c0-1.398,0.864-2.682,2.255-3.351c0.3-0.144,0.509-0.429,0.557-0.758
		c0.048-0.33-0.072-0.661-0.319-0.885c-0.555-0.501-0.86-1.179-0.86-1.907C3.617,3.454,4.776,2.296,6.2,2.296
		s2.583,1.159,2.583,2.583c0,0.729-0.306,1.406-0.86,1.907C7.676,7.009,7.556,7.34,7.604,7.671c0.048,0.33,0.256,0.614,0.557,0.758
		c1.391,0.668,2.255,1.952,2.255,3.351C10.416,13.111,9.808,13.704,6.202,13.704z"/>
	<path fill="#515151" d="M12.83,7.333c0.482-0.631,0.751-1.405,0.751-2.201c0-2.012-1.637-3.648-3.648-3.648
		c-0.276,0-0.5,0.224-0.5,0.5s0.224,0.5,0.5,0.5c1.46,0,2.648,1.188,2.648,2.648c0,0.749-0.312,1.444-0.881,1.957
		c-0.124,0.111-0.184,0.277-0.16,0.442c0.024,0.165,0.128,0.307,0.278,0.379c1.354,0.651,2.195,1.911,2.195,3.286
		c0,1.918-0.945,2.07-2.182,2.07c-0.276,0-0.5,0.224-0.5,0.5s0.224,0.5,0.5,0.5c0.952,0,3.182,0,3.182-3.07
		C15.014,9.643,14.192,8.212,12.83,7.333z"/>
</g>
</svg>
