<?xml version="1.0" encoding="utf-8"?>
<!-- Generator: Adobe Illustrator 17.0.0, SVG Export Plug-In . SVG Version: 6.00 Build 0)  -->
<!DOCTYPE svg PUBLIC "-//W3C//DTD SVG 1.1//EN" "http://www.w3.org/Graphics/SVG/1.1/DTD/svg11.dtd">
<svg version="1.1" id="图层_1" xmlns="http://www.w3.org/2000/svg" xmlns:xlink="http://www.w3.org/1999/xlink" x="0px" y="0px"
	 width="16px" height="16px" viewBox="0 0 16 16" enable-background="new 0 0 16 16" xml:space="preserve">
<g>
	<path fill="#535455" d="M11.572,10.818c-0.274,0.029-0.473,0.276-0.443,0.551c0.014,0.127,0.02,0.256,0.02,0.386
		c0,1.919-1.494,2.27-4.436,2.27s-4.435-0.351-4.435-2.27c0-1.497,0.915-2.866,2.387-3.573c0.15-0.072,0.255-0.215,0.278-0.38
		c0.024-0.164-0.036-0.33-0.159-0.442C4.163,6.799,3.822,6.04,3.822,5.222c0-1.594,1.297-2.891,2.891-2.891
		c0.527,0,1.043,0.143,1.491,0.414C8.44,2.889,8.747,2.813,8.89,2.576c0.143-0.236,0.067-0.544-0.169-0.687
		C8.116,1.524,7.422,1.331,6.712,1.331c-2.146,0-3.891,1.746-3.891,3.891c0,0.862,0.295,1.701,0.827,2.38
		c-1.478,0.937-2.371,2.478-2.371,4.152c0,3.27,3.271,3.27,5.435,3.27c2.164,0,5.436,0,5.436-3.27c0-0.167-0.008-0.331-0.025-0.493
		C12.093,10.987,11.847,10.795,11.572,10.818z"/>
	<path fill="#535455" d="M14.463,4.285L12.478,3.2l-1.085-1.983c-0.176-0.321-0.701-0.321-0.877,0L9.431,3.201L7.447,4.286
		c-0.16,0.087-0.26,0.256-0.26,0.438s0.1,0.351,0.26,0.438L9.378,6.22l1.097,3.684c0.063,0.212,0.258,0.357,0.479,0.357
		s0.416-0.146,0.479-0.357l1.097-3.684l1.933-1.057c0.16-0.087,0.26-0.256,0.26-0.438S14.623,4.373,14.463,4.285z M11.869,5.441
		c-0.115,0.063-0.201,0.169-0.239,0.296l-0.676,2.271l-0.676-2.271c-0.038-0.126-0.124-0.233-0.239-0.296L8.729,4.724l1.311-0.717
		c0.084-0.046,0.152-0.115,0.198-0.199l0.717-1.31l0.717,1.31c0.046,0.084,0.114,0.153,0.198,0.199l1.312,0.716L11.869,5.441z"/>
</g>
</svg>
