<?xml version="1.0" encoding="utf-8"?>
<!-- Generator: Adobe Illustrator 17.0.0, SVG Export Plug-In . SVG Version: 6.00 Build 0)  -->
<!DOCTYPE svg PUBLIC "-//W3C//DTD SVG 1.1//EN" "http://www.w3.org/Graphics/SVG/1.1/DTD/svg11.dtd">
<svg version="1.1" id="图层_1" xmlns="http://www.w3.org/2000/svg" xmlns:xlink="http://www.w3.org/1999/xlink" x="0px" y="0px"
	 width="16px" height="16px" viewBox="0 0 16 16" enable-background="new 0 0 16 16" xml:space="preserve">
<g>
	<path fill="#515151" d="M5.54,12.828c2.565,0,4.644-0.238,4.644-2.605c0-1.654-1.026-3.073-2.513-3.787
		c0.646-0.584,1.06-1.42,1.06-2.36c0-1.763-1.429-3.191-3.191-3.191S2.349,2.315,2.349,4.076c0,0.94,0.414,1.776,1.06,2.36
		C1.922,7.151,0.896,8.57,0.896,10.224C0.896,12.591,2.975,12.828,5.54,12.828z M3.843,7.338C4.143,7.193,4.352,6.909,4.4,6.58
		c0.048-0.33-0.072-0.661-0.319-0.885c-0.471-0.426-0.73-1-0.73-1.618C3.349,2.869,4.332,1.885,5.54,1.885s2.191,0.983,2.191,2.191
		c0,0.618-0.259,1.192-0.73,1.618C6.754,5.917,6.634,6.25,6.682,6.58c0.048,0.33,0.256,0.614,0.557,0.758
		c1.2,0.577,1.946,1.683,1.946,2.886c0,1.11-0.526,1.605-3.644,1.605c-3.118,0-3.644-0.495-3.644-1.605
		C1.897,9.021,2.643,7.914,3.843,7.338z"/>
	<path fill="#515151" d="M14.604,14.115h-0.333V4.052c0-0.276-0.224-0.5-0.5-0.5s-0.5,0.224-0.5,0.5v10.063h-1.083V6.177
		c0-0.276-0.224-0.5-0.5-0.5s-0.5,0.224-0.5,0.5v7.938H1.479c-0.276,0-0.5,0.224-0.5,0.5s0.224,0.5,0.5,0.5h13.125
		c0.276,0,0.5-0.224,0.5-0.5S14.88,14.115,14.604,14.115z"/>
	<path fill="#515151" d="M9.947,6.113c0.128,0,0.256-0.049,0.354-0.146l3.168-3.168c0.195-0.195,0.195-0.512,0-0.707
		c-0.005-0.005-0.013-0.007-0.018-0.012c-0.091-0.1-0.22-0.166-0.367-0.166H11.25c-0.276,0-0.5,0.224-0.5,0.5s0.224,0.5,0.5,0.5
		h0.688L9.593,5.259c-0.195,0.195-0.195,0.512,0,0.707C9.691,6.064,9.819,6.113,9.947,6.113z"/>
</g>
</svg>
