<?xml version="1.0" encoding="utf-8"?>
<!-- Generator: Adobe Illustrator 17.0.0, SVG Export Plug-In . SVG Version: 6.00 Build 0)  -->
<!DOCTYPE svg PUBLIC "-//W3C//DTD SVG 1.1//EN" "http://www.w3.org/Graphics/SVG/1.1/DTD/svg11.dtd">
<svg version="1.1" id="图层_1" xmlns="http://www.w3.org/2000/svg" xmlns:xlink="http://www.w3.org/1999/xlink" x="0px" y="0px"
	 width="16px" height="16px" viewBox="0 0 16 16" enable-background="new 0 0 16 16" xml:space="preserve">
<g>
	<path fill="#535455" d="M7.251,7.68c0.163-0.29,0.252-0.619,0.252-0.955c0-1.083-0.881-1.963-1.963-1.963
		c-1.083,0-1.963,0.881-1.963,1.963c0,0.337,0.089,0.665,0.253,0.955C3.251,8.142,2.91,8.817,2.91,9.544
		c0,1.694,1.711,1.694,2.63,1.694s2.63,0,2.63-1.694C8.17,8.817,7.828,8.142,7.251,7.68z M5.54,10.238
		c-1.52,0-1.63-0.263-1.63-0.694c0-0.536,0.333-1.028,0.87-1.287c0.15-0.072,0.254-0.214,0.278-0.379
		c0.023-0.165-0.037-0.331-0.16-0.442C4.691,7.248,4.576,6.996,4.576,6.725c0-0.531,0.432-0.963,0.963-0.963
		s0.963,0.432,0.963,0.963c0,0.271-0.114,0.524-0.32,0.711c-0.124,0.112-0.184,0.277-0.16,0.442C6.047,8.043,6.15,8.185,6.3,8.257
		C6.837,8.516,7.17,9.009,7.17,9.544C7.17,9.976,7.06,10.238,5.54,10.238z"/>
	<path fill="#535455" d="M13.104,2.333H2.896c-1.105,0-2,0.895-2,2v7.333c0,1.105,0.895,2,2,2h10.208c1.105,0,2-0.895,2-2V4.333
		C15.104,3.229,14.209,2.333,13.104,2.333z M14.104,11.667c0,0.551-0.449,1-1,1H2.896c-0.551,0-1-0.449-1-1V4.333
		c0-0.551,0.449-1,1-1h10.208c0.551,0,1,0.449,1,1V11.667z"/>
	<path fill="#535455" d="M12.432,5.458H9.058c-0.276,0-0.5,0.224-0.5,0.5s0.224,0.5,0.5,0.5h3.374c0.276,0,0.5-0.224,0.5-0.5
		S12.709,5.458,12.432,5.458z"/>
	<path fill="#535455" d="M12.432,7.5H9.058c-0.276,0-0.5,0.224-0.5,0.5s0.224,0.5,0.5,0.5h3.374c0.276,0,0.5-0.224,0.5-0.5
		S12.709,7.5,12.432,7.5z"/>
	<path fill="#535455" d="M12.432,9.541H9.058c-0.276,0-0.5,0.224-0.5,0.5s0.224,0.5,0.5,0.5h3.374c0.276,0,0.5-0.224,0.5-0.5
		S12.709,9.541,12.432,9.541z"/>
</g>
</svg>
