<?xml version="1.0" encoding="utf-8"?>
<!-- Generator: Adobe Illustrator 17.0.0, SVG Export Plug-In . SVG Version: 6.00 Build 0)  -->
<!DOCTYPE svg PUBLIC "-//W3C//DTD SVG 1.1//EN" "http://www.w3.org/Graphics/SVG/1.1/DTD/svg11.dtd">
<svg version="1.1" id="图层_1" xmlns="http://www.w3.org/2000/svg" xmlns:xlink="http://www.w3.org/1999/xlink" x="0px" y="0px"
	 width="16px" height="16px" viewBox="0 0 16 16" enable-background="new 0 0 16 16" xml:space="preserve">
<g>
	<path fill="#515151" d="M11.591,8.04c-1.947,0-3.525,1.578-3.525,3.525s1.578,3.526,3.525,3.526c1.947,0,3.525-1.578,3.525-3.525
		S13.538,8.04,11.591,8.04z M11.591,14.09c-1.392,0-2.525-1.133-2.525-2.525c-0.001-1.392,1.132-2.525,2.525-2.525
		c1.392,0,2.525,1.133,2.525,2.525C14.116,12.957,12.983,14.09,11.591,14.09z"/>
	<path fill="#515151" d="M13.417,11.065h-1.326V9.739c0-0.276-0.224-0.5-0.5-0.5s-0.5,0.224-0.5,0.5v1.326H9.764
		c-0.276,0-0.5,0.224-0.5,0.5s0.224,0.5,0.5,0.5h1.327v1.327c0,0.276,0.224,0.5,0.5,0.5s0.5-0.224,0.5-0.5v-1.327h1.326
		c0.276,0,0.5-0.224,0.5-0.5S13.693,11.065,13.417,11.065z"/>
	<path fill="#515151" d="M7.234,11.769c-0.424,0.045-0.918,0.064-1.602,0.064c-2.873,0-3.748-0.439-3.748-1.883
		c0-1.261,0.772-2.416,2.016-3.013c0.15-0.072,0.254-0.214,0.278-0.379c0.024-0.165-0.036-0.331-0.159-0.442
		C3.5,5.647,3.214,5.011,3.214,4.328c0-1.334,1.085-2.419,2.419-2.419s2.419,1.085,2.419,2.419c0,0.685-0.286,1.319-0.804,1.788
		C7.124,6.228,7.065,6.394,7.089,6.559c0.024,0.165,0.128,0.307,0.278,0.379c0.5,0.24,0.941,0.583,1.277,0.992
		C8.819,8.144,9.134,8.174,9.348,8c0.213-0.175,0.244-0.49,0.069-0.704C9.124,6.939,8.769,6.621,8.372,6.36
		c0.438-0.586,0.68-1.299,0.68-2.032c0-1.885-1.534-3.419-3.419-3.419S2.214,2.443,2.214,4.328c0,0.732,0.243,1.445,0.68,2.032
		c-1.254,0.823-2.01,2.15-2.01,3.591c0,2.883,2.972,2.883,4.748,2.883c0.72,0,1.247-0.021,1.707-0.07
		c0.275-0.028,0.474-0.274,0.445-0.55C7.754,11.939,7.502,11.74,7.234,11.769z"/>
</g>
</svg>
