<?xml version="1.0" encoding="utf-8"?>
<!-- Generator: Adobe Illustrator 17.0.0, SVG Export Plug-In . SVG Version: 6.00 Build 0)  -->
<!DOCTYPE svg PUBLIC "-//W3C//DTD SVG 1.1//EN" "http://www.w3.org/Graphics/SVG/1.1/DTD/svg11.dtd">
<svg version="1.1" id="图层_1" xmlns="http://www.w3.org/2000/svg" xmlns:xlink="http://www.w3.org/1999/xlink" x="0px" y="0px"
	 width="16px" height="16px" viewBox="0 0 16 16" enable-background="new 0 0 16 16" xml:space="preserve">
<g>
	<path fill="#535455" d="M3.913,2.044H2.304c-0.739,0-1.341,0.602-1.341,1.341v0.599c0,0.74,0.602,1.341,1.341,1.341h1.609
		c0.74,0,1.341-0.602,1.341-1.341V3.385C5.254,2.645,4.653,2.044,3.913,2.044z M4.254,3.984c0,0.188-0.153,0.341-0.341,0.341H2.304
		c-0.188,0-0.341-0.153-0.341-0.341V3.385c0-0.188,0.153-0.341,0.341-0.341h1.609c0.188,0,0.341,0.153,0.341,0.341V3.984z"/>
	<path fill="#535455" d="M7.196,5.325h1.609c0.74,0,1.341-0.602,1.341-1.341V3.385c0-0.74-0.602-1.341-1.341-1.341H7.196
		c-0.74,0-1.341,0.602-1.341,1.341v0.599C5.854,4.723,6.456,5.325,7.196,5.325z M6.854,3.385c0-0.188,0.153-0.341,0.341-0.341h1.609
		c0.188,0,0.341,0.153,0.341,0.341v0.599c0,0.188-0.153,0.341-0.341,0.341H7.196c-0.188,0-0.341-0.153-0.341-0.341V3.385z"/>
	<path fill="#535455" d="M13.696,2.044h-1.609c-0.739,0-1.341,0.602-1.341,1.341v0.599c0,0.74,0.602,1.341,1.341,1.341h1.609
		c0.739,0,1.341-0.602,1.341-1.341V3.385C15.037,2.645,14.435,2.044,13.696,2.044z M14.037,3.984c0,0.188-0.153,0.341-0.341,0.341
		h-1.609c-0.188,0-0.341-0.153-0.341-0.341V3.385c0-0.188,0.153-0.341,0.341-0.341h1.609c0.188,0,0.341,0.153,0.341,0.341V3.984z"/>
	<path fill="#535455" d="M3.913,6.36H2.304c-0.739,0-1.341,0.602-1.341,1.341V8.3c0,0.74,0.602,1.341,1.341,1.341h1.609
		c0.74,0,1.341-0.602,1.341-1.341V7.7C5.254,6.961,4.653,6.36,3.913,6.36z M4.254,8.3c0,0.188-0.153,0.341-0.341,0.341H2.304
		c-0.188,0-0.341-0.153-0.341-0.341V7.7c0-0.188,0.153-0.341,0.341-0.341h1.609c0.188,0,0.341,0.153,0.341,0.341V8.3z"/>
	<path fill="#535455" d="M7.196,9.641h1.609c0.74,0,1.341-0.602,1.341-1.341V7.7c0-0.739-0.602-1.341-1.341-1.341H7.196
		c-0.74,0-1.341,0.602-1.341,1.341V8.3C5.854,9.039,6.456,9.641,7.196,9.641z M6.854,7.7c0-0.188,0.153-0.341,0.341-0.341h1.609
		c0.188,0,0.341,0.153,0.341,0.341V8.3c0,0.188-0.153,0.341-0.341,0.341H7.196c-0.188,0-0.341-0.153-0.341-0.341V7.7z"/>
	<path fill="#535455" d="M3.913,10.675H2.304c-0.739,0-1.341,0.602-1.341,1.342v0.599c0,0.739,0.602,1.341,1.341,1.341h1.609
		c0.74,0,1.341-0.602,1.341-1.341v-0.599C5.254,11.277,4.653,10.675,3.913,10.675z M4.254,12.615c0,0.188-0.153,0.341-0.341,0.341
		H2.304c-0.188,0-0.341-0.153-0.341-0.341v-0.599c0-0.188,0.153-0.342,0.341-0.342h1.609c0.188,0,0.341,0.153,0.341,0.342V12.615z"
		/>
	<path fill="#535455" d="M14.537,6.235h-3.188c-0.276,0-0.5,0.224-0.5,0.5v3.94H6.354c-0.276,0-0.5,0.224-0.5,0.5v2.281
		c0,0.276,0.224,0.5,0.5,0.5s0.5-0.224,0.5-0.5v-1.781h4.495c0.276,0,0.5-0.224,0.5-0.5v-3.94h2.688c0.276,0,0.5-0.224,0.5-0.5
		S14.813,6.235,14.537,6.235z"/>
</g>
</svg>
