<?xml version="1.0" encoding="utf-8"?>
<!-- Generator: Adobe Illustrator 17.0.0, SVG Export Plug-In . SVG Version: 6.00 Build 0)  -->
<!DOCTYPE svg PUBLIC "-//W3C//DTD SVG 1.1//EN" "http://www.w3.org/Graphics/SVG/1.1/DTD/svg11.dtd">
<svg version="1.1" id="图层_1" xmlns="http://www.w3.org/2000/svg" xmlns:xlink="http://www.w3.org/1999/xlink" x="0px" y="0px"
	 width="16px" height="16px" viewBox="0 0 16 16" enable-background="new 0 0 16 16" xml:space="preserve">
<path fill="#535455" d="M8,1.44C4.383,1.44,1.441,4.383,1.441,8S4.383,14.56,8,14.56c3.617,0,6.56-2.942,6.56-6.56
	S11.617,1.44,8,1.44z M8,13.56c-0.694,0-1.433-1.077-1.839-2.789H9.84C9.433,12.483,8.694,13.56,8,13.56z M5.976,9.771
	C5.9,9.219,5.847,8.635,5.847,8c0-0.524,0.038-1.011,0.091-1.479h4.125C10.115,6.989,10.153,7.476,10.153,8
	c0,0.635-0.053,1.219-0.129,1.771H5.976z M2.441,8c0-0.513,0.075-1.008,0.206-1.479h2.277C4.875,6.994,4.847,7.487,4.847,8
	c0,0.619,0.04,1.21,0.111,1.771H2.735C2.547,9.214,2.441,8.619,2.441,8z M8,2.44c0.733,0,1.52,1.195,1.907,3.08H6.093
	C6.48,3.635,7.267,2.44,8,2.44z M11.077,6.521H13.3c0.018,0,0.033-0.008,0.051-0.01c0.132,0.475,0.209,0.973,0.209,1.49
	c0,0.619-0.106,1.214-0.294,1.771h-2.223c0.07-0.56,0.111-1.151,0.111-1.771C11.153,7.487,11.125,6.994,11.077,6.521z M12.969,5.521
	h-2.034c-0.202-1.09-0.536-2.018-0.966-2.714C11.276,3.305,12.346,4.279,12.969,5.521z M6.032,2.807
	c-0.43,0.696-0.764,1.624-0.966,2.714H3.031C3.653,4.279,4.724,3.304,6.032,2.807z M3.187,10.771h1.937
	c0.205,0.964,0.516,1.79,0.907,2.423C4.828,12.735,3.825,11.873,3.187,10.771z M9.968,13.193c0.391-0.633,0.702-1.458,0.908-2.422
	h1.937C12.175,11.873,11.172,12.735,9.968,13.193z"/>
</svg>
